<?xml version="1.0" encoding="utf-8" standalone="no"?>
<!DOCTYPE svg PUBLIC "-//W3C//DTD SVG 1.1//EN"
  "http://www.w3.org/Graphics/SVG/1.1/DTD/svg11.dtd">
<!-- Created with matplotlib (https://matplotlib.org/) -->
<svg height="61.32pt" version="1.1" viewBox="0 0 299.376 61.32" width="299.376pt" xmlns="http://www.w3.org/2000/svg" xmlns:xlink="http://www.w3.org/1999/xlink">
 <defs>
  <style type="text/css">
*{stroke-linecap:butt;stroke-linejoin:round;}
  </style>
 </defs>
 <g id="figure_1">
  <g id="patch_1">
   <path d="M 0 61.32 
L 299.376 61.32 
L 299.376 0 
L 0 0 
z
" style="fill:none;"/>
  </g>
  <g id="axes_1">
   <g id="patch_2">
    <path clip-path="url(#p8800b6c829)" d="M 204.788 29.232 
C 205.81911 29.232 206.808127 28.845095 207.537231 28.156496 
C 208.266336 27.467897 208.676 26.533826 208.676 25.56 
C 208.676 24.586174 208.266336 23.652103 207.537231 22.963504 
C 206.808127 22.274905 205.81911 21.888 204.788 21.888 
C 203.75689 21.888 202.767873 22.274905 202.038769 22.963504 
C 201.309664 23.652103 200.9 24.586174 200.9 25.56 
C 200.9 26.533826 201.309664 27.467897 202.038769 28.156496 
C 202.767873 28.845095 203.75689 29.232 204.788 29.232 
z
" style="fill:none;stroke:#000000;stroke-linejoin:miter;stroke-width:2;"/>
   </g>
   <g id="line2d_1">
    <path clip-path="url(#p8800b6c829)" d="M 59.96 48.51 
L 60.997938 48.478565 
L 62.03161 48.384387 
L 63.05677 48.227855 
L 64.069204 48.009611 
L 65.064753 47.730553 
L 66.039325 47.391826 
L 66.988917 46.994824 
L 67.909624 46.541176 
L 68.797665 46.032748 
L 69.649391 45.471628 
L 70.4613 44.860123 
L 71.230057 44.200745 
L 71.952504 43.496204 
L 72.62567 42.749394 
L 73.246791 41.963385 
L 73.813313 41.141406 
L 74.322909 40.286836 
L 74.773484 39.403185 
L 75.163188 38.494085 
L 75.490419 37.563272 
L 75.753832 36.61457 
L 75.952345 35.651878 
L 76.085142 34.679152 
L 76.151677 33.700389 
L 76.151677 32.719611 
L 76.085142 31.740848 
L 75.952345 30.768122 
L 75.753832 29.80543 
L 75.490419 28.856728 
L 75.163188 27.925915 
L 74.773484 27.016815 
L 74.322909 26.133164 
L 73.813313 25.278594 
L 73.246791 24.456615 
L 72.62567 23.670606 
L 71.952504 22.923796 
L 71.230057 22.219255 
L 70.4613 21.559877 
L 69.649391 20.948372 
L 68.797665 20.387252 
L 67.909624 19.878824 
L 66.988917 19.425176 
L 66.039325 19.028174 
L 65.064753 18.689447 
L 64.069204 18.410389 
L 63.05677 18.192145 
L 62.03161 18.035613 
L 60.997938 17.941435 
L 59.96 17.91 
L 59.96 17.91 
L 38.9 17.91 
L 38.9 33.21 
L 38.9 48.51 
L 59.96 48.51 
" style="fill:none;stroke:#000000;stroke-linecap:round;stroke-width:2;"/>
   </g>
   <g id="line2d_2">
    <path clip-path="url(#p8800b6c829)" d="M 27.56 40.86 
L 38.9 40.86 
" style="fill:none;stroke:#000000;stroke-linecap:round;stroke-width:2;"/>
   </g>
   <g id="line2d_3">
    <path clip-path="url(#p8800b6c829)" d="M 27.56 25.56 
L 38.9 25.56 
" style="fill:none;stroke:#000000;stroke-linecap:round;stroke-width:2;"/>
   </g>
   <g id="line2d_4">
    <path clip-path="url(#p8800b6c829)" d="M 27.56 33.21 
M 76.16 33.21 
L 87.5 33.21 
" style="fill:none;stroke:#000000;stroke-linecap:round;stroke-width:2;"/>
   </g>
   <g id="line2d_5">
    <path clip-path="url(#p8800b6c829)" d="M 27.56 25.56 
" style="fill:none;stroke:#000000;stroke-linecap:round;stroke-width:2;"/>
   </g>
   <g id="line2d_6">
    <path clip-path="url(#p8800b6c829)" d="M 27.56 40.86 
" style="fill:none;stroke:#000000;stroke-linecap:round;stroke-width:2;"/>
   </g>
   <g id="line2d_7">
    <path clip-path="url(#p8800b6c829)" d="M 168.5 25.56 
L 179.84 25.56 
M 208.676 25.56 
" style="fill:none;stroke:#000000;stroke-linecap:round;stroke-width:2;"/>
   </g>
   <g id="line2d_8">
    <path clip-path="url(#p8800b6c829)" d="M 208.676 25.56 
L 212.24 25.56 
" style="fill:none;stroke:#000000;stroke-linecap:round;stroke-width:2;"/>
   </g>
   <g id="line2d_9">
    <path clip-path="url(#p8800b6c829)" d="M 179.84 25.56 
L 179.84 40.86 
L 200.9 25.56 
L 179.84 10.26 
L 179.84 25.56 
" style="fill:none;stroke:#000000;stroke-linecap:round;stroke-width:2;"/>
   </g>
   <g id="line2d_10">
    <path clip-path="url(#p8800b6c829)" d="M 241.076 48.51 
L 242.113938 48.478565 
L 243.14761 48.384387 
L 244.17277 48.227855 
L 245.185204 48.009611 
L 246.180753 47.730553 
L 247.155325 47.391826 
L 248.104917 46.994824 
L 249.025624 46.541176 
L 249.913665 46.032748 
L 250.765391 45.471628 
L 251.5773 44.860123 
L 252.346057 44.200745 
L 253.068504 43.496204 
L 253.74167 42.749394 
L 254.362791 41.963385 
L 254.929313 41.141406 
L 255.438909 40.286836 
L 255.889484 39.403185 
L 256.279188 38.494085 
L 256.606419 37.563272 
L 256.869832 36.61457 
L 257.068345 35.651878 
L 257.201142 34.679152 
L 257.267677 33.700389 
L 257.267677 32.719611 
L 257.201142 31.740848 
L 257.068345 30.768122 
L 256.869832 29.80543 
L 256.606419 28.856728 
L 256.279188 27.925915 
L 255.889484 27.016815 
L 255.438909 26.133164 
L 254.929313 25.278594 
L 254.362791 24.456615 
L 253.74167 23.670606 
L 253.068504 22.923796 
L 252.346057 22.219255 
L 251.5773 21.559877 
L 250.765391 20.948372 
L 249.913665 20.387252 
L 249.025624 19.878824 
L 248.104917 19.425176 
L 247.155325 19.028174 
L 246.180753 18.689447 
L 245.185204 18.410389 
L 244.17277 18.192145 
L 243.14761 18.035613 
L 242.113938 17.941435 
L 241.076 17.91 
L 241.076 17.91 
L 220.016 17.91 
L 220.016 33.21 
L 220.016 48.51 
L 241.076 48.51 
" style="fill:none;stroke:#000000;stroke-linecap:round;stroke-width:2;"/>
   </g>
   <g id="line2d_11">
    <path clip-path="url(#p8800b6c829)" d="M 208.676 40.86 
L 220.016 40.86 
" style="fill:none;stroke:#000000;stroke-linecap:round;stroke-width:2;"/>
   </g>
   <g id="line2d_12">
    <path clip-path="url(#p8800b6c829)" d="M 208.676 25.56 
L 220.016 25.56 
" style="fill:none;stroke:#000000;stroke-linecap:round;stroke-width:2;"/>
   </g>
   <g id="line2d_13">
    <path clip-path="url(#p8800b6c829)" d="M 208.676 33.21 
M 257.276 33.21 
L 268.616 33.21 
" style="fill:none;stroke:#000000;stroke-linecap:round;stroke-width:2;"/>
   </g>
   <g id="line2d_14">
    <path clip-path="url(#p8800b6c829)" d="M 168.5 25.56 
L 168.5 31.935 
L 168.5 38.31 
" style="fill:none;stroke:#000000;stroke-linecap:round;stroke-width:2;"/>
   </g>
   <g id="line2d_15">
    <path clip-path="url(#p8800b6c829)" d="M 168.5 38.31 
L 168.5 44.685 
L 168.5 51.06 
" style="fill:none;stroke:#000000;stroke-linecap:round;stroke-width:2;"/>
   </g>
   <g id="line2d_16">
    <path clip-path="url(#p8800b6c829)" d="M 168.5 51.06 
L 188.588 51.06 
L 208.676 51.06 
" style="fill:none;stroke:#000000;stroke-linecap:round;stroke-width:2;"/>
   </g>
   <g id="line2d_17">
    <path clip-path="url(#p8800b6c829)" d="M 208.676 51.06 
L 208.676 45.96 
L 208.676 40.86 
" style="fill:none;stroke:#000000;stroke-linecap:round;stroke-width:2;"/>
   </g>
   <g id="line2d_18">
    <path clip-path="url(#p8800b6c829)" d="M 168.5 38.31 
L 161.75 38.31 
L 155 38.31 
" style="fill:none;stroke:#000000;stroke-linecap:round;stroke-width:2;"/>
   </g>
   <g id="text_1">
    <!-- $\Phi_3$ -->
    <defs>
     <path d="M 34.46875 56.9375 
Q 27.15625 55.90625 22.359375 51.65625 
Q 16.015625 46.046875 16.015625 36.375 
Q 16.015625 26.765625 22.359375 21.140625 
Q 27.15625 16.890625 34.46875 15.875 
z
M 44.34375 15.875 
Q 51.65625 16.890625 56.453125 21.140625 
Q 62.703125 26.765625 62.703125 36.375 
Q 62.703125 46.046875 56.453125 51.65625 
Q 51.65625 55.90625 44.34375 56.9375 
z
M 34.46875 7.71875 
Q 22.5625 8.796875 14.84375 15.328125 
Q 5.609375 23.140625 5.609375 36.375 
Q 5.609375 49.609375 14.84375 57.46875 
Q 22.515625 64.0625 34.46875 65.140625 
L 34.46875 72.90625 
L 44.34375 72.90625 
L 44.34375 65.140625 
Q 56.25 64.015625 63.921875 57.46875 
Q 73.09375 49.609375 73.09375 36.375 
Q 73.09375 23.1875 63.921875 15.328125 
Q 56.25 8.796875 44.34375 7.671875 
L 44.34375 0 
L 34.46875 0 
z
" id="DejaVuSans-934"/>
     <path d="M 40.578125 39.3125 
Q 47.65625 37.796875 51.625 33 
Q 55.609375 28.21875 55.609375 21.1875 
Q 55.609375 10.40625 48.1875 4.484375 
Q 40.765625 -1.421875 27.09375 -1.421875 
Q 22.515625 -1.421875 17.65625 -0.515625 
Q 12.796875 0.390625 7.625 2.203125 
L 7.625 11.71875 
Q 11.71875 9.328125 16.59375 8.109375 
Q 21.484375 6.890625 26.8125 6.890625 
Q 36.078125 6.890625 40.9375 10.546875 
Q 45.796875 14.203125 45.796875 21.1875 
Q 45.796875 27.640625 41.28125 31.265625 
Q 36.765625 34.90625 28.71875 34.90625 
L 20.21875 34.90625 
L 20.21875 43.015625 
L 29.109375 43.015625 
Q 36.375 43.015625 40.234375 45.921875 
Q 44.09375 48.828125 44.09375 54.296875 
Q 44.09375 59.90625 40.109375 62.90625 
Q 36.140625 65.921875 28.71875 65.921875 
Q 24.65625 65.921875 20.015625 65.03125 
Q 15.375 64.15625 9.8125 62.3125 
L 9.8125 71.09375 
Q 15.4375 72.65625 20.34375 73.4375 
Q 25.25 74.21875 29.59375 74.21875 
Q 40.828125 74.21875 47.359375 69.109375 
Q 53.90625 64.015625 53.90625 55.328125 
Q 53.90625 49.265625 50.4375 45.09375 
Q 46.96875 40.921875 40.578125 39.3125 
z
" id="DejaVuSans-51"/>
    </defs>
    <g transform="translate(90.74 37.625)scale(0.16 -0.16)">
     <use transform="translate(0 0.09375)" xlink:href="#DejaVuSans-934"/>
     <use transform="translate(79.667969 -16.3125)scale(0.7)" xlink:href="#DejaVuSans-51"/>
    </g>
   </g>
   <g id="text_2">
    <!-- $x_1$ -->
    <defs>
     <path d="M 60.015625 54.6875 
L 34.90625 27.875 
L 50.296875 0 
L 39.984375 0 
L 28.421875 21.6875 
L 8.296875 0 
L -2.59375 0 
L 24.3125 28.8125 
L 10.015625 54.6875 
L 20.3125 54.6875 
L 30.8125 34.90625 
L 49.125 54.6875 
z
" id="DejaVuSans-Oblique-120"/>
     <path d="M 12.40625 8.296875 
L 28.515625 8.296875 
L 28.515625 63.921875 
L 10.984375 60.40625 
L 10.984375 69.390625 
L 28.421875 72.90625 
L 38.28125 72.90625 
L 38.28125 8.296875 
L 54.390625 8.296875 
L 54.390625 0 
L 12.40625 0 
z
" id="DejaVuSans-49"/>
    </defs>
    <g transform="translate(7.2 29.975)scale(0.16 -0.16)">
     <use transform="translate(0 0.3125)" xlink:href="#DejaVuSans-Oblique-120"/>
     <use transform="translate(59.179688 -16.09375)scale(0.7)" xlink:href="#DejaVuSans-49"/>
    </g>
   </g>
   <g id="text_3">
    <!-- $x_2$ -->
    <defs>
     <path d="M 19.1875 8.296875 
L 53.609375 8.296875 
L 53.609375 0 
L 7.328125 0 
L 7.328125 8.296875 
Q 12.9375 14.109375 22.625 23.890625 
Q 32.328125 33.6875 34.8125 36.53125 
Q 39.546875 41.84375 41.421875 45.53125 
Q 43.3125 49.21875 43.3125 52.78125 
Q 43.3125 58.59375 39.234375 62.25 
Q 35.15625 65.921875 28.609375 65.921875 
Q 23.96875 65.921875 18.8125 64.3125 
Q 13.671875 62.703125 7.8125 59.421875 
L 7.8125 69.390625 
Q 13.765625 71.78125 18.9375 73 
Q 24.125 74.21875 28.421875 74.21875 
Q 39.75 74.21875 46.484375 68.546875 
Q 53.21875 62.890625 53.21875 53.421875 
Q 53.21875 48.921875 51.53125 44.890625 
Q 49.859375 40.875 45.40625 35.40625 
Q 44.1875 33.984375 37.640625 27.21875 
Q 31.109375 20.453125 19.1875 8.296875 
z
" id="DejaVuSans-50"/>
    </defs>
    <g transform="translate(7.2 45.275)scale(0.16 -0.16)">
     <use transform="translate(0 0.3125)" xlink:href="#DejaVuSans-Oblique-120"/>
     <use transform="translate(59.179688 -16.09375)scale(0.7)" xlink:href="#DejaVuSans-50"/>
    </g>
   </g>
   <g id="text_4">
    <!-- $\Phi_4$ -->
    <defs>
     <path d="M 37.796875 64.3125 
L 12.890625 25.390625 
L 37.796875 25.390625 
z
M 35.203125 72.90625 
L 47.609375 72.90625 
L 47.609375 25.390625 
L 58.015625 25.390625 
L 58.015625 17.1875 
L 47.609375 17.1875 
L 47.609375 0 
L 37.796875 0 
L 37.796875 17.1875 
L 4.890625 17.1875 
L 4.890625 26.703125 
z
" id="DejaVuSans-52"/>
    </defs>
    <g transform="translate(271.856 37.625)scale(0.16 -0.16)">
     <use transform="translate(0 0.09375)" xlink:href="#DejaVuSans-934"/>
     <use transform="translate(79.667969 -16.3125)scale(0.7)" xlink:href="#DejaVuSans-52"/>
    </g>
   </g>
   <g id="text_5">
    <!-- $x_1$ -->
    <g transform="translate(134.64 42.725)scale(0.16 -0.16)">
     <use transform="translate(0 0.3125)" xlink:href="#DejaVuSans-Oblique-120"/>
     <use transform="translate(59.179688 -16.09375)scale(0.7)" xlink:href="#DejaVuSans-49"/>
    </g>
   </g>
   <g id="patch_3">
    <path clip-path="url(#p8800b6c829)" d="M 168.5 40.605 
C 169.144444 40.605 169.762579 40.363184 170.218269 39.93281 
C 170.67396 39.502436 170.93 38.918641 170.93 38.31 
C 170.93 37.701359 170.67396 37.117564 170.218269 36.68719 
C 169.762579 36.256816 169.144444 36.015 168.5 36.015 
C 167.855556 36.015 167.237421 36.256816 166.781731 36.68719 
C 166.32604 37.117564 166.07 37.701359 166.07 38.31 
C 166.07 38.918641 166.32604 39.502436 166.781731 39.93281 
C 167.237421 40.363184 167.855556 40.605 168.5 40.605 
z
" style="stroke:#000000;stroke-linejoin:miter;stroke-width:2;"/>
   </g>
  </g>
 </g>
 <defs>
  <clipPath id="p8800b6c829">
   <rect height="46.92" width="247.536" x="24.32" y="7.2"/>
  </clipPath>
 </defs>
</svg>
