<?xml version="1.0" encoding="UTF-8"?>
<svg xmlns="http://www.w3.org/2000/svg" xmlns:xlink="http://www.w3.org/1999/xlink"
     width="540" height="280" viewBox="-67.5 -35.0 135 70">
<defs>
<g id="d0">
<g>
<symbol overflow="visible" id="embed-9168773908308245097-glyph0-0">
<path style="stroke:none;" d=""/>
</symbol>
<symbol overflow="visible" id="embed-9168773908308245097-glyph0-1">
<path style="stroke:none;" d="M 0.40625 -2.53125 C 0.796875 -3.671875 1.890625 -3.6875 2 -3.6875 C 3.5 -3.6875 3.609375 -1.9375 3.609375 -1.15625 C 3.609375 -0.546875 3.5625 -0.375 3.484375 -0.171875 C 3.265625 0.546875 2.96875 1.703125 2.96875 1.96875 C 2.96875 2.078125 3.015625 2.140625 3.09375 2.140625 C 3.234375 2.140625 3.3125 1.921875 3.421875 1.546875 C 3.65625 0.703125 3.75 0.140625 3.78125 -0.171875 C 3.8125 -0.296875 3.828125 -0.421875 3.875 -0.5625 C 4.1875 -1.546875 4.828125 -3.03125 5.21875 -3.8125 C 5.296875 -3.9375 5.40625 -4.15625 5.40625 -4.203125 C 5.40625 -4.296875 5.3125 -4.296875 5.296875 -4.296875 C 5.265625 -4.296875 5.203125 -4.296875 5.171875 -4.234375 C 4.65625 -3.28125 4.25 -2.28125 3.859375 -1.28125 C 3.84375 -1.578125 3.84375 -2.34375 3.453125 -3.3125 C 3.203125 -3.921875 2.8125 -4.40625 2.125 -4.40625 C 0.875 -4.40625 0.171875 -2.890625 0.171875 -2.578125 C 0.171875 -2.484375 0.265625 -2.484375 0.375 -2.484375 Z M 0.40625 -2.53125 "/>
</symbol>
<symbol overflow="visible" id="embed-9168773908308245097-glyph1-0">
<path style="stroke:none;" d=""/>
</symbol>
<symbol overflow="visible" id="embed-9168773908308245097-glyph1-1">
<path style="stroke:none;" d="M 2.9375 -2.65625 C 2.796875 -2.890625 2.5625 -3.078125 2.21875 -3.078125 C 1.328125 -3.078125 0.421875 -2.09375 0.421875 -1.09375 C 0.421875 -0.40625 0.875 0.0625 1.484375 0.0625 C 1.859375 0.0625 2.1875 -0.140625 2.46875 -0.421875 C 2.59375 0 3 0.0625 3.1875 0.0625 C 3.4375 0.0625 3.609375 -0.078125 3.734375 -0.296875 C 3.890625 -0.578125 3.984375 -0.96875 3.984375 -1 C 3.984375 -1.09375 3.890625 -1.09375 3.875 -1.09375 C 3.765625 -1.09375 3.765625 -1.0625 3.71875 -0.875 C 3.625 -0.53125 3.5 -0.125 3.203125 -0.125 C 3.03125 -0.125 2.96875 -0.28125 2.96875 -0.46875 C 2.96875 -0.578125 3.03125 -0.84375 3.078125 -1.015625 C 3.125 -1.203125 3.203125 -1.484375 3.234375 -1.640625 L 3.375 -2.171875 C 3.421875 -2.359375 3.5 -2.6875 3.5 -2.71875 C 3.5 -2.875 3.375 -2.9375 3.265625 -2.9375 C 3.140625 -2.9375 2.984375 -2.859375 2.9375 -2.65625 Z M 2.5 -0.875 C 2.453125 -0.671875 2.296875 -0.53125 2.140625 -0.40625 C 2.078125 -0.34375 1.796875 -0.125 1.5 -0.125 C 1.234375 -0.125 0.984375 -0.3125 0.984375 -0.796875 C 0.984375 -1.171875 1.1875 -1.9375 1.359375 -2.21875 C 1.671875 -2.78125 2.03125 -2.875 2.21875 -2.875 C 2.703125 -2.875 2.84375 -2.34375 2.84375 -2.265625 C 2.84375 -2.25 2.828125 -2.1875 2.828125 -2.171875 Z M 2.5 -0.875 "/>
</symbol>
</g>
<clipPath id="embed-9168773908308245097-clip1">
  <path d="M 0 0 L 6 0 L 6 6.226562 L 0 6.226562 Z M 0 0 "/>
</clipPath>
<clipPath id="embed-9168773908308245097-clip2">
  <path d="M 5 2 L 9.976562 2 L 9.976562 6 L 5 6 Z M 5 2 "/>
</clipPath>
</g>
<g id="d1">
<g>
<symbol overflow="visible" id="embed-2648515718874807358-glyph0-0">
<path style="stroke:none;" d=""/>
</symbol>
<symbol overflow="visible" id="embed-2648515718874807358-glyph0-1">
<path style="stroke:none;" d="M 0.40625 -2.53125 C 0.796875 -3.671875 1.890625 -3.6875 2 -3.6875 C 3.5 -3.6875 3.609375 -1.9375 3.609375 -1.15625 C 3.609375 -0.546875 3.5625 -0.375 3.484375 -0.171875 C 3.265625 0.546875 2.96875 1.703125 2.96875 1.96875 C 2.96875 2.078125 3.015625 2.140625 3.09375 2.140625 C 3.234375 2.140625 3.3125 1.921875 3.421875 1.546875 C 3.65625 0.703125 3.75 0.140625 3.78125 -0.171875 C 3.8125 -0.296875 3.828125 -0.421875 3.875 -0.5625 C 4.1875 -1.546875 4.828125 -3.03125 5.21875 -3.8125 C 5.296875 -3.9375 5.40625 -4.15625 5.40625 -4.203125 C 5.40625 -4.296875 5.3125 -4.296875 5.296875 -4.296875 C 5.265625 -4.296875 5.203125 -4.296875 5.171875 -4.234375 C 4.65625 -3.28125 4.25 -2.28125 3.859375 -1.28125 C 3.84375 -1.578125 3.84375 -2.34375 3.453125 -3.3125 C 3.203125 -3.921875 2.8125 -4.40625 2.125 -4.40625 C 0.875 -4.40625 0.171875 -2.890625 0.171875 -2.578125 C 0.171875 -2.484375 0.265625 -2.484375 0.375 -2.484375 Z M 0.40625 -2.53125 "/>
</symbol>
<symbol overflow="visible" id="embed-2648515718874807358-glyph1-0">
<path style="stroke:none;" d=""/>
</symbol>
<symbol overflow="visible" id="embed-2648515718874807358-glyph1-1">
<path style="stroke:none;" d="M 1.84375 -4.625 C 1.84375 -4.640625 1.875 -4.734375 1.875 -4.734375 C 1.875 -4.78125 1.84375 -4.84375 1.75 -4.84375 C 1.609375 -4.84375 1.03125 -4.78125 0.859375 -4.765625 C 0.8125 -4.765625 0.703125 -4.75 0.703125 -4.609375 C 0.703125 -4.515625 0.8125 -4.515625 0.890625 -4.515625 C 1.21875 -4.515625 1.21875 -4.453125 1.21875 -4.40625 C 1.21875 -4.359375 1.15625 -4.078125 1.109375 -3.921875 L 0.953125 -3.28125 C 0.890625 -3.03125 0.515625 -1.515625 0.5 -1.421875 C 0.453125 -1.25 0.453125 -1.15625 0.453125 -1.078125 C 0.453125 -0.375 0.90625 0.0625 1.484375 0.0625 C 2.359375 0.0625 3.28125 -0.875 3.28125 -1.90625 C 3.28125 -2.71875 2.71875 -3.078125 2.234375 -3.078125 C 1.875 -3.078125 1.5625 -2.875 1.359375 -2.6875 Z M 1.484375 -0.125 C 1.15625 -0.125 0.953125 -0.421875 0.953125 -0.84375 C 0.953125 -1.09375 1.015625 -1.328125 1.21875 -2.125 C 1.25 -2.25 1.25 -2.265625 1.390625 -2.421875 C 1.65625 -2.71875 1.96875 -2.875 2.21875 -2.875 C 2.484375 -2.875 2.71875 -2.671875 2.71875 -2.203125 C 2.71875 -1.921875 2.578125 -1.203125 2.359375 -0.796875 C 2.1875 -0.453125 1.84375 -0.125 1.484375 -0.125 Z M 1.484375 -0.125 "/>
</symbol>
</g>
<clipPath id="embed-2648515718874807358-clip1">
  <path d="M 0 0 L 6 0 L 6 6.226562 L 0 6.226562 Z M 0 0 "/>
</clipPath>
</g>
<g id="d2">
<g>
<symbol overflow="visible" id="embed-9168773908308245097-glyph0-0">
<path style="stroke:none;" d=""/>
</symbol>
<symbol overflow="visible" id="embed-9168773908308245097-glyph0-1">
<path style="stroke:none;" d="M 0.40625 -2.53125 C 0.796875 -3.671875 1.890625 -3.6875 2 -3.6875 C 3.5 -3.6875 3.609375 -1.9375 3.609375 -1.15625 C 3.609375 -0.546875 3.5625 -0.375 3.484375 -0.171875 C 3.265625 0.546875 2.96875 1.703125 2.96875 1.96875 C 2.96875 2.078125 3.015625 2.140625 3.09375 2.140625 C 3.234375 2.140625 3.3125 1.921875 3.421875 1.546875 C 3.65625 0.703125 3.75 0.140625 3.78125 -0.171875 C 3.8125 -0.296875 3.828125 -0.421875 3.875 -0.5625 C 4.1875 -1.546875 4.828125 -3.03125 5.21875 -3.8125 C 5.296875 -3.9375 5.40625 -4.15625 5.40625 -4.203125 C 5.40625 -4.296875 5.3125 -4.296875 5.296875 -4.296875 C 5.265625 -4.296875 5.203125 -4.296875 5.171875 -4.234375 C 4.65625 -3.28125 4.25 -2.28125 3.859375 -1.28125 C 3.84375 -1.578125 3.84375 -2.34375 3.453125 -3.3125 C 3.203125 -3.921875 2.8125 -4.40625 2.125 -4.40625 C 0.875 -4.40625 0.171875 -2.890625 0.171875 -2.578125 C 0.171875 -2.484375 0.265625 -2.484375 0.375 -2.484375 Z M 0.40625 -2.53125 "/>
</symbol>
<symbol overflow="visible" id="embed-9168773908308245097-glyph1-0">
<path style="stroke:none;" d=""/>
</symbol>
<symbol overflow="visible" id="embed-9168773908308245097-glyph1-1">
<path style="stroke:none;" d="M 2.9375 -2.65625 C 2.796875 -2.890625 2.5625 -3.078125 2.21875 -3.078125 C 1.328125 -3.078125 0.421875 -2.09375 0.421875 -1.09375 C 0.421875 -0.40625 0.875 0.0625 1.484375 0.0625 C 1.859375 0.0625 2.1875 -0.140625 2.46875 -0.421875 C 2.59375 0 3 0.0625 3.1875 0.0625 C 3.4375 0.0625 3.609375 -0.078125 3.734375 -0.296875 C 3.890625 -0.578125 3.984375 -0.96875 3.984375 -1 C 3.984375 -1.09375 3.890625 -1.09375 3.875 -1.09375 C 3.765625 -1.09375 3.765625 -1.0625 3.71875 -0.875 C 3.625 -0.53125 3.5 -0.125 3.203125 -0.125 C 3.03125 -0.125 2.96875 -0.28125 2.96875 -0.46875 C 2.96875 -0.578125 3.03125 -0.84375 3.078125 -1.015625 C 3.125 -1.203125 3.203125 -1.484375 3.234375 -1.640625 L 3.375 -2.171875 C 3.421875 -2.359375 3.5 -2.6875 3.5 -2.71875 C 3.5 -2.875 3.375 -2.9375 3.265625 -2.9375 C 3.140625 -2.9375 2.984375 -2.859375 2.9375 -2.65625 Z M 2.5 -0.875 C 2.453125 -0.671875 2.296875 -0.53125 2.140625 -0.40625 C 2.078125 -0.34375 1.796875 -0.125 1.5 -0.125 C 1.234375 -0.125 0.984375 -0.3125 0.984375 -0.796875 C 0.984375 -1.171875 1.1875 -1.9375 1.359375 -2.21875 C 1.671875 -2.78125 2.03125 -2.875 2.21875 -2.875 C 2.703125 -2.875 2.84375 -2.34375 2.84375 -2.265625 C 2.84375 -2.25 2.828125 -2.1875 2.828125 -2.171875 Z M 2.5 -0.875 "/>
</symbol>
</g>
<clipPath id="embed-9168773908308245097-clip1">
  <path d="M 0 0 L 6 0 L 6 6.226562 L 0 6.226562 Z M 0 0 "/>
</clipPath>
<clipPath id="embed-9168773908308245097-clip2">
  <path d="M 5 2 L 9.976562 2 L 9.976562 6 L 5 6 Z M 5 2 "/>
</clipPath>
</g>
<g id="d3">
<g>
<symbol overflow="visible" id="embed-2648515718874807358-glyph0-0">
<path style="stroke:none;" d=""/>
</symbol>
<symbol overflow="visible" id="embed-2648515718874807358-glyph0-1">
<path style="stroke:none;" d="M 0.40625 -2.53125 C 0.796875 -3.671875 1.890625 -3.6875 2 -3.6875 C 3.5 -3.6875 3.609375 -1.9375 3.609375 -1.15625 C 3.609375 -0.546875 3.5625 -0.375 3.484375 -0.171875 C 3.265625 0.546875 2.96875 1.703125 2.96875 1.96875 C 2.96875 2.078125 3.015625 2.140625 3.09375 2.140625 C 3.234375 2.140625 3.3125 1.921875 3.421875 1.546875 C 3.65625 0.703125 3.75 0.140625 3.78125 -0.171875 C 3.8125 -0.296875 3.828125 -0.421875 3.875 -0.5625 C 4.1875 -1.546875 4.828125 -3.03125 5.21875 -3.8125 C 5.296875 -3.9375 5.40625 -4.15625 5.40625 -4.203125 C 5.40625 -4.296875 5.3125 -4.296875 5.296875 -4.296875 C 5.265625 -4.296875 5.203125 -4.296875 5.171875 -4.234375 C 4.65625 -3.28125 4.25 -2.28125 3.859375 -1.28125 C 3.84375 -1.578125 3.84375 -2.34375 3.453125 -3.3125 C 3.203125 -3.921875 2.8125 -4.40625 2.125 -4.40625 C 0.875 -4.40625 0.171875 -2.890625 0.171875 -2.578125 C 0.171875 -2.484375 0.265625 -2.484375 0.375 -2.484375 Z M 0.40625 -2.53125 "/>
</symbol>
<symbol overflow="visible" id="embed-2648515718874807358-glyph1-0">
<path style="stroke:none;" d=""/>
</symbol>
<symbol overflow="visible" id="embed-2648515718874807358-glyph1-1">
<path style="stroke:none;" d="M 1.84375 -4.625 C 1.84375 -4.640625 1.875 -4.734375 1.875 -4.734375 C 1.875 -4.78125 1.84375 -4.84375 1.75 -4.84375 C 1.609375 -4.84375 1.03125 -4.78125 0.859375 -4.765625 C 0.8125 -4.765625 0.703125 -4.75 0.703125 -4.609375 C 0.703125 -4.515625 0.8125 -4.515625 0.890625 -4.515625 C 1.21875 -4.515625 1.21875 -4.453125 1.21875 -4.40625 C 1.21875 -4.359375 1.15625 -4.078125 1.109375 -3.921875 L 0.953125 -3.28125 C 0.890625 -3.03125 0.515625 -1.515625 0.5 -1.421875 C 0.453125 -1.25 0.453125 -1.15625 0.453125 -1.078125 C 0.453125 -0.375 0.90625 0.0625 1.484375 0.0625 C 2.359375 0.0625 3.28125 -0.875 3.28125 -1.90625 C 3.28125 -2.71875 2.71875 -3.078125 2.234375 -3.078125 C 1.875 -3.078125 1.5625 -2.875 1.359375 -2.6875 Z M 1.484375 -0.125 C 1.15625 -0.125 0.953125 -0.421875 0.953125 -0.84375 C 0.953125 -1.09375 1.015625 -1.328125 1.21875 -2.125 C 1.25 -2.25 1.25 -2.265625 1.390625 -2.421875 C 1.65625 -2.71875 1.96875 -2.875 2.21875 -2.875 C 2.484375 -2.875 2.71875 -2.671875 2.71875 -2.203125 C 2.71875 -1.921875 2.578125 -1.203125 2.359375 -0.796875 C 2.1875 -0.453125 1.84375 -0.125 1.484375 -0.125 Z M 1.484375 -0.125 "/>
</symbol>
</g>
<clipPath id="embed-2648515718874807358-clip1">
  <path d="M 0 0 L 6 0 L 6 6.226562 L 0 6.226562 Z M 0 0 "/>
</clipPath>
</g>
<g id="d4">
<g>
<symbol overflow="visible" id="embed--4752437279082058665-glyph0-0">
<path style="stroke:none;" d=""/>
</symbol>
<symbol overflow="visible" id="embed--4752437279082058665-glyph0-1">
<path style="stroke:none;" d="M 7.609375 -6.046875 C 7.703125 -6.40625 7.71875 -6.5 8.4375 -6.5 C 8.703125 -6.5 8.78125 -6.5 8.78125 -6.703125 C 8.78125 -6.8125 8.671875 -6.8125 8.640625 -6.8125 C 8.359375 -6.8125 7.640625 -6.78125 7.359375 -6.78125 C 7.078125 -6.78125 6.375 -6.8125 6.078125 -6.8125 C 6 -6.8125 5.890625 -6.8125 5.890625 -6.609375 C 5.890625 -6.5 5.984375 -6.5 6.171875 -6.5 C 6.1875 -6.5 6.375 -6.5 6.546875 -6.484375 C 6.734375 -6.453125 6.8125 -6.453125 6.8125 -6.3125 C 6.8125 -6.28125 6.8125 -6.265625 6.78125 -6.125 L 6.1875 -3.703125 L 3.140625 -3.703125 L 3.734375 -6.046875 C 3.8125 -6.40625 3.84375 -6.5 4.5625 -6.5 C 4.828125 -6.5 4.90625 -6.5 4.90625 -6.703125 C 4.90625 -6.8125 4.796875 -6.8125 4.765625 -6.8125 C 4.484375 -6.8125 3.765625 -6.78125 3.484375 -6.78125 C 3.203125 -6.78125 2.5 -6.8125 2.203125 -6.8125 C 2.125 -6.8125 2.015625 -6.8125 2.015625 -6.609375 C 2.015625 -6.5 2.109375 -6.5 2.296875 -6.5 C 2.3125 -6.5 2.5 -6.5 2.671875 -6.484375 C 2.84375 -6.453125 2.9375 -6.453125 2.9375 -6.3125 C 2.9375 -6.28125 2.9375 -6.25 2.90625 -6.125 L 1.5625 -0.78125 C 1.46875 -0.390625 1.453125 -0.3125 0.65625 -0.3125 C 0.484375 -0.3125 0.390625 -0.3125 0.390625 -0.109375 C 0.390625 0 0.515625 0 0.53125 0 C 0.8125 0 1.515625 -0.03125 1.796875 -0.03125 C 2 -0.03125 2.21875 -0.015625 2.4375 -0.015625 C 2.65625 -0.015625 2.875 0 3.078125 0 C 3.15625 0 3.28125 0 3.28125 -0.203125 C 3.28125 -0.3125 3.1875 -0.3125 3 -0.3125 C 2.625 -0.3125 2.359375 -0.3125 2.359375 -0.484375 C 2.359375 -0.546875 2.375 -0.59375 2.375 -0.65625 L 3.0625 -3.390625 L 6.09375 -3.390625 C 5.6875 -1.734375 5.453125 -0.78125 5.40625 -0.640625 C 5.3125 -0.3125 5.125 -0.3125 4.5 -0.3125 C 4.359375 -0.3125 4.265625 -0.3125 4.265625 -0.109375 C 4.265625 0 4.390625 0 4.40625 0 C 4.6875 0 5.390625 -0.03125 5.671875 -0.03125 C 5.875 -0.03125 6.09375 -0.015625 6.3125 -0.015625 C 6.53125 -0.015625 6.75 0 6.953125 0 C 7.03125 0 7.15625 0 7.15625 -0.203125 C 7.15625 -0.3125 7.0625 -0.3125 6.875 -0.3125 C 6.515625 -0.3125 6.234375 -0.3125 6.234375 -0.484375 C 6.234375 -0.546875 6.25 -0.59375 6.265625 -0.65625 Z M 7.609375 -6.046875 "/>
</symbol>
<symbol overflow="visible" id="embed--4752437279082058665-glyph0-2">
<path style="stroke:none;" d="M 2.828125 -6.234375 C 2.828125 -6.4375 2.6875 -6.59375 2.46875 -6.59375 C 2.1875 -6.59375 1.921875 -6.328125 1.921875 -6.0625 C 1.921875 -5.875 2.0625 -5.703125 2.296875 -5.703125 C 2.53125 -5.703125 2.828125 -5.9375 2.828125 -6.234375 Z M 2.078125 -2.484375 C 2.1875 -2.765625 2.1875 -2.796875 2.296875 -3.0625 C 2.375 -3.265625 2.421875 -3.40625 2.421875 -3.59375 C 2.421875 -4.03125 2.109375 -4.40625 1.609375 -4.40625 C 0.671875 -4.40625 0.296875 -2.953125 0.296875 -2.875 C 0.296875 -2.765625 0.390625 -2.765625 0.40625 -2.765625 C 0.515625 -2.765625 0.515625 -2.796875 0.5625 -2.953125 C 0.84375 -3.890625 1.234375 -4.1875 1.578125 -4.1875 C 1.65625 -4.1875 1.828125 -4.1875 1.828125 -3.875 C 1.828125 -3.65625 1.75 -3.453125 1.71875 -3.34375 C 1.640625 -3.09375 1.1875 -1.9375 1.03125 -1.5 C 0.921875 -1.25 0.796875 -0.921875 0.796875 -0.703125 C 0.796875 -0.234375 1.140625 0.109375 1.609375 0.109375 C 2.546875 0.109375 2.921875 -1.328125 2.921875 -1.421875 C 2.921875 -1.53125 2.828125 -1.53125 2.796875 -1.53125 C 2.703125 -1.53125 2.703125 -1.5 2.65625 -1.34375 C 2.46875 -0.71875 2.140625 -0.109375 1.640625 -0.109375 C 1.46875 -0.109375 1.390625 -0.203125 1.390625 -0.4375 C 1.390625 -0.6875 1.453125 -0.828125 1.6875 -1.4375 Z M 2.078125 -2.484375 "/>
</symbol>
<symbol overflow="visible" id="embed--4752437279082058665-glyph0-3">
<path style="stroke:none;" d="M 0.40625 -2.53125 C 0.796875 -3.671875 1.890625 -3.6875 2 -3.6875 C 3.5 -3.6875 3.609375 -1.9375 3.609375 -1.15625 C 3.609375 -0.546875 3.5625 -0.375 3.484375 -0.171875 C 3.265625 0.546875 2.96875 1.703125 2.96875 1.96875 C 2.96875 2.078125 3.015625 2.140625 3.09375 2.140625 C 3.234375 2.140625 3.3125 1.921875 3.421875 1.546875 C 3.65625 0.703125 3.75 0.140625 3.78125 -0.171875 C 3.8125 -0.296875 3.828125 -0.421875 3.875 -0.5625 C 4.1875 -1.546875 4.828125 -3.03125 5.21875 -3.8125 C 5.296875 -3.9375 5.40625 -4.15625 5.40625 -4.203125 C 5.40625 -4.296875 5.3125 -4.296875 5.296875 -4.296875 C 5.265625 -4.296875 5.203125 -4.296875 5.171875 -4.234375 C 4.65625 -3.28125 4.25 -2.28125 3.859375 -1.28125 C 3.84375 -1.578125 3.84375 -2.34375 3.453125 -3.3125 C 3.203125 -3.921875 2.8125 -4.40625 2.125 -4.40625 C 0.875 -4.40625 0.171875 -2.890625 0.171875 -2.578125 C 0.171875 -2.484375 0.265625 -2.484375 0.375 -2.484375 Z M 0.40625 -2.53125 "/>
</symbol>
<symbol overflow="visible" id="embed--4752437279082058665-glyph1-0">
<path style="stroke:none;" d=""/>
</symbol>
<symbol overflow="visible" id="embed--4752437279082058665-glyph1-1">
<path style="stroke:none;" d="M 2.9375 -2.65625 C 2.796875 -2.890625 2.5625 -3.078125 2.21875 -3.078125 C 1.328125 -3.078125 0.421875 -2.09375 0.421875 -1.09375 C 0.421875 -0.40625 0.875 0.0625 1.484375 0.0625 C 1.859375 0.0625 2.1875 -0.140625 2.46875 -0.421875 C 2.59375 0 3 0.0625 3.1875 0.0625 C 3.4375 0.0625 3.609375 -0.078125 3.734375 -0.296875 C 3.890625 -0.578125 3.984375 -0.96875 3.984375 -1 C 3.984375 -1.09375 3.890625 -1.09375 3.875 -1.09375 C 3.765625 -1.09375 3.765625 -1.0625 3.71875 -0.875 C 3.625 -0.53125 3.5 -0.125 3.203125 -0.125 C 3.03125 -0.125 2.96875 -0.28125 2.96875 -0.46875 C 2.96875 -0.578125 3.03125 -0.84375 3.078125 -1.015625 C 3.125 -1.203125 3.203125 -1.484375 3.234375 -1.640625 L 3.375 -2.171875 C 3.421875 -2.359375 3.5 -2.6875 3.5 -2.71875 C 3.5 -2.875 3.375 -2.9375 3.265625 -2.9375 C 3.140625 -2.9375 2.984375 -2.859375 2.9375 -2.65625 Z M 2.5 -0.875 C 2.453125 -0.671875 2.296875 -0.53125 2.140625 -0.40625 C 2.078125 -0.34375 1.796875 -0.125 1.5 -0.125 C 1.234375 -0.125 0.984375 -0.3125 0.984375 -0.796875 C 0.984375 -1.171875 1.1875 -1.9375 1.359375 -2.21875 C 1.671875 -2.78125 2.03125 -2.875 2.21875 -2.875 C 2.703125 -2.875 2.84375 -2.34375 2.84375 -2.265625 C 2.84375 -2.25 2.828125 -2.1875 2.828125 -2.171875 Z M 2.5 -0.875 "/>
</symbol>
<symbol overflow="visible" id="embed--4752437279082058665-glyph1-2">
<path style="stroke:none;" d="M 1.84375 -4.625 C 1.84375 -4.640625 1.875 -4.734375 1.875 -4.734375 C 1.875 -4.78125 1.84375 -4.84375 1.75 -4.84375 C 1.609375 -4.84375 1.03125 -4.78125 0.859375 -4.765625 C 0.8125 -4.765625 0.703125 -4.75 0.703125 -4.609375 C 0.703125 -4.515625 0.8125 -4.515625 0.890625 -4.515625 C 1.21875 -4.515625 1.21875 -4.453125 1.21875 -4.40625 C 1.21875 -4.359375 1.15625 -4.078125 1.109375 -3.921875 L 0.953125 -3.28125 C 0.890625 -3.03125 0.515625 -1.515625 0.5 -1.421875 C 0.453125 -1.25 0.453125 -1.15625 0.453125 -1.078125 C 0.453125 -0.375 0.90625 0.0625 1.484375 0.0625 C 2.359375 0.0625 3.28125 -0.875 3.28125 -1.90625 C 3.28125 -2.71875 2.71875 -3.078125 2.234375 -3.078125 C 1.875 -3.078125 1.5625 -2.875 1.359375 -2.6875 Z M 1.484375 -0.125 C 1.15625 -0.125 0.953125 -0.421875 0.953125 -0.84375 C 0.953125 -1.09375 1.015625 -1.328125 1.21875 -2.125 C 1.25 -2.25 1.25 -2.265625 1.390625 -2.421875 C 1.65625 -2.71875 1.96875 -2.875 2.21875 -2.875 C 2.484375 -2.875 2.71875 -2.671875 2.71875 -2.203125 C 2.71875 -1.921875 2.578125 -1.203125 2.359375 -0.796875 C 2.1875 -0.453125 1.84375 -0.125 1.484375 -0.125 Z M 1.484375 -0.125 "/>
</symbol>
<symbol overflow="visible" id="embed--4752437279082058665-glyph2-0">
<path style="stroke:none;" d=""/>
</symbol>
<symbol overflow="visible" id="embed--4752437279082058665-glyph2-1">
<path style="stroke:none;" d="M 6.84375 -3.265625 C 7 -3.265625 7.1875 -3.265625 7.1875 -3.453125 C 7.1875 -3.65625 7 -3.65625 6.859375 -3.65625 L 0.890625 -3.65625 C 0.75 -3.65625 0.5625 -3.65625 0.5625 -3.453125 C 0.5625 -3.265625 0.75 -3.265625 0.890625 -3.265625 Z M 6.859375 -1.328125 C 7 -1.328125 7.1875 -1.328125 7.1875 -1.53125 C 7.1875 -1.71875 7 -1.71875 6.84375 -1.71875 L 0.890625 -1.71875 C 0.75 -1.71875 0.5625 -1.71875 0.5625 -1.53125 C 0.5625 -1.328125 0.75 -1.328125 0.890625 -1.328125 Z M 6.859375 -1.328125 "/>
</symbol>
<symbol overflow="visible" id="embed--4752437279082058665-glyph3-0">
<path style="stroke:none;" d=""/>
</symbol>
<symbol overflow="visible" id="embed--4752437279082058665-glyph3-1">
<path style="stroke:none;" d="M 6.5625 -2.296875 C 6.734375 -2.296875 6.921875 -2.296875 6.921875 -2.5 C 6.921875 -2.6875 6.734375 -2.6875 6.5625 -2.6875 L 1.171875 -2.6875 C 1 -2.6875 0.828125 -2.6875 0.828125 -2.5 C 0.828125 -2.296875 1 -2.296875 1.171875 -2.296875 Z M 6.5625 -2.296875 "/>
</symbol>
</g>
<clipPath id="embed--4752437279082058665-clip1">
  <path d="M 8 3 L 16 3 L 16 8.746094 L 8 8.746094 Z M 8 3 "/>
</clipPath>
<clipPath id="embed--4752437279082058665-clip2">
  <path d="M 37 0 L 47 0 L 47 8.746094 L 37 8.746094 Z M 37 0 "/>
</clipPath>
<clipPath id="embed--4752437279082058665-clip3">
  <path d="M 46 5 L 51 5 L 51 8.746094 L 46 8.746094 Z M 46 5 "/>
</clipPath>
<clipPath id="embed--4752437279082058665-clip4">
  <path d="M 51 2 L 57 2 L 57 8.746094 L 51 8.746094 Z M 51 2 "/>
</clipPath>
<clipPath id="embed--4752437279082058665-clip5">
  <path d="M 56 3 L 60 3 L 60 8.746094 L 56 8.746094 Z M 56 3 "/>
</clipPath>
</g>
<g id="d5">
<g>
<symbol overflow="visible" id="embed--5125065756545023048-glyph0-0">
<path style="stroke:none;" d=""/>
</symbol>
<symbol overflow="visible" id="embed--5125065756545023048-glyph0-1">
<path style="stroke:none;" d="M 7.609375 -6.046875 C 7.703125 -6.40625 7.71875 -6.5 8.4375 -6.5 C 8.703125 -6.5 8.78125 -6.5 8.78125 -6.703125 C 8.78125 -6.8125 8.671875 -6.8125 8.640625 -6.8125 C 8.359375 -6.8125 7.640625 -6.78125 7.359375 -6.78125 C 7.078125 -6.78125 6.375 -6.8125 6.078125 -6.8125 C 6 -6.8125 5.890625 -6.8125 5.890625 -6.609375 C 5.890625 -6.5 5.984375 -6.5 6.171875 -6.5 C 6.1875 -6.5 6.375 -6.5 6.546875 -6.484375 C 6.734375 -6.453125 6.8125 -6.453125 6.8125 -6.3125 C 6.8125 -6.28125 6.8125 -6.265625 6.78125 -6.125 L 6.1875 -3.703125 L 3.140625 -3.703125 L 3.734375 -6.046875 C 3.8125 -6.40625 3.84375 -6.5 4.5625 -6.5 C 4.828125 -6.5 4.90625 -6.5 4.90625 -6.703125 C 4.90625 -6.8125 4.796875 -6.8125 4.765625 -6.8125 C 4.484375 -6.8125 3.765625 -6.78125 3.484375 -6.78125 C 3.203125 -6.78125 2.5 -6.8125 2.203125 -6.8125 C 2.125 -6.8125 2.015625 -6.8125 2.015625 -6.609375 C 2.015625 -6.5 2.109375 -6.5 2.296875 -6.5 C 2.3125 -6.5 2.5 -6.5 2.671875 -6.484375 C 2.84375 -6.453125 2.9375 -6.453125 2.9375 -6.3125 C 2.9375 -6.28125 2.9375 -6.25 2.90625 -6.125 L 1.5625 -0.78125 C 1.46875 -0.390625 1.453125 -0.3125 0.65625 -0.3125 C 0.484375 -0.3125 0.390625 -0.3125 0.390625 -0.109375 C 0.390625 0 0.515625 0 0.53125 0 C 0.8125 0 1.515625 -0.03125 1.796875 -0.03125 C 2 -0.03125 2.21875 -0.015625 2.4375 -0.015625 C 2.65625 -0.015625 2.875 0 3.078125 0 C 3.15625 0 3.28125 0 3.28125 -0.203125 C 3.28125 -0.3125 3.1875 -0.3125 3 -0.3125 C 2.625 -0.3125 2.359375 -0.3125 2.359375 -0.484375 C 2.359375 -0.546875 2.375 -0.59375 2.375 -0.65625 L 3.0625 -3.390625 L 6.09375 -3.390625 C 5.6875 -1.734375 5.453125 -0.78125 5.40625 -0.640625 C 5.3125 -0.3125 5.125 -0.3125 4.5 -0.3125 C 4.359375 -0.3125 4.265625 -0.3125 4.265625 -0.109375 C 4.265625 0 4.390625 0 4.40625 0 C 4.6875 0 5.390625 -0.03125 5.671875 -0.03125 C 5.875 -0.03125 6.09375 -0.015625 6.3125 -0.015625 C 6.53125 -0.015625 6.75 0 6.953125 0 C 7.03125 0 7.15625 0 7.15625 -0.203125 C 7.15625 -0.3125 7.0625 -0.3125 6.875 -0.3125 C 6.515625 -0.3125 6.234375 -0.3125 6.234375 -0.484375 C 6.234375 -0.546875 6.25 -0.59375 6.265625 -0.65625 Z M 7.609375 -6.046875 "/>
</symbol>
<symbol overflow="visible" id="embed--5125065756545023048-glyph0-2">
<path style="stroke:none;" d="M 2.828125 -6.234375 C 2.828125 -6.4375 2.6875 -6.59375 2.46875 -6.59375 C 2.1875 -6.59375 1.921875 -6.328125 1.921875 -6.0625 C 1.921875 -5.875 2.0625 -5.703125 2.296875 -5.703125 C 2.53125 -5.703125 2.828125 -5.9375 2.828125 -6.234375 Z M 2.078125 -2.484375 C 2.1875 -2.765625 2.1875 -2.796875 2.296875 -3.0625 C 2.375 -3.265625 2.421875 -3.40625 2.421875 -3.59375 C 2.421875 -4.03125 2.109375 -4.40625 1.609375 -4.40625 C 0.671875 -4.40625 0.296875 -2.953125 0.296875 -2.875 C 0.296875 -2.765625 0.390625 -2.765625 0.40625 -2.765625 C 0.515625 -2.765625 0.515625 -2.796875 0.5625 -2.953125 C 0.84375 -3.890625 1.234375 -4.1875 1.578125 -4.1875 C 1.65625 -4.1875 1.828125 -4.1875 1.828125 -3.875 C 1.828125 -3.65625 1.75 -3.453125 1.71875 -3.34375 C 1.640625 -3.09375 1.1875 -1.9375 1.03125 -1.5 C 0.921875 -1.25 0.796875 -0.921875 0.796875 -0.703125 C 0.796875 -0.234375 1.140625 0.109375 1.609375 0.109375 C 2.546875 0.109375 2.921875 -1.328125 2.921875 -1.421875 C 2.921875 -1.53125 2.828125 -1.53125 2.796875 -1.53125 C 2.703125 -1.53125 2.703125 -1.5 2.65625 -1.34375 C 2.46875 -0.71875 2.140625 -0.109375 1.640625 -0.109375 C 1.46875 -0.109375 1.390625 -0.203125 1.390625 -0.4375 C 1.390625 -0.6875 1.453125 -0.828125 1.6875 -1.4375 Z M 2.078125 -2.484375 "/>
</symbol>
<symbol overflow="visible" id="embed--5125065756545023048-glyph0-3">
<path style="stroke:none;" d="M 0.40625 -2.53125 C 0.796875 -3.671875 1.890625 -3.6875 2 -3.6875 C 3.5 -3.6875 3.609375 -1.9375 3.609375 -1.15625 C 3.609375 -0.546875 3.5625 -0.375 3.484375 -0.171875 C 3.265625 0.546875 2.96875 1.703125 2.96875 1.96875 C 2.96875 2.078125 3.015625 2.140625 3.09375 2.140625 C 3.234375 2.140625 3.3125 1.921875 3.421875 1.546875 C 3.65625 0.703125 3.75 0.140625 3.78125 -0.171875 C 3.8125 -0.296875 3.828125 -0.421875 3.875 -0.5625 C 4.1875 -1.546875 4.828125 -3.03125 5.21875 -3.8125 C 5.296875 -3.9375 5.40625 -4.15625 5.40625 -4.203125 C 5.40625 -4.296875 5.3125 -4.296875 5.296875 -4.296875 C 5.265625 -4.296875 5.203125 -4.296875 5.171875 -4.234375 C 4.65625 -3.28125 4.25 -2.28125 3.859375 -1.28125 C 3.84375 -1.578125 3.84375 -2.34375 3.453125 -3.3125 C 3.203125 -3.921875 2.8125 -4.40625 2.125 -4.40625 C 0.875 -4.40625 0.171875 -2.890625 0.171875 -2.578125 C 0.171875 -2.484375 0.265625 -2.484375 0.375 -2.484375 Z M 0.40625 -2.53125 "/>
</symbol>
<symbol overflow="visible" id="embed--5125065756545023048-glyph1-0">
<path style="stroke:none;" d=""/>
</symbol>
<symbol overflow="visible" id="embed--5125065756545023048-glyph1-1">
<path style="stroke:none;" d="M 1.84375 -4.625 C 1.84375 -4.640625 1.875 -4.734375 1.875 -4.734375 C 1.875 -4.78125 1.84375 -4.84375 1.75 -4.84375 C 1.609375 -4.84375 1.03125 -4.78125 0.859375 -4.765625 C 0.8125 -4.765625 0.703125 -4.75 0.703125 -4.609375 C 0.703125 -4.515625 0.8125 -4.515625 0.890625 -4.515625 C 1.21875 -4.515625 1.21875 -4.453125 1.21875 -4.40625 C 1.21875 -4.359375 1.15625 -4.078125 1.109375 -3.921875 L 0.953125 -3.28125 C 0.890625 -3.03125 0.515625 -1.515625 0.5 -1.421875 C 0.453125 -1.25 0.453125 -1.15625 0.453125 -1.078125 C 0.453125 -0.375 0.90625 0.0625 1.484375 0.0625 C 2.359375 0.0625 3.28125 -0.875 3.28125 -1.90625 C 3.28125 -2.71875 2.71875 -3.078125 2.234375 -3.078125 C 1.875 -3.078125 1.5625 -2.875 1.359375 -2.6875 Z M 1.484375 -0.125 C 1.15625 -0.125 0.953125 -0.421875 0.953125 -0.84375 C 0.953125 -1.09375 1.015625 -1.328125 1.21875 -2.125 C 1.25 -2.25 1.25 -2.265625 1.390625 -2.421875 C 1.65625 -2.71875 1.96875 -2.875 2.21875 -2.875 C 2.484375 -2.875 2.71875 -2.671875 2.71875 -2.203125 C 2.71875 -1.921875 2.578125 -1.203125 2.359375 -0.796875 C 2.1875 -0.453125 1.84375 -0.125 1.484375 -0.125 Z M 1.484375 -0.125 "/>
</symbol>
<symbol overflow="visible" id="embed--5125065756545023048-glyph1-2">
<path style="stroke:none;" d="M 2.9375 -2.65625 C 2.796875 -2.890625 2.5625 -3.078125 2.21875 -3.078125 C 1.328125 -3.078125 0.421875 -2.09375 0.421875 -1.09375 C 0.421875 -0.40625 0.875 0.0625 1.484375 0.0625 C 1.859375 0.0625 2.1875 -0.140625 2.46875 -0.421875 C 2.59375 0 3 0.0625 3.1875 0.0625 C 3.4375 0.0625 3.609375 -0.078125 3.734375 -0.296875 C 3.890625 -0.578125 3.984375 -0.96875 3.984375 -1 C 3.984375 -1.09375 3.890625 -1.09375 3.875 -1.09375 C 3.765625 -1.09375 3.765625 -1.0625 3.71875 -0.875 C 3.625 -0.53125 3.5 -0.125 3.203125 -0.125 C 3.03125 -0.125 2.96875 -0.28125 2.96875 -0.46875 C 2.96875 -0.578125 3.03125 -0.84375 3.078125 -1.015625 C 3.125 -1.203125 3.203125 -1.484375 3.234375 -1.640625 L 3.375 -2.171875 C 3.421875 -2.359375 3.5 -2.6875 3.5 -2.71875 C 3.5 -2.875 3.375 -2.9375 3.265625 -2.9375 C 3.140625 -2.9375 2.984375 -2.859375 2.9375 -2.65625 Z M 2.5 -0.875 C 2.453125 -0.671875 2.296875 -0.53125 2.140625 -0.40625 C 2.078125 -0.34375 1.796875 -0.125 1.5 -0.125 C 1.234375 -0.125 0.984375 -0.3125 0.984375 -0.796875 C 0.984375 -1.171875 1.1875 -1.9375 1.359375 -2.21875 C 1.671875 -2.78125 2.03125 -2.875 2.21875 -2.875 C 2.703125 -2.875 2.84375 -2.34375 2.84375 -2.265625 C 2.84375 -2.25 2.828125 -2.1875 2.828125 -2.171875 Z M 2.5 -0.875 "/>
</symbol>
<symbol overflow="visible" id="embed--5125065756545023048-glyph2-0">
<path style="stroke:none;" d=""/>
</symbol>
<symbol overflow="visible" id="embed--5125065756545023048-glyph2-1">
<path style="stroke:none;" d="M 6.84375 -3.265625 C 7 -3.265625 7.1875 -3.265625 7.1875 -3.453125 C 7.1875 -3.65625 7 -3.65625 6.859375 -3.65625 L 0.890625 -3.65625 C 0.75 -3.65625 0.5625 -3.65625 0.5625 -3.453125 C 0.5625 -3.265625 0.75 -3.265625 0.890625 -3.265625 Z M 6.859375 -1.328125 C 7 -1.328125 7.1875 -1.328125 7.1875 -1.53125 C 7.1875 -1.71875 7 -1.71875 6.84375 -1.71875 L 0.890625 -1.71875 C 0.75 -1.71875 0.5625 -1.71875 0.5625 -1.53125 C 0.5625 -1.328125 0.75 -1.328125 0.890625 -1.328125 Z M 6.859375 -1.328125 "/>
</symbol>
<symbol overflow="visible" id="embed--5125065756545023048-glyph3-0">
<path style="stroke:none;" d=""/>
</symbol>
<symbol overflow="visible" id="embed--5125065756545023048-glyph3-1">
<path style="stroke:none;" d="M 6.5625 -2.296875 C 6.734375 -2.296875 6.921875 -2.296875 6.921875 -2.5 C 6.921875 -2.6875 6.734375 -2.6875 6.5625 -2.6875 L 1.171875 -2.6875 C 1 -2.6875 0.828125 -2.6875 0.828125 -2.5 C 0.828125 -2.296875 1 -2.296875 1.171875 -2.296875 Z M 6.5625 -2.296875 "/>
</symbol>
</g>
<clipPath id="embed--5125065756545023048-clip1">
  <path d="M 8 3 L 16 3 L 16 8.746094 L 8 8.746094 Z M 8 3 "/>
</clipPath>
<clipPath id="embed--5125065756545023048-clip2">
  <path d="M 37 0 L 47 0 L 47 8.746094 L 37 8.746094 Z M 37 0 "/>
</clipPath>
<clipPath id="embed--5125065756545023048-clip3">
  <path d="M 46 3 L 50 3 L 50 8.746094 L 46 8.746094 Z M 46 3 "/>
</clipPath>
<clipPath id="embed--5125065756545023048-clip4">
  <path d="M 50 2 L 56 2 L 56 8.746094 L 50 8.746094 Z M 50 2 "/>
</clipPath>
<clipPath id="embed--5125065756545023048-clip5">
  <path d="M 55 5 L 60 5 L 60 8.746094 L 55 8.746094 Z M 55 5 "/>
</clipPath>
</g>
</defs>
<rect x="-21.5" y="-22.625" width="28" height="14" fill="white" stroke-width="1" stroke="black" />
<rect x="8.5" y="-22.625" width="28" height="14" fill="white" stroke-width="1" stroke="black" />
<rect x="38.5" y="-22.625" width="28" height="14" fill="white" stroke-width="1" stroke="black" />
<circle cx="-14.5" cy="-15.625" r="1" fill="black" />
<circle cx="0.5" cy="-15.625" r="1" fill="black" />
<circle cx="15.5" cy="-15.625" r="1" fill="black" />
<circle cx="30.5" cy="-15.625" r="1" fill="black" />
<circle cx="45.5" cy="-15.625" r="1" fill="black" />
<circle cx="60.5" cy="-15.625" r="1" fill="black" />
<path d="M-14.5,-15.625 l0,-7.0" stroke-width="1" stroke="black" fill="black" fill-opacity="0.5" />
<path d="M45.5,-15.625 l0,-7.0" stroke-width="1" stroke="black" fill="black" fill-opacity="0.5" />
<path d="M-14.5,-22.625 A7,7,0,0,1,-7.5,-29.625" stroke="black" stroke-width="1" fill-opacity="0.0" />
<path d="M38.5,-29.625 A7,7,0,0,1,45.5,-22.625" stroke="black" stroke-width="1" fill-opacity="0.0" />
<path d="M-7.5,-29.625 l46.0,0" stroke-width="1" stroke="black" fill="black" fill-opacity="0.5" />
<path d="M16.666666666666668,-29.625 l-2.3333333333333335,-2.3333333333333335" stroke-width="1" stroke="black" fill="black" fill-opacity="0.5" />
<path d="M16.666666666666668,-29.625 l-2.3333333333333335,2.3333333333333335" stroke-width="1" stroke="black" fill="black" fill-opacity="0.5" />
<text x="-14.5" y="-12.125" font-size="7" text-anchor="middle" fill="black" dy="0.5em"></text>
<text x="0.5" y="-12.125" font-size="7" text-anchor="middle" fill="black" dy="0.5em"></text>
<text x="15.5" y="-12.125" font-size="7" text-anchor="middle" fill="black" dy="0.5em"></text>
<text x="30.5" y="-12.125" font-size="7" text-anchor="middle" fill="black" dy="0.5em"></text>
<text x="45.5" y="-12.125" font-size="7" text-anchor="middle" fill="black" dy="0.5em"></text>
<text x="60.5" y="-12.125" font-size="7" text-anchor="middle" fill="black" dy="0.5em"></text>
<rect x="-21.5" y="8.625" width="28" height="14" fill="white" stroke-width="1" stroke="black" />
<rect x="8.5" y="8.625" width="28" height="14" fill="white" stroke-width="1" stroke="black" />
<rect x="38.5" y="8.625" width="28" height="14" fill="white" stroke-width="1" stroke="black" />
<circle cx="-14.5" cy="15.625" r="1" fill="black" />
<circle cx="0.5" cy="15.625" r="1" fill="black" />
<circle cx="15.5" cy="15.625" r="1" fill="black" />
<circle cx="30.5" cy="15.625" r="1" fill="black" />
<circle cx="45.5" cy="15.625" r="1" fill="black" />
<circle cx="60.5" cy="15.625" r="1" fill="black" />
<path d="M-14.5,15.625 l0,-7.0" stroke-width="1" stroke="black" fill="black" fill-opacity="0.5" />
<path d="M45.5,15.625 l0,-7.0" stroke-width="1" stroke="black" fill="black" fill-opacity="0.5" />
<path d="M-14.5,8.625 A7,7,0,0,1,-7.5,1.625" stroke="black" stroke-width="1" fill-opacity="0.0" />
<path d="M38.5,1.625 A7,7,0,0,1,45.5,8.625" stroke="black" stroke-width="1" fill-opacity="0.0" />
<path d="M-7.5,1.625 l46.0,0" stroke-width="1" stroke="black" fill="black" fill-opacity="0.5" />
<path d="M14.333333333333334,1.625 l2.3333333333333335,-2.3333333333333335" stroke-width="1" stroke="black" fill="black" fill-opacity="0.5" />
<path d="M14.333333333333334,1.625 l2.3333333333333335,2.3333333333333335" stroke-width="1" stroke="black" fill="black" fill-opacity="0.5" />
<text x="-14.5" y="19.125" font-size="7" text-anchor="middle" fill="black" dy="0.5em"></text>
<text x="0.5" y="19.125" font-size="7" text-anchor="middle" fill="black" dy="0.5em"></text>
<text x="15.5" y="19.125" font-size="7" text-anchor="middle" fill="black" dy="0.5em"></text>
<text x="30.5" y="19.125" font-size="7" text-anchor="middle" fill="black" dy="0.5em"></text>
<text x="45.5" y="19.125" font-size="7" text-anchor="middle" fill="black" dy="0.5em"></text>
<text x="60.5" y="19.125" font-size="7" text-anchor="middle" fill="black" dy="0.5em"></text>
<g opacity="1.0" transform="translate(-14.5, -5.125) scale(0.7000000000000001) translate(-4.989, -3.1135)">
<g id="embed-9168773908308245097-surface1">
<g clip-path="url(#embed-9168773908308245097-clip1)" clip-rule="nonzero">
<g style="fill:rgb(0%,0%,0%);fill-opacity:1;">
  <use xlink:href="#embed-9168773908308245097-glyph0-1" x="0" y="4.29"/>
</g>
</g>
<g clip-path="url(#embed-9168773908308245097-clip2)" clip-rule="nonzero">
<g style="fill:rgb(0%,0%,0%);fill-opacity:1;">
  <use xlink:href="#embed-9168773908308245097-glyph1-1" x="5.158" y="5.784"/>
</g>
</g>
</g>
</g>
<g opacity="1.0" transform="translate(45.5, -5.125) scale(0.7000000000000001) translate(-4.58, -3.1135)">
<g id="embed-2648515718874807358-surface1">
<g clip-path="url(#embed-2648515718874807358-clip1)" clip-rule="nonzero">
<g style="fill:rgb(0%,0%,0%);fill-opacity:1;">
  <use xlink:href="#embed-2648515718874807358-glyph0-1" x="0" y="4.29"/>
</g>
</g>
<g style="fill:rgb(0%,0%,0%);fill-opacity:1;">
  <use xlink:href="#embed-2648515718874807358-glyph1-1" x="5.158" y="5.784"/>
</g>
</g>
</g>
<g opacity="1.0" transform="translate(-14.5, 26.125) scale(0.7000000000000001) translate(-4.989, -3.1135)">
<g id="embed-9168773908308245097-surface1">
<g clip-path="url(#embed-9168773908308245097-clip1)" clip-rule="nonzero">
<g style="fill:rgb(0%,0%,0%);fill-opacity:1;">
  <use xlink:href="#embed-9168773908308245097-glyph0-1" x="0" y="4.29"/>
</g>
</g>
<g clip-path="url(#embed-9168773908308245097-clip2)" clip-rule="nonzero">
<g style="fill:rgb(0%,0%,0%);fill-opacity:1;">
  <use xlink:href="#embed-9168773908308245097-glyph1-1" x="5.158" y="5.784"/>
</g>
</g>
</g>
</g>
<g opacity="1.0" transform="translate(45.5, 26.125) scale(0.7000000000000001) translate(-4.58, -3.1135)">
<g id="embed-2648515718874807358-surface1">
<g clip-path="url(#embed-2648515718874807358-clip1)" clip-rule="nonzero">
<g style="fill:rgb(0%,0%,0%);fill-opacity:1;">
  <use xlink:href="#embed-2648515718874807358-glyph0-1" x="0" y="4.29"/>
</g>
</g>
<g style="fill:rgb(0%,0%,0%);fill-opacity:1;">
  <use xlink:href="#embed-2648515718874807358-glyph1-1" x="5.158" y="5.784"/>
</g>
</g>
</g>
<g opacity="1.0" transform="translate(-44.5, -15.625) scale(0.7000000000000001) translate(-30.103, -4.3725)">
<g id="embed--4752437279082058665-surface1">
<g style="fill:rgb(0%,0%,0%);fill-opacity:1;">
  <use xlink:href="#embed--4752437279082058665-glyph0-1" x="0" y="6.808"/>
</g>
<g clip-path="url(#embed--4752437279082058665-clip1)" clip-rule="nonzero">
<g style="fill:rgb(0%,0%,0%);fill-opacity:1;">
  <use xlink:href="#embed--4752437279082058665-glyph1-1" x="8.281" y="8.302"/>
  <use xlink:href="#embed--4752437279082058665-glyph1-2" x="12.602664" y="8.302"/>
</g>
</g>
<g style="fill:rgb(0%,0%,0%);fill-opacity:1;">
  <use xlink:href="#embed--4752437279082058665-glyph2-1" x="19.372" y="6.808"/>
</g>
<g style="fill:rgb(0%,0%,0%);fill-opacity:1;">
  <use xlink:href="#embed--4752437279082058665-glyph3-1" x="29.888" y="6.808"/>
</g>
<g clip-path="url(#embed--4752437279082058665-clip2)" clip-rule="nonzero">
<g style="fill:rgb(0%,0%,0%);fill-opacity:1;">
  <use xlink:href="#embed--4752437279082058665-glyph0-2" x="37.637" y="6.808"/>
  <use xlink:href="#embed--4752437279082058665-glyph0-3" x="41.069116" y="6.808"/>
</g>
</g>
<g clip-path="url(#embed--4752437279082058665-clip3)" clip-rule="nonzero">
<g style="fill:rgb(0%,0%,0%);fill-opacity:1;">
  <use xlink:href="#embed--4752437279082058665-glyph1-1" x="46.227" y="8.302"/>
</g>
</g>
<g clip-path="url(#embed--4752437279082058665-clip4)" clip-rule="nonzero">
<g style="fill:rgb(0%,0%,0%);fill-opacity:1;">
  <use xlink:href="#embed--4752437279082058665-glyph0-3" x="51.047" y="6.808"/>
</g>
</g>
<g clip-path="url(#embed--4752437279082058665-clip5)" clip-rule="nonzero">
<g style="fill:rgb(0%,0%,0%);fill-opacity:1;">
  <use xlink:href="#embed--4752437279082058665-glyph1-2" x="56.204" y="8.302"/>
</g>
</g>
</g>
</g>
<g opacity="1.0" transform="translate(-44.5, 15.625) scale(0.7000000000000001) translate(-30.103, -4.3725)">
<g id="embed--5125065756545023048-surface1">
<g style="fill:rgb(0%,0%,0%);fill-opacity:1;">
  <use xlink:href="#embed--5125065756545023048-glyph0-1" x="0" y="6.808"/>
</g>
<g clip-path="url(#embed--5125065756545023048-clip1)" clip-rule="nonzero">
<g style="fill:rgb(0%,0%,0%);fill-opacity:1;">
  <use xlink:href="#embed--5125065756545023048-glyph1-1" x="8.281" y="8.302"/>
  <use xlink:href="#embed--5125065756545023048-glyph1-2" x="11.784637" y="8.302"/>
</g>
</g>
<g style="fill:rgb(0%,0%,0%);fill-opacity:1;">
  <use xlink:href="#embed--5125065756545023048-glyph2-1" x="19.372" y="6.808"/>
</g>
<g style="fill:rgb(0%,0%,0%);fill-opacity:1;">
  <use xlink:href="#embed--5125065756545023048-glyph3-1" x="29.888" y="6.808"/>
</g>
<g clip-path="url(#embed--5125065756545023048-clip2)" clip-rule="nonzero">
<g style="fill:rgb(0%,0%,0%);fill-opacity:1;">
  <use xlink:href="#embed--5125065756545023048-glyph0-2" x="37.637" y="6.808"/>
  <use xlink:href="#embed--5125065756545023048-glyph0-3" x="41.069116" y="6.808"/>
</g>
</g>
<g clip-path="url(#embed--5125065756545023048-clip3)" clip-rule="nonzero">
<g style="fill:rgb(0%,0%,0%);fill-opacity:1;">
  <use xlink:href="#embed--5125065756545023048-glyph1-1" x="46.227" y="8.302"/>
</g>
</g>
<g clip-path="url(#embed--5125065756545023048-clip4)" clip-rule="nonzero">
<g style="fill:rgb(0%,0%,0%);fill-opacity:1;">
  <use xlink:href="#embed--5125065756545023048-glyph0-3" x="50.229" y="6.808"/>
</g>
</g>
<g clip-path="url(#embed--5125065756545023048-clip5)" clip-rule="nonzero">
<g style="fill:rgb(0%,0%,0%);fill-opacity:1;">
  <use xlink:href="#embed--5125065756545023048-glyph1-2" x="55.387" y="8.302"/>
</g>
</g>
</g>
</g>
</svg>