<svg height="251.8201" width="237.24414" xmlns="http://www.w3.org/2000/svg" xmlns:xlink="http://www.w3.org/1999/xlink"><marker id="a" orient="auto" overflow="visible" refX="0" refY="0"><path d="m-2.5-1c0 2.76-2.24 5-5 5s-5-2.24-5-5 2.24-5 5-5 5 2.24 5 5z" fill-rule="evenodd" stroke="#000" stroke-width="1pt" transform="matrix(.4 0 0 .4 2.850197 .4)"/></marker><marker id="b" orient="auto" overflow="visible" refX="0" refY="0"><path d="m8.7185878 4.0337352-10.9258773-4.01772194 10.9258779-4.01772106c-1.7454984 2.3720609-1.7354408 5.6174519-.0000006 8.035443z" fill-rule="evenodd" stroke-linejoin="round" stroke-width=".625" transform="matrix(-1.1 0 0 -1.1 5.5 0)"/></marker><g transform="translate(-24 -794.43416)"><g fill="none"><path d="m225 927.36218a100 100 0 1 1 -200 0 100 100 0 1 1 200 0z" stroke="#000" stroke-width="2"/><path d="m225 927.36218a100 25 0 1 1 -200 0 100 25 0 1 1 200 0z" stroke="#000" stroke-dasharray="4.889764 4.889764" stroke-dashoffset="3.748819" stroke-linecap="round" stroke-width="1.629921"/><path d="m125 927.36218-35 35" marker-end="url(#b)" stroke="#000"/><path d="m125 927.36218v-125" marker-end="url(#b)" stroke="#000"/><path d="m125 927.36218h125" marker-end="url(#b)" stroke="#000"/><path d="m125 927.36218 35 15" stroke="#000" stroke-dasharray="2 2"/><path d="m160 942.36218v-90" stroke="#000" stroke-dasharray="2 2"/><path d="m125 927.36218 35-75" marker-end="url(#a)" stroke="#000"/><path d="m125 887.36218s11 0 16 5" stroke="#000"/><path d="m115.06066 937.00863s14.97487 5.91421 25.43934-2.64645" stroke="#000"/></g><text font-family="Bitstream Vera Sans" font-size="12" x="92.5" y="977.36218"><tspan x="92.5" y="977.36218">x</tspan><tspan x="92.5" y="992.36218"/></text><text font-family="Bitstream Vera Sans" font-size="12" x="254.5" y="941.36218"><tspan x="254.5" y="941.36218">y</tspan></text><text font-family="Bitstream Vera Sans" font-size="12" x="132" y="810.26599"><tspan x="132" y="810.26599">z</tspan></text><text font-family="Bitstream Vera Serif" font-size="14" x="128.5" y="947.06927"><tspan x="128.5" y="947.06927">φ</tspan></text><text font-family="Bitstream Vera Serif" font-size="14" x="131" y="880.86218"><tspan x="131" y="880.86218">θ</tspan></text><path d="m150.00701 751.86218a1.5 0 0 0 0 -.24642 0h.23941z" fill="none" stroke="#000" stroke-width=".6"/><path d="m105.00081 756.77664a4.5 4.5 0 1 1 -.00081.08859" fill="#fff" stroke="#000" stroke-width="1.5" transform="translate(15.5 70.5)"/><path d="m105.00081 756.77664a4.5 4.5 0 1 1 -.00081.08859" fill="#fff" stroke="#000" stroke-width="1.5" transform="translate(15.5 270.5)"/><text x="35.708893" y="820.60791"><tspan x="35.708893" y="820.60791"/></text><g transform="translate(-23.07464 1.59099)"><g fill="none" stroke="#000" transform="translate(77.07464 249.80109)"><path d="m90 782.36218 3 6-3 6"/><path d="m78 782.36218v12"/></g><text font-family="Bitstream Vera Sans" font-size="12" x="157.68481" y="1042.4783"><tspan x="157.68481" y="1042.4783">1</tspan></text></g><g fill="none" stroke="#000" transform="translate(27 27.000003)"><path d="m90 782.36218 3 6-3 6"/><path d="m78 782.36218v12"/></g><text font-family="Bitstream Vera Sans" font-size="12" x="107.61018" y="819.854"><tspan x="107.61018" y="819.854">0</tspan></text><g fill="none" stroke="#000" transform="translate(88.211572 71.610179)"><path d="m90 782.36218 3 6-3 6"/><path d="m78 782.36218v12"/></g><text font-family="Bitstream Vera Sans" font-size="12" x="168.82175" y="862.51965"><tspan x="168.82175" y="862.51965">ψ</tspan></text></g></svg>