<?xml version="1.0" encoding="UTF-8"?>
<svg xmlns="http://www.w3.org/2000/svg" xmlns:xlink="http://www.w3.org/1999/xlink"
     width="440" height="500" viewBox="-55.0 -62.5 110 125">
<defs>
<g id="d0">
<g>
<symbol overflow="visible" id="embed-8268020528536133265-glyph0-0">
<path style="stroke:none;" d=""/>
</symbol>
<symbol overflow="visible" id="embed-8268020528536133265-glyph0-1">
<path style="stroke:none;" d="M 0.40625 -2.53125 C 0.796875 -3.671875 1.890625 -3.6875 2 -3.6875 C 3.5 -3.6875 3.609375 -1.9375 3.609375 -1.15625 C 3.609375 -0.546875 3.5625 -0.375 3.484375 -0.171875 C 3.265625 0.546875 2.96875 1.703125 2.96875 1.96875 C 2.96875 2.078125 3.015625 2.140625 3.09375 2.140625 C 3.234375 2.140625 3.3125 1.921875 3.421875 1.546875 C 3.65625 0.703125 3.75 0.140625 3.78125 -0.171875 C 3.8125 -0.296875 3.828125 -0.421875 3.875 -0.5625 C 4.1875 -1.546875 4.828125 -3.03125 5.21875 -3.8125 C 5.296875 -3.9375 5.40625 -4.15625 5.40625 -4.203125 C 5.40625 -4.296875 5.3125 -4.296875 5.296875 -4.296875 C 5.265625 -4.296875 5.203125 -4.296875 5.171875 -4.234375 C 4.65625 -3.28125 4.25 -2.28125 3.859375 -1.28125 C 3.84375 -1.578125 3.84375 -2.34375 3.453125 -3.3125 C 3.203125 -3.921875 2.8125 -4.40625 2.125 -4.40625 C 0.875 -4.40625 0.171875 -2.890625 0.171875 -2.578125 C 0.171875 -2.484375 0.265625 -2.484375 0.375 -2.484375 Z M 0.40625 -2.53125 "/>
</symbol>
<symbol overflow="visible" id="embed-8268020528536133265-glyph1-0">
<path style="stroke:none;" d=""/>
</symbol>
<symbol overflow="visible" id="embed-8268020528536133265-glyph1-1">
<path style="stroke:none;" d="M 2.46875 -5.21875 C 1.15625 -4.296875 0.796875 -2.8125 0.796875 -1.75 C 0.796875 -0.765625 1.09375 0.765625 2.46875 1.734375 C 2.53125 1.734375 2.609375 1.734375 2.609375 1.65625 C 2.609375 1.609375 2.59375 1.59375 2.546875 1.546875 C 1.609375 0.703125 1.28125 -0.46875 1.28125 -1.734375 C 1.28125 -3.625 2 -4.546875 2.5625 -5.0625 C 2.59375 -5.09375 2.609375 -5.109375 2.609375 -5.140625 C 2.609375 -5.21875 2.53125 -5.21875 2.46875 -5.21875 Z M 2.46875 -5.21875 "/>
</symbol>
<symbol overflow="visible" id="embed-8268020528536133265-glyph1-2">
<path style="stroke:none;" d="M 2.328125 -4.4375 C 2.328125 -4.625 2.328125 -4.625 2.125 -4.625 C 1.671875 -4.1875 1.046875 -4.1875 0.765625 -4.1875 L 0.765625 -3.9375 C 0.921875 -3.9375 1.390625 -3.9375 1.765625 -4.125 L 1.765625 -0.578125 C 1.765625 -0.34375 1.765625 -0.25 1.078125 -0.25 L 0.8125 -0.25 L 0.8125 0 C 0.9375 0 1.796875 -0.03125 2.046875 -0.03125 C 2.265625 -0.03125 3.140625 0 3.296875 0 L 3.296875 -0.25 L 3.03125 -0.25 C 2.328125 -0.25 2.328125 -0.34375 2.328125 -0.578125 Z M 2.328125 -4.4375 "/>
</symbol>
<symbol overflow="visible" id="embed-8268020528536133265-glyph1-3">
<path style="stroke:none;" d="M 0.625 -5.21875 C 0.578125 -5.21875 0.5 -5.21875 0.5 -5.140625 C 0.5 -5.109375 0.515625 -5.09375 0.5625 -5.03125 C 1.15625 -4.484375 1.828125 -3.546875 1.828125 -1.75 C 1.828125 -0.296875 1.375 0.8125 0.625 1.484375 C 0.5 1.609375 0.5 1.609375 0.5 1.65625 C 0.5 1.6875 0.515625 1.734375 0.578125 1.734375 C 0.671875 1.734375 1.328125 1.28125 1.796875 0.40625 C 2.09375 -0.171875 2.296875 -0.921875 2.296875 -1.734375 C 2.296875 -2.71875 2 -4.25 0.625 -5.21875 Z M 0.625 -5.21875 "/>
</symbol>
<symbol overflow="visible" id="embed-8268020528536133265-glyph2-0">
<path style="stroke:none;" d=""/>
</symbol>
<symbol overflow="visible" id="embed-8268020528536133265-glyph2-1">
<path style="stroke:none;" d="M 1.46875 -0.109375 C 1.46875 0.265625 1.40625 0.71875 0.921875 1.15625 C 0.90625 1.1875 0.875 1.21875 0.875 1.25 C 0.875 1.296875 0.9375 1.34375 0.96875 1.34375 C 1.078125 1.34375 1.671875 0.78125 1.671875 -0.046875 C 1.671875 -0.46875 1.5 -0.796875 1.171875 -0.796875 C 0.953125 -0.796875 0.78125 -0.625 0.78125 -0.40625 C 0.78125 -0.1875 0.9375 0 1.1875 0 C 1.359375 0 1.46875 -0.109375 1.46875 -0.109375 Z M 1.46875 -0.109375 "/>
</symbol>
<symbol overflow="visible" id="embed-8268020528536133265-glyph2-2">
<path style="stroke:none;" d="M 1.96875 -4.625 C 1.96875 -4.640625 2 -4.734375 2 -4.734375 C 2 -4.78125 1.96875 -4.84375 1.875 -4.84375 C 1.734375 -4.84375 1.15625 -4.78125 0.984375 -4.765625 C 0.9375 -4.765625 0.84375 -4.75 0.84375 -4.609375 C 0.84375 -4.515625 0.9375 -4.515625 1.015625 -4.515625 C 1.359375 -4.515625 1.359375 -4.453125 1.359375 -4.40625 C 1.359375 -4.359375 1.34375 -4.3125 1.328125 -4.25 L 0.453125 -0.8125 C 0.4375 -0.734375 0.4375 -0.65625 0.4375 -0.59375 C 0.4375 -0.140625 0.828125 0.0625 1.15625 0.0625 C 1.328125 0.0625 1.546875 0.015625 1.71875 -0.296875 C 1.875 -0.5625 1.96875 -0.96875 1.96875 -1 C 1.96875 -1.09375 1.875 -1.09375 1.859375 -1.09375 C 1.75 -1.09375 1.734375 -1.046875 1.71875 -0.921875 C 1.625 -0.578125 1.484375 -0.125 1.1875 -0.125 C 1 -0.125 0.953125 -0.296875 0.953125 -0.46875 C 0.953125 -0.546875 0.96875 -0.671875 1 -0.75 Z M 1.96875 -4.625 "/>
</symbol>
</g>
<clipPath id="embed-8268020528536133265-clip1">
  <path d="M 5 0 L 12 0 L 12 7.832031 L 5 7.832031 Z M 5 0 "/>
</clipPath>
<clipPath id="embed-8268020528536133265-clip2">
  <path d="M 13 1 L 17 1 L 17 7.832031 L 13 7.832031 Z M 13 1 "/>
</clipPath>
<clipPath id="embed-8268020528536133265-clip3">
  <path d="M 17 0 L 20 0 L 20 7.832031 L 17 7.832031 Z M 17 0 "/>
</clipPath>
</g>
<g id="d1">
<g>
<symbol overflow="visible" id="embed--4408545467535525796-glyph0-0">
<path style="stroke:none;" d=""/>
</symbol>
<symbol overflow="visible" id="embed--4408545467535525796-glyph0-1">
<path style="stroke:none;" d="M 0.40625 -2.53125 C 0.796875 -3.671875 1.890625 -3.6875 2 -3.6875 C 3.5 -3.6875 3.609375 -1.9375 3.609375 -1.15625 C 3.609375 -0.546875 3.5625 -0.375 3.484375 -0.171875 C 3.265625 0.546875 2.96875 1.703125 2.96875 1.96875 C 2.96875 2.078125 3.015625 2.140625 3.09375 2.140625 C 3.234375 2.140625 3.3125 1.921875 3.421875 1.546875 C 3.65625 0.703125 3.75 0.140625 3.78125 -0.171875 C 3.8125 -0.296875 3.828125 -0.421875 3.875 -0.5625 C 4.1875 -1.546875 4.828125 -3.03125 5.21875 -3.8125 C 5.296875 -3.9375 5.40625 -4.15625 5.40625 -4.203125 C 5.40625 -4.296875 5.3125 -4.296875 5.296875 -4.296875 C 5.265625 -4.296875 5.203125 -4.296875 5.171875 -4.234375 C 4.65625 -3.28125 4.25 -2.28125 3.859375 -1.28125 C 3.84375 -1.578125 3.84375 -2.34375 3.453125 -3.3125 C 3.203125 -3.921875 2.8125 -4.40625 2.125 -4.40625 C 0.875 -4.40625 0.171875 -2.890625 0.171875 -2.578125 C 0.171875 -2.484375 0.265625 -2.484375 0.375 -2.484375 Z M 0.40625 -2.53125 "/>
</symbol>
<symbol overflow="visible" id="embed--4408545467535525796-glyph1-0">
<path style="stroke:none;" d=""/>
</symbol>
<symbol overflow="visible" id="embed--4408545467535525796-glyph1-1">
<path style="stroke:none;" d="M 2.46875 -5.21875 C 1.15625 -4.296875 0.796875 -2.8125 0.796875 -1.75 C 0.796875 -0.765625 1.09375 0.765625 2.46875 1.734375 C 2.53125 1.734375 2.609375 1.734375 2.609375 1.65625 C 2.609375 1.609375 2.59375 1.59375 2.546875 1.546875 C 1.609375 0.703125 1.28125 -0.46875 1.28125 -1.734375 C 1.28125 -3.625 2 -4.546875 2.5625 -5.0625 C 2.59375 -5.09375 2.609375 -5.109375 2.609375 -5.140625 C 2.609375 -5.21875 2.53125 -5.21875 2.46875 -5.21875 Z M 2.46875 -5.21875 "/>
</symbol>
<symbol overflow="visible" id="embed--4408545467535525796-glyph1-2">
<path style="stroke:none;" d="M 2.328125 -4.4375 C 2.328125 -4.625 2.328125 -4.625 2.125 -4.625 C 1.671875 -4.1875 1.046875 -4.1875 0.765625 -4.1875 L 0.765625 -3.9375 C 0.921875 -3.9375 1.390625 -3.9375 1.765625 -4.125 L 1.765625 -0.578125 C 1.765625 -0.34375 1.765625 -0.25 1.078125 -0.25 L 0.8125 -0.25 L 0.8125 0 C 0.9375 0 1.796875 -0.03125 2.046875 -0.03125 C 2.265625 -0.03125 3.140625 0 3.296875 0 L 3.296875 -0.25 L 3.03125 -0.25 C 2.328125 -0.25 2.328125 -0.34375 2.328125 -0.578125 Z M 2.328125 -4.4375 "/>
</symbol>
<symbol overflow="visible" id="embed--4408545467535525796-glyph1-3">
<path style="stroke:none;" d="M 0.625 -5.21875 C 0.578125 -5.21875 0.5 -5.21875 0.5 -5.140625 C 0.5 -5.109375 0.515625 -5.09375 0.5625 -5.03125 C 1.15625 -4.484375 1.828125 -3.546875 1.828125 -1.75 C 1.828125 -0.296875 1.375 0.8125 0.625 1.484375 C 0.5 1.609375 0.5 1.609375 0.5 1.65625 C 0.5 1.6875 0.515625 1.734375 0.578125 1.734375 C 0.671875 1.734375 1.328125 1.28125 1.796875 0.40625 C 2.09375 -0.171875 2.296875 -0.921875 2.296875 -1.734375 C 2.296875 -2.71875 2 -4.25 0.625 -5.21875 Z M 0.625 -5.21875 "/>
</symbol>
<symbol overflow="visible" id="embed--4408545467535525796-glyph2-0">
<path style="stroke:none;" d=""/>
</symbol>
<symbol overflow="visible" id="embed--4408545467535525796-glyph2-1">
<path style="stroke:none;" d="M 1.46875 -0.109375 C 1.46875 0.265625 1.40625 0.71875 0.921875 1.15625 C 0.90625 1.1875 0.875 1.21875 0.875 1.25 C 0.875 1.296875 0.9375 1.34375 0.96875 1.34375 C 1.078125 1.34375 1.671875 0.78125 1.671875 -0.046875 C 1.671875 -0.46875 1.5 -0.796875 1.171875 -0.796875 C 0.953125 -0.796875 0.78125 -0.625 0.78125 -0.40625 C 0.78125 -0.1875 0.9375 0 1.1875 0 C 1.359375 0 1.46875 -0.109375 1.46875 -0.109375 Z M 1.46875 -0.109375 "/>
</symbol>
<symbol overflow="visible" id="embed--4408545467535525796-glyph2-2">
<path style="stroke:none;" d="M 1.640625 -1.40625 C 1.640625 -1.453125 1.8125 -2.078125 1.8125 -2.109375 C 1.828125 -2.171875 2.03125 -2.515625 2.265625 -2.6875 C 2.328125 -2.734375 2.515625 -2.875 2.828125 -2.875 C 2.890625 -2.875 3.0625 -2.875 3.203125 -2.78125 C 2.984375 -2.71875 2.90625 -2.515625 2.90625 -2.390625 C 2.90625 -2.25 3.015625 -2.140625 3.171875 -2.140625 C 3.34375 -2.140625 3.5625 -2.265625 3.5625 -2.5625 C 3.5625 -2.921875 3.1875 -3.078125 2.828125 -3.078125 C 2.46875 -3.078125 2.15625 -2.921875 1.84375 -2.578125 C 1.71875 -3 1.296875 -3.078125 1.125 -3.078125 C 0.875 -3.078125 0.703125 -2.90625 0.578125 -2.71875 C 0.421875 -2.453125 0.328125 -2.046875 0.328125 -2 C 0.328125 -1.921875 0.421875 -1.921875 0.453125 -1.921875 C 0.546875 -1.921875 0.546875 -1.9375 0.59375 -2.125 C 0.703125 -2.546875 0.84375 -2.875 1.109375 -2.875 C 1.296875 -2.875 1.34375 -2.71875 1.34375 -2.53125 C 1.34375 -2.40625 1.28125 -2.140625 1.21875 -1.953125 C 1.171875 -1.765625 1.109375 -1.484375 1.078125 -1.328125 L 0.84375 -0.4375 C 0.828125 -0.34375 0.78125 -0.171875 0.78125 -0.15625 C 0.78125 0 0.90625 0.0625 1.015625 0.0625 C 1.125 0.0625 1.265625 0 1.3125 -0.125 C 1.328125 -0.171875 1.40625 -0.484375 1.453125 -0.65625 Z M 1.640625 -1.40625 "/>
</symbol>
</g>
<clipPath id="embed--4408545467535525796-clip1">
  <path d="M 5 0 L 12 0 L 12 7.832031 L 5 7.832031 Z M 5 0 "/>
</clipPath>
<clipPath id="embed--4408545467535525796-clip2">
  <path d="M 13 3 L 19 3 L 19 7.832031 L 13 7.832031 Z M 13 3 "/>
</clipPath>
<clipPath id="embed--4408545467535525796-clip3">
  <path d="M 19 0 L 21 0 L 21 7.832031 L 19 7.832031 Z M 19 0 "/>
</clipPath>
</g>
<g id="d2">
<g>
<symbol overflow="visible" id="embed-7713004291897018356-glyph0-0">
<path style="stroke:none;" d=""/>
</symbol>
<symbol overflow="visible" id="embed-7713004291897018356-glyph0-1">
<path style="stroke:none;" d="M 0.40625 -2.53125 C 0.796875 -3.671875 1.890625 -3.6875 2 -3.6875 C 3.5 -3.6875 3.609375 -1.9375 3.609375 -1.15625 C 3.609375 -0.546875 3.5625 -0.375 3.484375 -0.171875 C 3.265625 0.546875 2.96875 1.703125 2.96875 1.96875 C 2.96875 2.078125 3.015625 2.140625 3.09375 2.140625 C 3.234375 2.140625 3.3125 1.921875 3.421875 1.546875 C 3.65625 0.703125 3.75 0.140625 3.78125 -0.171875 C 3.8125 -0.296875 3.828125 -0.421875 3.875 -0.5625 C 4.1875 -1.546875 4.828125 -3.03125 5.21875 -3.8125 C 5.296875 -3.9375 5.40625 -4.15625 5.40625 -4.203125 C 5.40625 -4.296875 5.3125 -4.296875 5.296875 -4.296875 C 5.265625 -4.296875 5.203125 -4.296875 5.171875 -4.234375 C 4.65625 -3.28125 4.25 -2.28125 3.859375 -1.28125 C 3.84375 -1.578125 3.84375 -2.34375 3.453125 -3.3125 C 3.203125 -3.921875 2.8125 -4.40625 2.125 -4.40625 C 0.875 -4.40625 0.171875 -2.890625 0.171875 -2.578125 C 0.171875 -2.484375 0.265625 -2.484375 0.375 -2.484375 Z M 0.40625 -2.53125 "/>
</symbol>
<symbol overflow="visible" id="embed-7713004291897018356-glyph1-0">
<path style="stroke:none;" d=""/>
</symbol>
<symbol overflow="visible" id="embed-7713004291897018356-glyph1-1">
<path style="stroke:none;" d="M 2.46875 -5.21875 C 1.15625 -4.296875 0.796875 -2.8125 0.796875 -1.75 C 0.796875 -0.765625 1.09375 0.765625 2.46875 1.734375 C 2.53125 1.734375 2.609375 1.734375 2.609375 1.65625 C 2.609375 1.609375 2.59375 1.59375 2.546875 1.546875 C 1.609375 0.703125 1.28125 -0.46875 1.28125 -1.734375 C 1.28125 -3.625 2 -4.546875 2.5625 -5.0625 C 2.59375 -5.09375 2.609375 -5.109375 2.609375 -5.140625 C 2.609375 -5.21875 2.53125 -5.21875 2.46875 -5.21875 Z M 2.46875 -5.21875 "/>
</symbol>
<symbol overflow="visible" id="embed-7713004291897018356-glyph1-2">
<path style="stroke:none;" d="M 3.515625 -1.265625 L 3.28125 -1.265625 C 3.265625 -1.109375 3.1875 -0.703125 3.09375 -0.640625 C 3.046875 -0.59375 2.515625 -0.59375 2.40625 -0.59375 L 1.125 -0.59375 C 1.859375 -1.234375 2.109375 -1.4375 2.515625 -1.765625 C 3.03125 -2.171875 3.515625 -2.609375 3.515625 -3.265625 C 3.515625 -4.109375 2.78125 -4.625 1.890625 -4.625 C 1.03125 -4.625 0.4375 -4.015625 0.4375 -3.375 C 0.4375 -3.03125 0.734375 -2.984375 0.8125 -2.984375 C 0.96875 -2.984375 1.171875 -3.109375 1.171875 -3.359375 C 1.171875 -3.484375 1.125 -3.734375 0.765625 -3.734375 C 0.984375 -4.21875 1.453125 -4.375 1.78125 -4.375 C 2.484375 -4.375 2.84375 -3.828125 2.84375 -3.265625 C 2.84375 -2.65625 2.40625 -2.1875 2.1875 -1.9375 L 0.515625 -0.265625 C 0.4375 -0.203125 0.4375 -0.1875 0.4375 0 L 3.3125 0 Z M 3.515625 -1.265625 "/>
</symbol>
<symbol overflow="visible" id="embed-7713004291897018356-glyph1-3">
<path style="stroke:none;" d="M 0.625 -5.21875 C 0.578125 -5.21875 0.5 -5.21875 0.5 -5.140625 C 0.5 -5.109375 0.515625 -5.09375 0.5625 -5.03125 C 1.15625 -4.484375 1.828125 -3.546875 1.828125 -1.75 C 1.828125 -0.296875 1.375 0.8125 0.625 1.484375 C 0.5 1.609375 0.5 1.609375 0.5 1.65625 C 0.5 1.6875 0.515625 1.734375 0.578125 1.734375 C 0.671875 1.734375 1.328125 1.28125 1.796875 0.40625 C 2.09375 -0.171875 2.296875 -0.921875 2.296875 -1.734375 C 2.296875 -2.71875 2 -4.25 0.625 -5.21875 Z M 0.625 -5.21875 "/>
</symbol>
<symbol overflow="visible" id="embed-7713004291897018356-glyph2-0">
<path style="stroke:none;" d=""/>
</symbol>
<symbol overflow="visible" id="embed-7713004291897018356-glyph2-1">
<path style="stroke:none;" d="M 1.46875 -0.109375 C 1.46875 0.265625 1.40625 0.71875 0.921875 1.15625 C 0.90625 1.1875 0.875 1.21875 0.875 1.25 C 0.875 1.296875 0.9375 1.34375 0.96875 1.34375 C 1.078125 1.34375 1.671875 0.78125 1.671875 -0.046875 C 1.671875 -0.46875 1.5 -0.796875 1.171875 -0.796875 C 0.953125 -0.796875 0.78125 -0.625 0.78125 -0.40625 C 0.78125 -0.1875 0.9375 0 1.1875 0 C 1.359375 0 1.46875 -0.109375 1.46875 -0.109375 Z M 1.46875 -0.109375 "/>
</symbol>
<symbol overflow="visible" id="embed-7713004291897018356-glyph2-2">
<path style="stroke:none;" d="M 1.96875 -4.625 C 1.96875 -4.640625 2 -4.734375 2 -4.734375 C 2 -4.78125 1.96875 -4.84375 1.875 -4.84375 C 1.734375 -4.84375 1.15625 -4.78125 0.984375 -4.765625 C 0.9375 -4.765625 0.84375 -4.75 0.84375 -4.609375 C 0.84375 -4.515625 0.9375 -4.515625 1.015625 -4.515625 C 1.359375 -4.515625 1.359375 -4.453125 1.359375 -4.40625 C 1.359375 -4.359375 1.34375 -4.3125 1.328125 -4.25 L 0.453125 -0.8125 C 0.4375 -0.734375 0.4375 -0.65625 0.4375 -0.59375 C 0.4375 -0.140625 0.828125 0.0625 1.15625 0.0625 C 1.328125 0.0625 1.546875 0.015625 1.71875 -0.296875 C 1.875 -0.5625 1.96875 -0.96875 1.96875 -1 C 1.96875 -1.09375 1.875 -1.09375 1.859375 -1.09375 C 1.75 -1.09375 1.734375 -1.046875 1.71875 -0.921875 C 1.625 -0.578125 1.484375 -0.125 1.1875 -0.125 C 1 -0.125 0.953125 -0.296875 0.953125 -0.46875 C 0.953125 -0.546875 0.96875 -0.671875 1 -0.75 Z M 1.96875 -4.625 "/>
</symbol>
</g>
<clipPath id="embed-7713004291897018356-clip1">
  <path d="M 5 0 L 12 0 L 12 7.832031 L 5 7.832031 Z M 5 0 "/>
</clipPath>
<clipPath id="embed-7713004291897018356-clip2">
  <path d="M 13 1 L 17 1 L 17 7.832031 L 13 7.832031 Z M 13 1 "/>
</clipPath>
<clipPath id="embed-7713004291897018356-clip3">
  <path d="M 17 0 L 20 0 L 20 7.832031 L 17 7.832031 Z M 17 0 "/>
</clipPath>
</g>
<g id="d3">
<g>
<symbol overflow="visible" id="embed--1725841690815336525-glyph0-0">
<path style="stroke:none;" d=""/>
</symbol>
<symbol overflow="visible" id="embed--1725841690815336525-glyph0-1">
<path style="stroke:none;" d="M 0.40625 -2.53125 C 0.796875 -3.671875 1.890625 -3.6875 2 -3.6875 C 3.5 -3.6875 3.609375 -1.9375 3.609375 -1.15625 C 3.609375 -0.546875 3.5625 -0.375 3.484375 -0.171875 C 3.265625 0.546875 2.96875 1.703125 2.96875 1.96875 C 2.96875 2.078125 3.015625 2.140625 3.09375 2.140625 C 3.234375 2.140625 3.3125 1.921875 3.421875 1.546875 C 3.65625 0.703125 3.75 0.140625 3.78125 -0.171875 C 3.8125 -0.296875 3.828125 -0.421875 3.875 -0.5625 C 4.1875 -1.546875 4.828125 -3.03125 5.21875 -3.8125 C 5.296875 -3.9375 5.40625 -4.15625 5.40625 -4.203125 C 5.40625 -4.296875 5.3125 -4.296875 5.296875 -4.296875 C 5.265625 -4.296875 5.203125 -4.296875 5.171875 -4.234375 C 4.65625 -3.28125 4.25 -2.28125 3.859375 -1.28125 C 3.84375 -1.578125 3.84375 -2.34375 3.453125 -3.3125 C 3.203125 -3.921875 2.8125 -4.40625 2.125 -4.40625 C 0.875 -4.40625 0.171875 -2.890625 0.171875 -2.578125 C 0.171875 -2.484375 0.265625 -2.484375 0.375 -2.484375 Z M 0.40625 -2.53125 "/>
</symbol>
<symbol overflow="visible" id="embed--1725841690815336525-glyph1-0">
<path style="stroke:none;" d=""/>
</symbol>
<symbol overflow="visible" id="embed--1725841690815336525-glyph1-1">
<path style="stroke:none;" d="M 2.46875 -5.21875 C 1.15625 -4.296875 0.796875 -2.8125 0.796875 -1.75 C 0.796875 -0.765625 1.09375 0.765625 2.46875 1.734375 C 2.53125 1.734375 2.609375 1.734375 2.609375 1.65625 C 2.609375 1.609375 2.59375 1.59375 2.546875 1.546875 C 1.609375 0.703125 1.28125 -0.46875 1.28125 -1.734375 C 1.28125 -3.625 2 -4.546875 2.5625 -5.0625 C 2.59375 -5.09375 2.609375 -5.109375 2.609375 -5.140625 C 2.609375 -5.21875 2.53125 -5.21875 2.46875 -5.21875 Z M 2.46875 -5.21875 "/>
</symbol>
<symbol overflow="visible" id="embed--1725841690815336525-glyph1-2">
<path style="stroke:none;" d="M 3.515625 -1.265625 L 3.28125 -1.265625 C 3.265625 -1.109375 3.1875 -0.703125 3.09375 -0.640625 C 3.046875 -0.59375 2.515625 -0.59375 2.40625 -0.59375 L 1.125 -0.59375 C 1.859375 -1.234375 2.109375 -1.4375 2.515625 -1.765625 C 3.03125 -2.171875 3.515625 -2.609375 3.515625 -3.265625 C 3.515625 -4.109375 2.78125 -4.625 1.890625 -4.625 C 1.03125 -4.625 0.4375 -4.015625 0.4375 -3.375 C 0.4375 -3.03125 0.734375 -2.984375 0.8125 -2.984375 C 0.96875 -2.984375 1.171875 -3.109375 1.171875 -3.359375 C 1.171875 -3.484375 1.125 -3.734375 0.765625 -3.734375 C 0.984375 -4.21875 1.453125 -4.375 1.78125 -4.375 C 2.484375 -4.375 2.84375 -3.828125 2.84375 -3.265625 C 2.84375 -2.65625 2.40625 -2.1875 2.1875 -1.9375 L 0.515625 -0.265625 C 0.4375 -0.203125 0.4375 -0.1875 0.4375 0 L 3.3125 0 Z M 3.515625 -1.265625 "/>
</symbol>
<symbol overflow="visible" id="embed--1725841690815336525-glyph1-3">
<path style="stroke:none;" d="M 0.625 -5.21875 C 0.578125 -5.21875 0.5 -5.21875 0.5 -5.140625 C 0.5 -5.109375 0.515625 -5.09375 0.5625 -5.03125 C 1.15625 -4.484375 1.828125 -3.546875 1.828125 -1.75 C 1.828125 -0.296875 1.375 0.8125 0.625 1.484375 C 0.5 1.609375 0.5 1.609375 0.5 1.65625 C 0.5 1.6875 0.515625 1.734375 0.578125 1.734375 C 0.671875 1.734375 1.328125 1.28125 1.796875 0.40625 C 2.09375 -0.171875 2.296875 -0.921875 2.296875 -1.734375 C 2.296875 -2.71875 2 -4.25 0.625 -5.21875 Z M 0.625 -5.21875 "/>
</symbol>
<symbol overflow="visible" id="embed--1725841690815336525-glyph2-0">
<path style="stroke:none;" d=""/>
</symbol>
<symbol overflow="visible" id="embed--1725841690815336525-glyph2-1">
<path style="stroke:none;" d="M 1.46875 -0.109375 C 1.46875 0.265625 1.40625 0.71875 0.921875 1.15625 C 0.90625 1.1875 0.875 1.21875 0.875 1.25 C 0.875 1.296875 0.9375 1.34375 0.96875 1.34375 C 1.078125 1.34375 1.671875 0.78125 1.671875 -0.046875 C 1.671875 -0.46875 1.5 -0.796875 1.171875 -0.796875 C 0.953125 -0.796875 0.78125 -0.625 0.78125 -0.40625 C 0.78125 -0.1875 0.9375 0 1.1875 0 C 1.359375 0 1.46875 -0.109375 1.46875 -0.109375 Z M 1.46875 -0.109375 "/>
</symbol>
<symbol overflow="visible" id="embed--1725841690815336525-glyph2-2">
<path style="stroke:none;" d="M 1.640625 -1.40625 C 1.640625 -1.453125 1.8125 -2.078125 1.8125 -2.109375 C 1.828125 -2.171875 2.03125 -2.515625 2.265625 -2.6875 C 2.328125 -2.734375 2.515625 -2.875 2.828125 -2.875 C 2.890625 -2.875 3.0625 -2.875 3.203125 -2.78125 C 2.984375 -2.71875 2.90625 -2.515625 2.90625 -2.390625 C 2.90625 -2.25 3.015625 -2.140625 3.171875 -2.140625 C 3.34375 -2.140625 3.5625 -2.265625 3.5625 -2.5625 C 3.5625 -2.921875 3.1875 -3.078125 2.828125 -3.078125 C 2.46875 -3.078125 2.15625 -2.921875 1.84375 -2.578125 C 1.71875 -3 1.296875 -3.078125 1.125 -3.078125 C 0.875 -3.078125 0.703125 -2.90625 0.578125 -2.71875 C 0.421875 -2.453125 0.328125 -2.046875 0.328125 -2 C 0.328125 -1.921875 0.421875 -1.921875 0.453125 -1.921875 C 0.546875 -1.921875 0.546875 -1.9375 0.59375 -2.125 C 0.703125 -2.546875 0.84375 -2.875 1.109375 -2.875 C 1.296875 -2.875 1.34375 -2.71875 1.34375 -2.53125 C 1.34375 -2.40625 1.28125 -2.140625 1.21875 -1.953125 C 1.171875 -1.765625 1.109375 -1.484375 1.078125 -1.328125 L 0.84375 -0.4375 C 0.828125 -0.34375 0.78125 -0.171875 0.78125 -0.15625 C 0.78125 0 0.90625 0.0625 1.015625 0.0625 C 1.125 0.0625 1.265625 0 1.3125 -0.125 C 1.328125 -0.171875 1.40625 -0.484375 1.453125 -0.65625 Z M 1.640625 -1.40625 "/>
</symbol>
</g>
<clipPath id="embed--1725841690815336525-clip1">
  <path d="M 5 0 L 12 0 L 12 7.832031 L 5 7.832031 Z M 5 0 "/>
</clipPath>
<clipPath id="embed--1725841690815336525-clip2">
  <path d="M 13 3 L 19 3 L 19 7.832031 L 13 7.832031 Z M 13 3 "/>
</clipPath>
<clipPath id="embed--1725841690815336525-clip3">
  <path d="M 19 0 L 21 0 L 21 7.832031 L 19 7.832031 Z M 19 0 "/>
</clipPath>
</g>
<g id="d4">
<g>
<symbol overflow="visible" id="embed-4843338544912969634-glyph0-0">
<path style="stroke:none;" d=""/>
</symbol>
<symbol overflow="visible" id="embed-4843338544912969634-glyph0-1">
<path style="stroke:none;" d="M 0.40625 -2.53125 C 0.796875 -3.671875 1.890625 -3.6875 2 -3.6875 C 3.5 -3.6875 3.609375 -1.9375 3.609375 -1.15625 C 3.609375 -0.546875 3.5625 -0.375 3.484375 -0.171875 C 3.265625 0.546875 2.96875 1.703125 2.96875 1.96875 C 2.96875 2.078125 3.015625 2.140625 3.09375 2.140625 C 3.234375 2.140625 3.3125 1.921875 3.421875 1.546875 C 3.65625 0.703125 3.75 0.140625 3.78125 -0.171875 C 3.8125 -0.296875 3.828125 -0.421875 3.875 -0.5625 C 4.1875 -1.546875 4.828125 -3.03125 5.21875 -3.8125 C 5.296875 -3.9375 5.40625 -4.15625 5.40625 -4.203125 C 5.40625 -4.296875 5.3125 -4.296875 5.296875 -4.296875 C 5.265625 -4.296875 5.203125 -4.296875 5.171875 -4.234375 C 4.65625 -3.28125 4.25 -2.28125 3.859375 -1.28125 C 3.84375 -1.578125 3.84375 -2.34375 3.453125 -3.3125 C 3.203125 -3.921875 2.8125 -4.40625 2.125 -4.40625 C 0.875 -4.40625 0.171875 -2.890625 0.171875 -2.578125 C 0.171875 -2.484375 0.265625 -2.484375 0.375 -2.484375 Z M 0.40625 -2.53125 "/>
</symbol>
<symbol overflow="visible" id="embed-4843338544912969634-glyph1-0">
<path style="stroke:none;" d=""/>
</symbol>
<symbol overflow="visible" id="embed-4843338544912969634-glyph1-1">
<path style="stroke:none;" d="M 2.46875 -5.21875 C 1.15625 -4.296875 0.796875 -2.8125 0.796875 -1.75 C 0.796875 -0.765625 1.09375 0.765625 2.46875 1.734375 C 2.53125 1.734375 2.609375 1.734375 2.609375 1.65625 C 2.609375 1.609375 2.59375 1.59375 2.546875 1.546875 C 1.609375 0.703125 1.28125 -0.46875 1.28125 -1.734375 C 1.28125 -3.625 2 -4.546875 2.5625 -5.0625 C 2.59375 -5.09375 2.609375 -5.109375 2.609375 -5.140625 C 2.609375 -5.21875 2.53125 -5.21875 2.46875 -5.21875 Z M 2.46875 -5.21875 "/>
</symbol>
<symbol overflow="visible" id="embed-4843338544912969634-glyph1-2">
<path style="stroke:none;" d="M 1.90625 -2.328125 C 2.453125 -2.328125 2.84375 -1.953125 2.84375 -1.203125 C 2.84375 -0.34375 2.328125 -0.078125 1.9375 -0.078125 C 1.65625 -0.078125 1.03125 -0.15625 0.75 -0.578125 C 1.078125 -0.578125 1.15625 -0.8125 1.15625 -0.96875 C 1.15625 -1.1875 0.984375 -1.34375 0.765625 -1.34375 C 0.578125 -1.34375 0.375 -1.21875 0.375 -0.9375 C 0.375 -0.28125 1.09375 0.140625 1.9375 0.140625 C 2.90625 0.140625 3.578125 -0.515625 3.578125 -1.203125 C 3.578125 -1.75 3.140625 -2.296875 2.375 -2.453125 C 3.09375 -2.71875 3.359375 -3.234375 3.359375 -3.671875 C 3.359375 -4.21875 2.734375 -4.625 1.953125 -4.625 C 1.1875 -4.625 0.59375 -4.25 0.59375 -3.6875 C 0.59375 -3.453125 0.75 -3.328125 0.953125 -3.328125 C 1.171875 -3.328125 1.3125 -3.484375 1.3125 -3.671875 C 1.3125 -3.875 1.171875 -4.03125 0.953125 -4.046875 C 1.203125 -4.34375 1.671875 -4.421875 1.9375 -4.421875 C 2.25 -4.421875 2.6875 -4.265625 2.6875 -3.671875 C 2.6875 -3.375 2.59375 -3.046875 2.40625 -2.84375 C 2.1875 -2.578125 1.984375 -2.5625 1.640625 -2.53125 C 1.46875 -2.515625 1.453125 -2.515625 1.421875 -2.515625 C 1.40625 -2.515625 1.34375 -2.5 1.34375 -2.421875 C 1.34375 -2.328125 1.40625 -2.328125 1.53125 -2.328125 Z M 1.90625 -2.328125 "/>
</symbol>
<symbol overflow="visible" id="embed-4843338544912969634-glyph1-3">
<path style="stroke:none;" d="M 0.625 -5.21875 C 0.578125 -5.21875 0.5 -5.21875 0.5 -5.140625 C 0.5 -5.109375 0.515625 -5.09375 0.5625 -5.03125 C 1.15625 -4.484375 1.828125 -3.546875 1.828125 -1.75 C 1.828125 -0.296875 1.375 0.8125 0.625 1.484375 C 0.5 1.609375 0.5 1.609375 0.5 1.65625 C 0.5 1.6875 0.515625 1.734375 0.578125 1.734375 C 0.671875 1.734375 1.328125 1.28125 1.796875 0.40625 C 2.09375 -0.171875 2.296875 -0.921875 2.296875 -1.734375 C 2.296875 -2.71875 2 -4.25 0.625 -5.21875 Z M 0.625 -5.21875 "/>
</symbol>
<symbol overflow="visible" id="embed-4843338544912969634-glyph2-0">
<path style="stroke:none;" d=""/>
</symbol>
<symbol overflow="visible" id="embed-4843338544912969634-glyph2-1">
<path style="stroke:none;" d="M 1.46875 -0.109375 C 1.46875 0.265625 1.40625 0.71875 0.921875 1.15625 C 0.90625 1.1875 0.875 1.21875 0.875 1.25 C 0.875 1.296875 0.9375 1.34375 0.96875 1.34375 C 1.078125 1.34375 1.671875 0.78125 1.671875 -0.046875 C 1.671875 -0.46875 1.5 -0.796875 1.171875 -0.796875 C 0.953125 -0.796875 0.78125 -0.625 0.78125 -0.40625 C 0.78125 -0.1875 0.9375 0 1.1875 0 C 1.359375 0 1.46875 -0.109375 1.46875 -0.109375 Z M 1.46875 -0.109375 "/>
</symbol>
<symbol overflow="visible" id="embed-4843338544912969634-glyph2-2">
<path style="stroke:none;" d="M 1.96875 -4.625 C 1.96875 -4.640625 2 -4.734375 2 -4.734375 C 2 -4.78125 1.96875 -4.84375 1.875 -4.84375 C 1.734375 -4.84375 1.15625 -4.78125 0.984375 -4.765625 C 0.9375 -4.765625 0.84375 -4.75 0.84375 -4.609375 C 0.84375 -4.515625 0.9375 -4.515625 1.015625 -4.515625 C 1.359375 -4.515625 1.359375 -4.453125 1.359375 -4.40625 C 1.359375 -4.359375 1.34375 -4.3125 1.328125 -4.25 L 0.453125 -0.8125 C 0.4375 -0.734375 0.4375 -0.65625 0.4375 -0.59375 C 0.4375 -0.140625 0.828125 0.0625 1.15625 0.0625 C 1.328125 0.0625 1.546875 0.015625 1.71875 -0.296875 C 1.875 -0.5625 1.96875 -0.96875 1.96875 -1 C 1.96875 -1.09375 1.875 -1.09375 1.859375 -1.09375 C 1.75 -1.09375 1.734375 -1.046875 1.71875 -0.921875 C 1.625 -0.578125 1.484375 -0.125 1.1875 -0.125 C 1 -0.125 0.953125 -0.296875 0.953125 -0.46875 C 0.953125 -0.546875 0.96875 -0.671875 1 -0.75 Z M 1.96875 -4.625 "/>
</symbol>
</g>
<clipPath id="embed-4843338544912969634-clip1">
  <path d="M 5 0 L 12 0 L 12 7.832031 L 5 7.832031 Z M 5 0 "/>
</clipPath>
<clipPath id="embed-4843338544912969634-clip2">
  <path d="M 13 1 L 17 1 L 17 7.832031 L 13 7.832031 Z M 13 1 "/>
</clipPath>
<clipPath id="embed-4843338544912969634-clip3">
  <path d="M 17 0 L 20 0 L 20 7.832031 L 17 7.832031 Z M 17 0 "/>
</clipPath>
</g>
<g id="d5">
<g>
<symbol overflow="visible" id="embed--3090384461621277247-glyph0-0">
<path style="stroke:none;" d=""/>
</symbol>
<symbol overflow="visible" id="embed--3090384461621277247-glyph0-1">
<path style="stroke:none;" d="M 0.40625 -2.53125 C 0.796875 -3.671875 1.890625 -3.6875 2 -3.6875 C 3.5 -3.6875 3.609375 -1.9375 3.609375 -1.15625 C 3.609375 -0.546875 3.5625 -0.375 3.484375 -0.171875 C 3.265625 0.546875 2.96875 1.703125 2.96875 1.96875 C 2.96875 2.078125 3.015625 2.140625 3.09375 2.140625 C 3.234375 2.140625 3.3125 1.921875 3.421875 1.546875 C 3.65625 0.703125 3.75 0.140625 3.78125 -0.171875 C 3.8125 -0.296875 3.828125 -0.421875 3.875 -0.5625 C 4.1875 -1.546875 4.828125 -3.03125 5.21875 -3.8125 C 5.296875 -3.9375 5.40625 -4.15625 5.40625 -4.203125 C 5.40625 -4.296875 5.3125 -4.296875 5.296875 -4.296875 C 5.265625 -4.296875 5.203125 -4.296875 5.171875 -4.234375 C 4.65625 -3.28125 4.25 -2.28125 3.859375 -1.28125 C 3.84375 -1.578125 3.84375 -2.34375 3.453125 -3.3125 C 3.203125 -3.921875 2.8125 -4.40625 2.125 -4.40625 C 0.875 -4.40625 0.171875 -2.890625 0.171875 -2.578125 C 0.171875 -2.484375 0.265625 -2.484375 0.375 -2.484375 Z M 0.40625 -2.53125 "/>
</symbol>
<symbol overflow="visible" id="embed--3090384461621277247-glyph1-0">
<path style="stroke:none;" d=""/>
</symbol>
<symbol overflow="visible" id="embed--3090384461621277247-glyph1-1">
<path style="stroke:none;" d="M 2.46875 -5.21875 C 1.15625 -4.296875 0.796875 -2.8125 0.796875 -1.75 C 0.796875 -0.765625 1.09375 0.765625 2.46875 1.734375 C 2.53125 1.734375 2.609375 1.734375 2.609375 1.65625 C 2.609375 1.609375 2.59375 1.59375 2.546875 1.546875 C 1.609375 0.703125 1.28125 -0.46875 1.28125 -1.734375 C 1.28125 -3.625 2 -4.546875 2.5625 -5.0625 C 2.59375 -5.09375 2.609375 -5.109375 2.609375 -5.140625 C 2.609375 -5.21875 2.53125 -5.21875 2.46875 -5.21875 Z M 2.46875 -5.21875 "/>
</symbol>
<symbol overflow="visible" id="embed--3090384461621277247-glyph1-2">
<path style="stroke:none;" d="M 1.90625 -2.328125 C 2.453125 -2.328125 2.84375 -1.953125 2.84375 -1.203125 C 2.84375 -0.34375 2.328125 -0.078125 1.9375 -0.078125 C 1.65625 -0.078125 1.03125 -0.15625 0.75 -0.578125 C 1.078125 -0.578125 1.15625 -0.8125 1.15625 -0.96875 C 1.15625 -1.1875 0.984375 -1.34375 0.765625 -1.34375 C 0.578125 -1.34375 0.375 -1.21875 0.375 -0.9375 C 0.375 -0.28125 1.09375 0.140625 1.9375 0.140625 C 2.90625 0.140625 3.578125 -0.515625 3.578125 -1.203125 C 3.578125 -1.75 3.140625 -2.296875 2.375 -2.453125 C 3.09375 -2.71875 3.359375 -3.234375 3.359375 -3.671875 C 3.359375 -4.21875 2.734375 -4.625 1.953125 -4.625 C 1.1875 -4.625 0.59375 -4.25 0.59375 -3.6875 C 0.59375 -3.453125 0.75 -3.328125 0.953125 -3.328125 C 1.171875 -3.328125 1.3125 -3.484375 1.3125 -3.671875 C 1.3125 -3.875 1.171875 -4.03125 0.953125 -4.046875 C 1.203125 -4.34375 1.671875 -4.421875 1.9375 -4.421875 C 2.25 -4.421875 2.6875 -4.265625 2.6875 -3.671875 C 2.6875 -3.375 2.59375 -3.046875 2.40625 -2.84375 C 2.1875 -2.578125 1.984375 -2.5625 1.640625 -2.53125 C 1.46875 -2.515625 1.453125 -2.515625 1.421875 -2.515625 C 1.40625 -2.515625 1.34375 -2.5 1.34375 -2.421875 C 1.34375 -2.328125 1.40625 -2.328125 1.53125 -2.328125 Z M 1.90625 -2.328125 "/>
</symbol>
<symbol overflow="visible" id="embed--3090384461621277247-glyph1-3">
<path style="stroke:none;" d="M 0.625 -5.21875 C 0.578125 -5.21875 0.5 -5.21875 0.5 -5.140625 C 0.5 -5.109375 0.515625 -5.09375 0.5625 -5.03125 C 1.15625 -4.484375 1.828125 -3.546875 1.828125 -1.75 C 1.828125 -0.296875 1.375 0.8125 0.625 1.484375 C 0.5 1.609375 0.5 1.609375 0.5 1.65625 C 0.5 1.6875 0.515625 1.734375 0.578125 1.734375 C 0.671875 1.734375 1.328125 1.28125 1.796875 0.40625 C 2.09375 -0.171875 2.296875 -0.921875 2.296875 -1.734375 C 2.296875 -2.71875 2 -4.25 0.625 -5.21875 Z M 0.625 -5.21875 "/>
</symbol>
<symbol overflow="visible" id="embed--3090384461621277247-glyph2-0">
<path style="stroke:none;" d=""/>
</symbol>
<symbol overflow="visible" id="embed--3090384461621277247-glyph2-1">
<path style="stroke:none;" d="M 1.46875 -0.109375 C 1.46875 0.265625 1.40625 0.71875 0.921875 1.15625 C 0.90625 1.1875 0.875 1.21875 0.875 1.25 C 0.875 1.296875 0.9375 1.34375 0.96875 1.34375 C 1.078125 1.34375 1.671875 0.78125 1.671875 -0.046875 C 1.671875 -0.46875 1.5 -0.796875 1.171875 -0.796875 C 0.953125 -0.796875 0.78125 -0.625 0.78125 -0.40625 C 0.78125 -0.1875 0.9375 0 1.1875 0 C 1.359375 0 1.46875 -0.109375 1.46875 -0.109375 Z M 1.46875 -0.109375 "/>
</symbol>
<symbol overflow="visible" id="embed--3090384461621277247-glyph2-2">
<path style="stroke:none;" d="M 1.640625 -1.40625 C 1.640625 -1.453125 1.8125 -2.078125 1.8125 -2.109375 C 1.828125 -2.171875 2.03125 -2.515625 2.265625 -2.6875 C 2.328125 -2.734375 2.515625 -2.875 2.828125 -2.875 C 2.890625 -2.875 3.0625 -2.875 3.203125 -2.78125 C 2.984375 -2.71875 2.90625 -2.515625 2.90625 -2.390625 C 2.90625 -2.25 3.015625 -2.140625 3.171875 -2.140625 C 3.34375 -2.140625 3.5625 -2.265625 3.5625 -2.5625 C 3.5625 -2.921875 3.1875 -3.078125 2.828125 -3.078125 C 2.46875 -3.078125 2.15625 -2.921875 1.84375 -2.578125 C 1.71875 -3 1.296875 -3.078125 1.125 -3.078125 C 0.875 -3.078125 0.703125 -2.90625 0.578125 -2.71875 C 0.421875 -2.453125 0.328125 -2.046875 0.328125 -2 C 0.328125 -1.921875 0.421875 -1.921875 0.453125 -1.921875 C 0.546875 -1.921875 0.546875 -1.9375 0.59375 -2.125 C 0.703125 -2.546875 0.84375 -2.875 1.109375 -2.875 C 1.296875 -2.875 1.34375 -2.71875 1.34375 -2.53125 C 1.34375 -2.40625 1.28125 -2.140625 1.21875 -1.953125 C 1.171875 -1.765625 1.109375 -1.484375 1.078125 -1.328125 L 0.84375 -0.4375 C 0.828125 -0.34375 0.78125 -0.171875 0.78125 -0.15625 C 0.78125 0 0.90625 0.0625 1.015625 0.0625 C 1.125 0.0625 1.265625 0 1.3125 -0.125 C 1.328125 -0.171875 1.40625 -0.484375 1.453125 -0.65625 Z M 1.640625 -1.40625 "/>
</symbol>
</g>
<clipPath id="embed--3090384461621277247-clip1">
  <path d="M 5 0 L 12 0 L 12 7.832031 L 5 7.832031 Z M 5 0 "/>
</clipPath>
<clipPath id="embed--3090384461621277247-clip2">
  <path d="M 13 3 L 19 3 L 19 7.832031 L 13 7.832031 Z M 13 3 "/>
</clipPath>
<clipPath id="embed--3090384461621277247-clip3">
  <path d="M 19 0 L 21 0 L 21 7.832031 L 19 7.832031 Z M 19 0 "/>
</clipPath>
</g>
<g id="d6">
<g>
<symbol overflow="visible" id="embed-2353498806315614676-glyph0-0">
<path style="stroke:none;" d=""/>
</symbol>
<symbol overflow="visible" id="embed-2353498806315614676-glyph0-1">
<path style="stroke:none;" d="M 1.578125 -7.125 C 1.578125 -7.296875 1.578125 -7.484375 1.390625 -7.484375 C 1.1875 -7.484375 1.1875 -7.296875 1.1875 -7.125 L 1.1875 2.140625 C 1.1875 2.3125 1.1875 2.5 1.390625 2.5 C 1.578125 2.5 1.578125 2.3125 1.578125 2.140625 Z M 1.578125 -7.125 "/>
</symbol>
<symbol overflow="visible" id="embed-2353498806315614676-glyph0-2">
<path style="stroke:none;" d="M 2.71875 -2.328125 C 2.765625 -2.4375 2.765625 -2.46875 2.765625 -2.5 C 2.765625 -2.515625 2.765625 -2.546875 2.71875 -2.65625 L 0.984375 -7.25 C 0.921875 -7.421875 0.859375 -7.484375 0.75 -7.484375 C 0.640625 -7.484375 0.546875 -7.390625 0.546875 -7.28125 C 0.546875 -7.25 0.546875 -7.234375 0.59375 -7.125 L 2.359375 -2.5 L 0.59375 2.109375 C 0.546875 2.21875 0.546875 2.25 0.546875 2.296875 C 0.546875 2.40625 0.640625 2.5 0.75 2.5 C 0.875 2.5 0.921875 2.390625 0.953125 2.296875 Z M 2.71875 -2.328125 "/>
</symbol>
<symbol overflow="visible" id="embed-2353498806315614676-glyph1-0">
<path style="stroke:none;" d=""/>
</symbol>
<symbol overflow="visible" id="embed-2353498806315614676-glyph1-1">
<path style="stroke:none;" d="M 4.8125 -6.65625 C 4.8125 -6.703125 4.828125 -6.765625 4.828125 -6.8125 C 4.828125 -6.90625 4.765625 -6.921875 4.71875 -6.921875 C 4.609375 -6.921875 4.609375 -6.890625 4.5625 -6.71875 L 2.90625 -0.125 C 2.15625 -0.21875 1.78125 -0.59375 1.78125 -1.25 C 1.78125 -1.453125 1.78125 -1.703125 2.3125 -3.09375 C 2.359375 -3.21875 2.421875 -3.390625 2.421875 -3.59375 C 2.421875 -4.03125 2.109375 -4.40625 1.609375 -4.40625 C 0.65625 -4.40625 0.296875 -2.953125 0.296875 -2.875 C 0.296875 -2.765625 0.390625 -2.765625 0.40625 -2.765625 C 0.515625 -2.765625 0.515625 -2.796875 0.5625 -2.953125 C 0.84375 -3.890625 1.234375 -4.1875 1.578125 -4.1875 C 1.65625 -4.1875 1.828125 -4.1875 1.828125 -3.875 C 1.828125 -3.609375 1.71875 -3.359375 1.59375 -3.015625 C 1.109375 -1.75 1.109375 -1.5 1.109375 -1.328125 C 1.109375 -0.375 1.890625 0.03125 2.84375 0.09375 C 2.765625 0.453125 2.765625 0.46875 2.625 1 C 2.609375 1.109375 2.40625 1.90625 2.40625 1.9375 C 2.40625 1.953125 2.40625 2.046875 2.515625 2.046875 C 2.546875 2.046875 2.59375 2.046875 2.609375 2 C 2.640625 1.984375 2.703125 1.734375 2.734375 1.59375 L 3.109375 0.109375 C 3.484375 0.109375 4.359375 0.109375 5.296875 -0.953125 C 5.703125 -1.421875 5.90625 -1.859375 6.015625 -2.15625 C 6.109375 -2.40625 6.328125 -3.265625 6.328125 -3.703125 C 6.328125 -4.265625 6.0625 -4.40625 5.890625 -4.40625 C 5.640625 -4.40625 5.390625 -4.140625 5.390625 -3.921875 C 5.390625 -3.796875 5.453125 -3.734375 5.546875 -3.65625 C 5.65625 -3.546875 5.90625 -3.296875 5.90625 -2.8125 C 5.90625 -2.171875 5.390625 -1.359375 5.03125 -1 C 4.15625 -0.109375 3.515625 -0.109375 3.15625 -0.109375 Z M 4.8125 -6.65625 "/>
</symbol>
<symbol overflow="visible" id="embed-2353498806315614676-glyph2-0">
<path style="stroke:none;" d=""/>
</symbol>
<symbol overflow="visible" id="embed-2353498806315614676-glyph2-1">
<path style="stroke:none;" d="M 3.59375 -2.21875 C 3.59375 -2.984375 3.5 -3.546875 3.1875 -4.03125 C 2.96875 -4.34375 2.53125 -4.625 1.984375 -4.625 C 0.359375 -4.625 0.359375 -2.71875 0.359375 -2.21875 C 0.359375 -1.71875 0.359375 0.140625 1.984375 0.140625 C 3.59375 0.140625 3.59375 -1.71875 3.59375 -2.21875 Z M 1.984375 -0.0625 C 1.65625 -0.0625 1.234375 -0.25 1.09375 -0.8125 C 1 -1.21875 1 -1.796875 1 -2.3125 C 1 -2.828125 1 -3.359375 1.09375 -3.734375 C 1.25 -4.28125 1.6875 -4.4375 1.984375 -4.4375 C 2.359375 -4.4375 2.71875 -4.203125 2.84375 -3.796875 C 2.953125 -3.421875 2.96875 -2.921875 2.96875 -2.3125 C 2.96875 -1.796875 2.96875 -1.28125 2.875 -0.84375 C 2.734375 -0.203125 2.265625 -0.0625 1.984375 -0.0625 Z M 1.984375 -0.0625 "/>
</symbol>
</g>
<clipPath id="embed-2353498806315614676-clip1">
  <path d="M 1 0 L 2 0 L 2 9.964844 L 1 9.964844 Z M 1 0 "/>
</clipPath>
<clipPath id="embed-2353498806315614676-clip2">
  <path d="M 3 0 L 10 0 L 10 9.964844 L 3 9.964844 Z M 3 0 "/>
</clipPath>
<clipPath id="embed-2353498806315614676-clip3">
  <path d="M 9 4 L 13 4 L 13 9.964844 L 9 9.964844 Z M 9 4 "/>
</clipPath>
<clipPath id="embed-2353498806315614676-clip4">
  <path d="M 14 0 L 17 0 L 17 9.964844 L 14 9.964844 Z M 14 0 "/>
</clipPath>
</g>
<g id="d7">
<g>
<symbol overflow="visible" id="embed-8980730839763830505-glyph0-0">
<path style="stroke:none;" d=""/>
</symbol>
<symbol overflow="visible" id="embed-8980730839763830505-glyph0-1">
<path style="stroke:none;" d="M 1.578125 -7.125 C 1.578125 -7.296875 1.578125 -7.484375 1.390625 -7.484375 C 1.1875 -7.484375 1.1875 -7.296875 1.1875 -7.125 L 1.1875 2.140625 C 1.1875 2.3125 1.1875 2.5 1.390625 2.5 C 1.578125 2.5 1.578125 2.3125 1.578125 2.140625 Z M 1.578125 -7.125 "/>
</symbol>
<symbol overflow="visible" id="embed-8980730839763830505-glyph0-2">
<path style="stroke:none;" d="M 2.71875 -2.328125 C 2.765625 -2.4375 2.765625 -2.46875 2.765625 -2.5 C 2.765625 -2.515625 2.765625 -2.546875 2.71875 -2.65625 L 0.984375 -7.25 C 0.921875 -7.421875 0.859375 -7.484375 0.75 -7.484375 C 0.640625 -7.484375 0.546875 -7.390625 0.546875 -7.28125 C 0.546875 -7.25 0.546875 -7.234375 0.59375 -7.125 L 2.359375 -2.5 L 0.59375 2.109375 C 0.546875 2.21875 0.546875 2.25 0.546875 2.296875 C 0.546875 2.40625 0.640625 2.5 0.75 2.5 C 0.875 2.5 0.921875 2.390625 0.953125 2.296875 Z M 2.71875 -2.328125 "/>
</symbol>
<symbol overflow="visible" id="embed-8980730839763830505-glyph1-0">
<path style="stroke:none;" d=""/>
</symbol>
<symbol overflow="visible" id="embed-8980730839763830505-glyph1-1">
<path style="stroke:none;" d="M 4.8125 -6.65625 C 4.8125 -6.703125 4.828125 -6.765625 4.828125 -6.8125 C 4.828125 -6.90625 4.765625 -6.921875 4.71875 -6.921875 C 4.609375 -6.921875 4.609375 -6.890625 4.5625 -6.71875 L 2.90625 -0.125 C 2.15625 -0.21875 1.78125 -0.59375 1.78125 -1.25 C 1.78125 -1.453125 1.78125 -1.703125 2.3125 -3.09375 C 2.359375 -3.21875 2.421875 -3.390625 2.421875 -3.59375 C 2.421875 -4.03125 2.109375 -4.40625 1.609375 -4.40625 C 0.65625 -4.40625 0.296875 -2.953125 0.296875 -2.875 C 0.296875 -2.765625 0.390625 -2.765625 0.40625 -2.765625 C 0.515625 -2.765625 0.515625 -2.796875 0.5625 -2.953125 C 0.84375 -3.890625 1.234375 -4.1875 1.578125 -4.1875 C 1.65625 -4.1875 1.828125 -4.1875 1.828125 -3.875 C 1.828125 -3.609375 1.71875 -3.359375 1.59375 -3.015625 C 1.109375 -1.75 1.109375 -1.5 1.109375 -1.328125 C 1.109375 -0.375 1.890625 0.03125 2.84375 0.09375 C 2.765625 0.453125 2.765625 0.46875 2.625 1 C 2.609375 1.109375 2.40625 1.90625 2.40625 1.9375 C 2.40625 1.953125 2.40625 2.046875 2.515625 2.046875 C 2.546875 2.046875 2.59375 2.046875 2.609375 2 C 2.640625 1.984375 2.703125 1.734375 2.734375 1.59375 L 3.109375 0.109375 C 3.484375 0.109375 4.359375 0.109375 5.296875 -0.953125 C 5.703125 -1.421875 5.90625 -1.859375 6.015625 -2.15625 C 6.109375 -2.40625 6.328125 -3.265625 6.328125 -3.703125 C 6.328125 -4.265625 6.0625 -4.40625 5.890625 -4.40625 C 5.640625 -4.40625 5.390625 -4.140625 5.390625 -3.921875 C 5.390625 -3.796875 5.453125 -3.734375 5.546875 -3.65625 C 5.65625 -3.546875 5.90625 -3.296875 5.90625 -2.8125 C 5.90625 -2.171875 5.390625 -1.359375 5.03125 -1 C 4.15625 -0.109375 3.515625 -0.109375 3.15625 -0.109375 Z M 4.8125 -6.65625 "/>
</symbol>
<symbol overflow="visible" id="embed-8980730839763830505-glyph2-0">
<path style="stroke:none;" d=""/>
</symbol>
<symbol overflow="visible" id="embed-8980730839763830505-glyph2-1">
<path style="stroke:none;" d="M 2.328125 -4.4375 C 2.328125 -4.625 2.328125 -4.625 2.125 -4.625 C 1.671875 -4.1875 1.046875 -4.1875 0.765625 -4.1875 L 0.765625 -3.9375 C 0.921875 -3.9375 1.390625 -3.9375 1.765625 -4.125 L 1.765625 -0.578125 C 1.765625 -0.34375 1.765625 -0.25 1.078125 -0.25 L 0.8125 -0.25 L 0.8125 0 C 0.9375 0 1.796875 -0.03125 2.046875 -0.03125 C 2.265625 -0.03125 3.140625 0 3.296875 0 L 3.296875 -0.25 L 3.03125 -0.25 C 2.328125 -0.25 2.328125 -0.34375 2.328125 -0.578125 Z M 2.328125 -4.4375 "/>
</symbol>
</g>
<clipPath id="embed-8980730839763830505-clip1">
  <path d="M 1 0 L 2 0 L 2 9.964844 L 1 9.964844 Z M 1 0 "/>
</clipPath>
<clipPath id="embed-8980730839763830505-clip2">
  <path d="M 3 0 L 10 0 L 10 9.964844 L 3 9.964844 Z M 3 0 "/>
</clipPath>
<clipPath id="embed-8980730839763830505-clip3">
  <path d="M 14 0 L 17 0 L 17 9.964844 L 14 9.964844 Z M 14 0 "/>
</clipPath>
</g>
<g id="d8">
<g>
<symbol overflow="visible" id="embed--1958762738937613434-glyph0-0">
<path style="stroke:none;" d=""/>
</symbol>
<symbol overflow="visible" id="embed--1958762738937613434-glyph0-1">
<path style="stroke:none;" d="M 1.578125 -7.125 C 1.578125 -7.296875 1.578125 -7.484375 1.390625 -7.484375 C 1.1875 -7.484375 1.1875 -7.296875 1.1875 -7.125 L 1.1875 2.140625 C 1.1875 2.3125 1.1875 2.5 1.390625 2.5 C 1.578125 2.5 1.578125 2.3125 1.578125 2.140625 Z M 1.578125 -7.125 "/>
</symbol>
<symbol overflow="visible" id="embed--1958762738937613434-glyph0-2">
<path style="stroke:none;" d="M 2.71875 -2.328125 C 2.765625 -2.4375 2.765625 -2.46875 2.765625 -2.5 C 2.765625 -2.515625 2.765625 -2.546875 2.71875 -2.65625 L 0.984375 -7.25 C 0.921875 -7.421875 0.859375 -7.484375 0.75 -7.484375 C 0.640625 -7.484375 0.546875 -7.390625 0.546875 -7.28125 C 0.546875 -7.25 0.546875 -7.234375 0.59375 -7.125 L 2.359375 -2.5 L 0.59375 2.109375 C 0.546875 2.21875 0.546875 2.25 0.546875 2.296875 C 0.546875 2.40625 0.640625 2.5 0.75 2.5 C 0.875 2.5 0.921875 2.390625 0.953125 2.296875 Z M 2.71875 -2.328125 "/>
</symbol>
<symbol overflow="visible" id="embed--1958762738937613434-glyph1-0">
<path style="stroke:none;" d=""/>
</symbol>
<symbol overflow="visible" id="embed--1958762738937613434-glyph1-1">
<path style="stroke:none;" d="M 4.8125 -6.65625 C 4.8125 -6.703125 4.828125 -6.765625 4.828125 -6.8125 C 4.828125 -6.90625 4.765625 -6.921875 4.71875 -6.921875 C 4.609375 -6.921875 4.609375 -6.890625 4.5625 -6.71875 L 2.90625 -0.125 C 2.15625 -0.21875 1.78125 -0.59375 1.78125 -1.25 C 1.78125 -1.453125 1.78125 -1.703125 2.3125 -3.09375 C 2.359375 -3.21875 2.421875 -3.390625 2.421875 -3.59375 C 2.421875 -4.03125 2.109375 -4.40625 1.609375 -4.40625 C 0.65625 -4.40625 0.296875 -2.953125 0.296875 -2.875 C 0.296875 -2.765625 0.390625 -2.765625 0.40625 -2.765625 C 0.515625 -2.765625 0.515625 -2.796875 0.5625 -2.953125 C 0.84375 -3.890625 1.234375 -4.1875 1.578125 -4.1875 C 1.65625 -4.1875 1.828125 -4.1875 1.828125 -3.875 C 1.828125 -3.609375 1.71875 -3.359375 1.59375 -3.015625 C 1.109375 -1.75 1.109375 -1.5 1.109375 -1.328125 C 1.109375 -0.375 1.890625 0.03125 2.84375 0.09375 C 2.765625 0.453125 2.765625 0.46875 2.625 1 C 2.609375 1.109375 2.40625 1.90625 2.40625 1.9375 C 2.40625 1.953125 2.40625 2.046875 2.515625 2.046875 C 2.546875 2.046875 2.59375 2.046875 2.609375 2 C 2.640625 1.984375 2.703125 1.734375 2.734375 1.59375 L 3.109375 0.109375 C 3.484375 0.109375 4.359375 0.109375 5.296875 -0.953125 C 5.703125 -1.421875 5.90625 -1.859375 6.015625 -2.15625 C 6.109375 -2.40625 6.328125 -3.265625 6.328125 -3.703125 C 6.328125 -4.265625 6.0625 -4.40625 5.890625 -4.40625 C 5.640625 -4.40625 5.390625 -4.140625 5.390625 -3.921875 C 5.390625 -3.796875 5.453125 -3.734375 5.546875 -3.65625 C 5.65625 -3.546875 5.90625 -3.296875 5.90625 -2.8125 C 5.90625 -2.171875 5.390625 -1.359375 5.03125 -1 C 4.15625 -0.109375 3.515625 -0.109375 3.15625 -0.109375 Z M 4.8125 -6.65625 "/>
</symbol>
<symbol overflow="visible" id="embed--1958762738937613434-glyph2-0">
<path style="stroke:none;" d=""/>
</symbol>
<symbol overflow="visible" id="embed--1958762738937613434-glyph2-1">
<path style="stroke:none;" d="M 1.90625 -2.328125 C 2.453125 -2.328125 2.84375 -1.953125 2.84375 -1.203125 C 2.84375 -0.34375 2.328125 -0.078125 1.9375 -0.078125 C 1.65625 -0.078125 1.03125 -0.15625 0.75 -0.578125 C 1.078125 -0.578125 1.15625 -0.8125 1.15625 -0.96875 C 1.15625 -1.1875 0.984375 -1.34375 0.765625 -1.34375 C 0.578125 -1.34375 0.375 -1.21875 0.375 -0.9375 C 0.375 -0.28125 1.09375 0.140625 1.9375 0.140625 C 2.90625 0.140625 3.578125 -0.515625 3.578125 -1.203125 C 3.578125 -1.75 3.140625 -2.296875 2.375 -2.453125 C 3.09375 -2.71875 3.359375 -3.234375 3.359375 -3.671875 C 3.359375 -4.21875 2.734375 -4.625 1.953125 -4.625 C 1.1875 -4.625 0.59375 -4.25 0.59375 -3.6875 C 0.59375 -3.453125 0.75 -3.328125 0.953125 -3.328125 C 1.171875 -3.328125 1.3125 -3.484375 1.3125 -3.671875 C 1.3125 -3.875 1.171875 -4.03125 0.953125 -4.046875 C 1.203125 -4.34375 1.671875 -4.421875 1.9375 -4.421875 C 2.25 -4.421875 2.6875 -4.265625 2.6875 -3.671875 C 2.6875 -3.375 2.59375 -3.046875 2.40625 -2.84375 C 2.1875 -2.578125 1.984375 -2.5625 1.640625 -2.53125 C 1.46875 -2.515625 1.453125 -2.515625 1.421875 -2.515625 C 1.40625 -2.515625 1.34375 -2.5 1.34375 -2.421875 C 1.34375 -2.328125 1.40625 -2.328125 1.53125 -2.328125 Z M 1.90625 -2.328125 "/>
</symbol>
</g>
<clipPath id="embed--1958762738937613434-clip1">
  <path d="M 1 0 L 2 0 L 2 9.964844 L 1 9.964844 Z M 1 0 "/>
</clipPath>
<clipPath id="embed--1958762738937613434-clip2">
  <path d="M 3 0 L 10 0 L 10 9.964844 L 3 9.964844 Z M 3 0 "/>
</clipPath>
<clipPath id="embed--1958762738937613434-clip3">
  <path d="M 9 4 L 13 4 L 13 9.964844 L 9 9.964844 Z M 9 4 "/>
</clipPath>
<clipPath id="embed--1958762738937613434-clip4">
  <path d="M 14 0 L 17 0 L 17 9.964844 L 14 9.964844 Z M 14 0 "/>
</clipPath>
</g>
</defs>
<rect x="-37.0" y="-50.0" width="28" height="14" fill="white" stroke-width="1" stroke="black" />
<rect x="-7.0" y="-50.0" width="28" height="14" fill="white" stroke-width="1" stroke="black" />
<rect x="23.0" y="-50.0" width="28" height="14" fill="white" stroke-width="1" stroke="black" />
<circle cx="-30.0" cy="-43" r="1" fill="black" />
<circle cx="-15.0" cy="-43" r="1" fill="black" />
<circle cx="0.0" cy="-43" r="1" fill="black" />
<circle cx="15.0" cy="-43" r="1" fill="black" />
<circle cx="30.0" cy="-43" r="1" fill="black" />
<circle cx="45.0" cy="-43" r="1" fill="black" />
<path d="M-30.0,-43 l0,-7.0" stroke-width="1" stroke="black" fill="black" fill-opacity="0.5" />
<path d="M-15.0,-43 l0,-7.0" stroke-width="1" stroke="black" fill="black" fill-opacity="0.5" />
<path d="M-30.0,-50.0 A7,7,0,0,1,-23.0,-57.0" stroke="black" stroke-width="1" fill-opacity="0.0" />
<path d="M-22.0,-57.0 A7,7,0,0,1,-15.0,-50.0" stroke="black" stroke-width="1" fill-opacity="0.0" />
<path d="M-23.0,-57.0 l1.0,0" stroke-width="1" stroke="black" fill="black" fill-opacity="0.5" />
<path d="M-21.333333333333332,-57.0 l-2.3333333333333335,-2.3333333333333335" stroke-width="1" stroke="black" fill="black" fill-opacity="0.5" />
<path d="M-21.333333333333332,-57.0 l-2.3333333333333335,2.3333333333333335" stroke-width="1" stroke="black" fill="black" fill-opacity="0.5" />
<path d="M0.0,-43 l0,-7.0" stroke-width="1" stroke="black" fill="black" fill-opacity="0.5" />
<path d="M15.0,-43 l0,-7.0" stroke-width="1" stroke="black" fill="black" fill-opacity="0.5" />
<path d="M0.0,-50.0 A7,7,0,0,1,7.0,-57.0" stroke="black" stroke-width="1" fill-opacity="0.0" />
<path d="M8.0,-57.0 A7,7,0,0,1,15.0,-50.0" stroke="black" stroke-width="1" fill-opacity="0.0" />
<path d="M7.0,-57.0 l1.0,0" stroke-width="1" stroke="black" fill="black" fill-opacity="0.5" />
<path d="M8.666666666666666,-57.0 l-2.3333333333333335,-2.3333333333333335" stroke-width="1" stroke="black" fill="black" fill-opacity="0.5" />
<path d="M8.666666666666666,-57.0 l-2.3333333333333335,2.3333333333333335" stroke-width="1" stroke="black" fill="black" fill-opacity="0.5" />
<text x="-30.0" y="-39.5" font-size="7" text-anchor="middle" fill="black" dy="0.5em"></text>
<text x="-15.0" y="-39.5" font-size="7" text-anchor="middle" fill="black" dy="0.5em"></text>
<text x="0.0" y="-39.5" font-size="7" text-anchor="middle" fill="black" dy="0.5em"></text>
<text x="15.0" y="-39.5" font-size="7" text-anchor="middle" fill="black" dy="0.5em"></text>
<text x="30.0" y="-39.5" font-size="7" text-anchor="middle" fill="#FD7F28" dy="0.5em"></text>
<text x="45.0" y="-39.5" font-size="7" text-anchor="middle" fill="#FD7F28" dy="0.5em"></text>
<rect x="-37.0" y="-13.0" width="28" height="14" fill="white" stroke-width="1" stroke="black" />
<rect x="-7.0" y="-13.0" width="28" height="14" fill="white" stroke-width="1" stroke="black" />
<rect x="23.0" y="-13.0" width="28" height="14" fill="white" stroke-width="1" stroke="black" />
<circle cx="-30.0" cy="-6" r="1" fill="black" />
<circle cx="-15.0" cy="-6" r="1" fill="black" />
<circle cx="0.0" cy="-6" r="1" fill="black" />
<circle cx="15.0" cy="-6" r="1" fill="black" />
<circle cx="30.0" cy="-6" r="1" fill="black" />
<circle cx="45.0" cy="-6" r="1" fill="black" />
<rect x="-37.0" y="24.0" width="28" height="14" fill="white" stroke-width="1" stroke="black" />
<rect x="-7.0" y="24.0" width="28" height="14" fill="white" stroke-width="1" stroke="black" />
<rect x="23.0" y="24.0" width="28" height="14" fill="white" stroke-width="1" stroke="black" />
<circle cx="-30.0" cy="31" r="1" fill="black" />
<circle cx="-15.0" cy="31" r="1" fill="black" />
<circle cx="0.0" cy="31" r="1" fill="black" />
<circle cx="15.0" cy="31" r="1" fill="black" />
<circle cx="30.0" cy="31" r="1" fill="black" />
<circle cx="45.0" cy="31" r="1" fill="black" />
<path d="M-15.0,38 l0,-0.0" stroke-width="1" stroke="black" fill="black" fill-opacity="0.5" />
<path d="M0.0,38 l0,-0.0" stroke-width="1" stroke="black" fill="black" fill-opacity="0.5" />
<path d="M-8.000000000000002,45.0 A7,7,0,0,1,-15.0,38.0" stroke="black" stroke-width="1" fill-opacity="0.0" />
<path d="M0.0,38.0 A7,7,0,0,1,-7.000000000000001,45.0" stroke="black" stroke-width="1" fill-opacity="0.0" />
<path d="M-8.0,45.0 l1.0,0" stroke-width="1" stroke="black" fill="black" fill-opacity="0.5" />
<path d="M-6.333333333333333,45.0 l-2.3333333333333335,-2.3333333333333335" stroke-width="1" stroke="black" fill="black" fill-opacity="0.5" />
<path d="M-6.333333333333333,45.0 l-2.3333333333333335,2.3333333333333335" stroke-width="1" stroke="black" fill="black" fill-opacity="0.5" />
<path d="M15.0,38 l0,-0.0" stroke-width="1" stroke="black" fill="black" fill-opacity="0.5" />
<path d="M30.0,38 l0,-0.0" stroke-width="1" stroke="black" fill="black" fill-opacity="0.5" />
<path d="M22.0,45.0 A7,7,0,0,1,15.0,38.0" stroke="black" stroke-width="1" fill-opacity="0.0" />
<path d="M30.0,38.0 A7,7,0,0,1,23.0,45.0" stroke="black" stroke-width="1" fill-opacity="0.0" />
<path d="M22.0,45.0 l1.0,0" stroke-width="1" stroke="black" fill="black" fill-opacity="0.5" />
<path d="M23.666666666666668,45.0 l-2.3333333333333335,-2.3333333333333335" stroke-width="1" stroke="black" fill="black" fill-opacity="0.5" />
<path d="M23.666666666666668,45.0 l-2.3333333333333335,2.3333333333333335" stroke-width="1" stroke="black" fill="black" fill-opacity="0.5" />
<text x="-30.0" y="34.5" font-size="7" text-anchor="middle" fill="black" dy="0.5em"></text>
<text x="-15.0" y="34.5" font-size="7" text-anchor="middle" fill="black" dy="0.5em"></text>
<text x="0.0" y="34.5" font-size="7" text-anchor="middle" fill="black" dy="0.5em"></text>
<text x="15.0" y="34.5" font-size="7" text-anchor="middle" fill="black" dy="0.5em"></text>
<text x="30.0" y="34.5" font-size="7" text-anchor="middle" fill="black" dy="0.5em"></text>
<text x="45.0" y="34.5" font-size="7" text-anchor="middle" fill="black" dy="0.5em"></text>
<path d="M-30.0,-36 l0,30" stroke-width="1" stroke="black" fill="black" fill-opacity="0.5" />
<path d="M-15.0,-36 l0,30" stroke-width="1" stroke="black" fill="black" fill-opacity="0.5" />
<path d="M15.0,-36 l0,30" stroke-width="1" stroke="black" fill="black" fill-opacity="0.5" />
<path d="M0.0,-36 l0.12127888217660987,2.307692307692308 l0.7345411844554031,2.307692307692308 l1.6726143503917394,2.307692307692308 l2.673710519724315,2.307692307692308 l3.534216912249895,2.307692307692308 l4.108695827823309,2.307692307692308 l4.309884646357462,2.3076923076923093 l4.108695827823301,2.307692307692306 l3.5342169122498888,2.307692307692306 l2.673710519724335,2.3076923076923093 l1.6726143503917412,2.3076923076923093 l0.7345411844554084,2.307692307692306 l0.121278882176592,2.307692307692306" stroke-width="1" stroke="black" fill="none" />
<path d="M30.0,1 l0,30" stroke-width="1" stroke="black" fill="black" fill-opacity="0.5" />
<path d="M-15.0,1 l0,30" stroke-width="1" stroke="black" fill="black" fill-opacity="0.5" />
<path d="M15.0,1 l0,30" stroke-width="1" stroke="black" fill="black" fill-opacity="0.5" />
<path d="M-30.0,1 l0.12127888217660987,2.307692307692308 l0.7345411844554031,2.307692307692308 l1.6726143503917394,2.307692307692308 l2.673710519724315,2.307692307692308 l3.534216912249895,2.307692307692308 l4.108695827823309,2.307692307692308 l4.309884646357462,2.3076923076923093 l4.108695827823301,2.307692307692306 l3.5342169122498888,2.307692307692306 l2.673710519724335,2.3076923076923093 l1.6726143503917412,2.3076923076923093 l0.7345411844554084,2.307692307692306 l0.121278882176592,2.307692307692306" stroke-width="1" stroke="black" fill="none" />
<g opacity="1.0" transform="translate(-30.0, 52) scale(0.5333333333333333) translate(-10.39, -3.916)">
<g id="embed-8268020528536133265-surface1">
<g style="fill:rgb(0%,0%,0%);fill-opacity:1;">
  <use xlink:href="#embed-8268020528536133265-glyph0-1" x="0" y="4.29"/>
</g>
<g clip-path="url(#embed-8268020528536133265-clip1)" clip-rule="nonzero">
<g style="fill:rgb(0%,0%,0%);fill-opacity:1;">
  <use xlink:href="#embed-8268020528536133265-glyph1-1" x="5.158" y="6.089"/>
  <use xlink:href="#embed-8268020528536133265-glyph1-2" x="8.271104" y="6.089"/>
</g>
</g>
<g clip-path="url(#embed-8268020528536133265-clip2)" clip-rule="nonzero">
<g style="fill:rgb(0%,0%,0%);fill-opacity:1;">
  <use xlink:href="#embed-8268020528536133265-glyph2-1" x="12.243" y="6.089"/>
  <use xlink:href="#embed-8268020528536133265-glyph2-2" x="14.60921" y="6.089"/>
</g>
</g>
<g clip-path="url(#embed-8268020528536133265-clip3)" clip-rule="nonzero">
<g style="fill:rgb(0%,0%,0%);fill-opacity:1;">
  <use xlink:href="#embed-8268020528536133265-glyph1-3" x="17.169" y="6.089"/>
</g>
</g>
</g>
</g>
<g opacity="1.0" transform="translate(-15.0, 52) scale(0.5333333333333333) translate(-11.067, -3.916)">
<g id="embed--4408545467535525796-surface1">
<g style="fill:rgb(0%,0%,0%);fill-opacity:1;">
  <use xlink:href="#embed--4408545467535525796-glyph0-1" x="0" y="4.29"/>
</g>
<g clip-path="url(#embed--4408545467535525796-clip1)" clip-rule="nonzero">
<g style="fill:rgb(0%,0%,0%);fill-opacity:1;">
  <use xlink:href="#embed--4408545467535525796-glyph1-1" x="5.158" y="6.089"/>
  <use xlink:href="#embed--4408545467535525796-glyph1-2" x="8.271104" y="6.089"/>
</g>
</g>
<g clip-path="url(#embed--4408545467535525796-clip2)" clip-rule="nonzero">
<g style="fill:rgb(0%,0%,0%);fill-opacity:1;">
  <use xlink:href="#embed--4408545467535525796-glyph2-1" x="12.243" y="6.089"/>
  <use xlink:href="#embed--4408545467535525796-glyph2-2" x="14.60921" y="6.089"/>
</g>
</g>
<g clip-path="url(#embed--4408545467535525796-clip3)" clip-rule="nonzero">
<g style="fill:rgb(0%,0%,0%);fill-opacity:1;">
  <use xlink:href="#embed--4408545467535525796-glyph1-3" x="18.522" y="6.089"/>
</g>
</g>
</g>
</g>
<g opacity="1.0" transform="translate(0.0, 52) scale(0.5333333333333333) translate(-10.39, -3.916)">
<g id="embed-7713004291897018356-surface1">
<g style="fill:rgb(0%,0%,0%);fill-opacity:1;">
  <use xlink:href="#embed-7713004291897018356-glyph0-1" x="0" y="4.29"/>
</g>
<g clip-path="url(#embed-7713004291897018356-clip1)" clip-rule="nonzero">
<g style="fill:rgb(0%,0%,0%);fill-opacity:1;">
  <use xlink:href="#embed-7713004291897018356-glyph1-1" x="5.158" y="6.089"/>
  <use xlink:href="#embed-7713004291897018356-glyph1-2" x="8.271104" y="6.089"/>
</g>
</g>
<g clip-path="url(#embed-7713004291897018356-clip2)" clip-rule="nonzero">
<g style="fill:rgb(0%,0%,0%);fill-opacity:1;">
  <use xlink:href="#embed-7713004291897018356-glyph2-1" x="12.243" y="6.089"/>
  <use xlink:href="#embed-7713004291897018356-glyph2-2" x="14.60921" y="6.089"/>
</g>
</g>
<g clip-path="url(#embed-7713004291897018356-clip3)" clip-rule="nonzero">
<g style="fill:rgb(0%,0%,0%);fill-opacity:1;">
  <use xlink:href="#embed-7713004291897018356-glyph1-3" x="17.169" y="6.089"/>
</g>
</g>
</g>
</g>
<g opacity="1.0" transform="translate(15.0, 52) scale(0.5333333333333333) translate(-11.067, -3.916)">
<g id="embed--1725841690815336525-surface1">
<g style="fill:rgb(0%,0%,0%);fill-opacity:1;">
  <use xlink:href="#embed--1725841690815336525-glyph0-1" x="0" y="4.29"/>
</g>
<g clip-path="url(#embed--1725841690815336525-clip1)" clip-rule="nonzero">
<g style="fill:rgb(0%,0%,0%);fill-opacity:1;">
  <use xlink:href="#embed--1725841690815336525-glyph1-1" x="5.158" y="6.089"/>
  <use xlink:href="#embed--1725841690815336525-glyph1-2" x="8.271104" y="6.089"/>
</g>
</g>
<g clip-path="url(#embed--1725841690815336525-clip2)" clip-rule="nonzero">
<g style="fill:rgb(0%,0%,0%);fill-opacity:1;">
  <use xlink:href="#embed--1725841690815336525-glyph2-1" x="12.243" y="6.089"/>
  <use xlink:href="#embed--1725841690815336525-glyph2-2" x="14.60921" y="6.089"/>
</g>
</g>
<g clip-path="url(#embed--1725841690815336525-clip3)" clip-rule="nonzero">
<g style="fill:rgb(0%,0%,0%);fill-opacity:1;">
  <use xlink:href="#embed--1725841690815336525-glyph1-3" x="18.522" y="6.089"/>
</g>
</g>
</g>
</g>
<g opacity="1.0" transform="translate(30.0, 52) scale(0.5333333333333333) translate(-10.39, -3.916)">
<g id="embed-4843338544912969634-surface1">
<g style="fill:rgb(0%,0%,0%);fill-opacity:1;">
  <use xlink:href="#embed-4843338544912969634-glyph0-1" x="0" y="4.29"/>
</g>
<g clip-path="url(#embed-4843338544912969634-clip1)" clip-rule="nonzero">
<g style="fill:rgb(0%,0%,0%);fill-opacity:1;">
  <use xlink:href="#embed-4843338544912969634-glyph1-1" x="5.158" y="6.089"/>
  <use xlink:href="#embed-4843338544912969634-glyph1-2" x="8.271104" y="6.089"/>
</g>
</g>
<g clip-path="url(#embed-4843338544912969634-clip2)" clip-rule="nonzero">
<g style="fill:rgb(0%,0%,0%);fill-opacity:1;">
  <use xlink:href="#embed-4843338544912969634-glyph2-1" x="12.243" y="6.089"/>
  <use xlink:href="#embed-4843338544912969634-glyph2-2" x="14.60921" y="6.089"/>
</g>
</g>
<g clip-path="url(#embed-4843338544912969634-clip3)" clip-rule="nonzero">
<g style="fill:rgb(0%,0%,0%);fill-opacity:1;">
  <use xlink:href="#embed-4843338544912969634-glyph1-3" x="17.169" y="6.089"/>
</g>
</g>
</g>
</g>
<g opacity="1.0" transform="translate(45.0, 52) scale(0.5333333333333333) translate(-11.067, -3.916)">
<g id="embed--3090384461621277247-surface1">
<g style="fill:rgb(0%,0%,0%);fill-opacity:1;">
  <use xlink:href="#embed--3090384461621277247-glyph0-1" x="0" y="4.29"/>
</g>
<g clip-path="url(#embed--3090384461621277247-clip1)" clip-rule="nonzero">
<g style="fill:rgb(0%,0%,0%);fill-opacity:1;">
  <use xlink:href="#embed--3090384461621277247-glyph1-1" x="5.158" y="6.089"/>
  <use xlink:href="#embed--3090384461621277247-glyph1-2" x="8.271104" y="6.089"/>
</g>
</g>
<g clip-path="url(#embed--3090384461621277247-clip2)" clip-rule="nonzero">
<g style="fill:rgb(0%,0%,0%);fill-opacity:1;">
  <use xlink:href="#embed--3090384461621277247-glyph2-1" x="12.243" y="6.089"/>
  <use xlink:href="#embed--3090384461621277247-glyph2-2" x="14.60921" y="6.089"/>
</g>
</g>
<g clip-path="url(#embed--3090384461621277247-clip3)" clip-rule="nonzero">
<g style="fill:rgb(0%,0%,0%);fill-opacity:1;">
  <use xlink:href="#embed--3090384461621277247-glyph1-3" x="18.522" y="6.089"/>
</g>
</g>
</g>
</g>
<g opacity="1.0" transform="translate(-45.0, -43) scale(0.7000000000000001) translate(-8.8005, -4.9815)">
<g id="embed-2353498806315614676-surface1">
<g clip-path="url(#embed-2353498806315614676-clip1)" clip-rule="nonzero">
<g style="fill:rgb(0%,0%,0%);fill-opacity:1;">
  <use xlink:href="#embed-2353498806315614676-glyph0-1" x="0" y="7.472"/>
</g>
</g>
<g clip-path="url(#embed-2353498806315614676-clip2)" clip-rule="nonzero">
<g style="fill:rgb(0%,0%,0%);fill-opacity:1;">
  <use xlink:href="#embed-2353498806315614676-glyph1-1" x="2.767" y="7.472"/>
</g>
</g>
<g clip-path="url(#embed-2353498806315614676-clip3)" clip-rule="nonzero">
<g style="fill:rgb(0%,0%,0%);fill-opacity:1;">
  <use xlink:href="#embed-2353498806315614676-glyph2-1" x="9.257" y="8.967"/>
</g>
</g>
<g clip-path="url(#embed-2353498806315614676-clip4)" clip-rule="nonzero">
<g style="fill:rgb(0%,0%,0%);fill-opacity:1;">
  <use xlink:href="#embed-2353498806315614676-glyph0-2" x="13.726" y="7.472"/>
</g>
</g>
</g>
</g>
<g opacity="1.0" transform="translate(-45.0, -6) scale(0.7000000000000001) translate(-8.8005, -4.9815)">
<g id="embed-8980730839763830505-surface1">
<g clip-path="url(#embed-8980730839763830505-clip1)" clip-rule="nonzero">
<g style="fill:rgb(0%,0%,0%);fill-opacity:1;">
  <use xlink:href="#embed-8980730839763830505-glyph0-1" x="0" y="7.472"/>
</g>
</g>
<g clip-path="url(#embed-8980730839763830505-clip2)" clip-rule="nonzero">
<g style="fill:rgb(0%,0%,0%);fill-opacity:1;">
  <use xlink:href="#embed-8980730839763830505-glyph1-1" x="2.767" y="7.472"/>
</g>
</g>
<g style="fill:rgb(0%,0%,0%);fill-opacity:1;">
  <use xlink:href="#embed-8980730839763830505-glyph2-1" x="9.257" y="8.967"/>
</g>
<g clip-path="url(#embed-8980730839763830505-clip3)" clip-rule="nonzero">
<g style="fill:rgb(0%,0%,0%);fill-opacity:1;">
  <use xlink:href="#embed-8980730839763830505-glyph0-2" x="13.726" y="7.472"/>
</g>
</g>
</g>
</g>
<g opacity="1.0" transform="translate(-45.0, 31) scale(0.7000000000000001) translate(-8.8005, -4.9815)">
<g id="embed--1958762738937613434-surface1">
<g clip-path="url(#embed--1958762738937613434-clip1)" clip-rule="nonzero">
<g style="fill:rgb(0%,0%,0%);fill-opacity:1;">
  <use xlink:href="#embed--1958762738937613434-glyph0-1" x="0" y="7.472"/>
</g>
</g>
<g clip-path="url(#embed--1958762738937613434-clip2)" clip-rule="nonzero">
<g style="fill:rgb(0%,0%,0%);fill-opacity:1;">
  <use xlink:href="#embed--1958762738937613434-glyph1-1" x="2.767" y="7.472"/>
</g>
</g>
<g clip-path="url(#embed--1958762738937613434-clip3)" clip-rule="nonzero">
<g style="fill:rgb(0%,0%,0%);fill-opacity:1;">
  <use xlink:href="#embed--1958762738937613434-glyph2-1" x="9.257" y="8.967"/>
</g>
</g>
<g clip-path="url(#embed--1958762738937613434-clip4)" clip-rule="nonzero">
<g style="fill:rgb(0%,0%,0%);fill-opacity:1;">
  <use xlink:href="#embed--1958762738937613434-glyph0-2" x="13.726" y="7.472"/>
</g>
</g>
</g>
</g>
</svg>