<?xml version="1.0" encoding="UTF-8"?>
<svg xmlns="http://www.w3.org/2000/svg" xmlns:xlink="http://www.w3.org/1999/xlink"
     width="840" height="940" viewBox="-105.0 -117.5 210 235">
<defs>
<g id="d0">
<g>
<symbol overflow="visible" id="embed--3842383016057251561-glyph0-0">
<path style="stroke:none;" d=""/>
</symbol>
<symbol overflow="visible" id="embed--3842383016057251561-glyph0-1">
<path style="stroke:none;" d="M 1.578125 -7.125 C 1.578125 -7.296875 1.578125 -7.484375 1.390625 -7.484375 C 1.1875 -7.484375 1.1875 -7.296875 1.1875 -7.125 L 1.1875 2.140625 C 1.1875 2.3125 1.1875 2.5 1.390625 2.5 C 1.578125 2.5 1.578125 2.3125 1.578125 2.140625 Z M 1.578125 -7.125 "/>
</symbol>
<symbol overflow="visible" id="embed--3842383016057251561-glyph0-2">
<path style="stroke:none;" d="M 2.71875 -2.328125 C 2.765625 -2.4375 2.765625 -2.46875 2.765625 -2.5 C 2.765625 -2.515625 2.765625 -2.546875 2.71875 -2.65625 L 0.984375 -7.25 C 0.921875 -7.421875 0.859375 -7.484375 0.75 -7.484375 C 0.640625 -7.484375 0.546875 -7.390625 0.546875 -7.28125 C 0.546875 -7.25 0.546875 -7.234375 0.59375 -7.125 L 2.359375 -2.5 L 0.59375 2.109375 C 0.546875 2.21875 0.546875 2.25 0.546875 2.296875 C 0.546875 2.40625 0.640625 2.5 0.75 2.5 C 0.875 2.5 0.921875 2.390625 0.953125 2.296875 Z M 2.71875 -2.328125 "/>
</symbol>
<symbol overflow="visible" id="embed--3842383016057251561-glyph1-0">
<path style="stroke:none;" d=""/>
</symbol>
<symbol overflow="visible" id="embed--3842383016057251561-glyph1-1">
<path style="stroke:none;" d="M 4.578125 -3.1875 C 4.578125 -3.984375 4.53125 -4.78125 4.1875 -5.515625 C 3.734375 -6.484375 2.90625 -6.640625 2.5 -6.640625 C 1.890625 -6.640625 1.171875 -6.375 0.75 -5.453125 C 0.4375 -4.765625 0.390625 -3.984375 0.390625 -3.1875 C 0.390625 -2.4375 0.421875 -1.546875 0.84375 -0.78125 C 1.265625 0.015625 2 0.21875 2.484375 0.21875 C 3.015625 0.21875 3.78125 0.015625 4.21875 -0.9375 C 4.53125 -1.625 4.578125 -2.40625 4.578125 -3.1875 Z M 2.484375 0 C 2.09375 0 1.5 -0.25 1.328125 -1.203125 C 1.21875 -1.796875 1.21875 -2.71875 1.21875 -3.3125 C 1.21875 -3.953125 1.21875 -4.609375 1.296875 -5.140625 C 1.484375 -6.328125 2.234375 -6.421875 2.484375 -6.421875 C 2.8125 -6.421875 3.46875 -6.234375 3.65625 -5.25 C 3.765625 -4.6875 3.765625 -3.9375 3.765625 -3.3125 C 3.765625 -2.5625 3.765625 -1.890625 3.65625 -1.25 C 3.5 -0.296875 2.9375 0 2.484375 0 Z M 2.484375 0 "/>
</symbol>
<symbol overflow="visible" id="embed--3842383016057251561-glyph2-0">
<path style="stroke:none;" d=""/>
</symbol>
<symbol overflow="visible" id="embed--3842383016057251561-glyph2-1">
<path style="stroke:none;" d="M 2.875 -4.1875 C 2.9375 -4.4375 2.953125 -4.515625 3.59375 -4.515625 C 3.8125 -4.515625 3.875 -4.515625 3.875 -4.65625 C 3.875 -4.671875 3.875 -4.765625 3.765625 -4.765625 C 3.609375 -4.765625 3.421875 -4.75 3.25 -4.734375 C 3.078125 -4.734375 2.859375 -4.734375 2.6875 -4.734375 C 2.546875 -4.734375 2.359375 -4.734375 2.203125 -4.734375 C 2.0625 -4.734375 1.890625 -4.765625 1.75 -4.765625 C 1.71875 -4.765625 1.609375 -4.765625 1.609375 -4.609375 C 1.609375 -4.515625 1.6875 -4.515625 1.828125 -4.515625 C 1.84375 -4.515625 1.96875 -4.515625 2.09375 -4.5 C 2.25 -4.484375 2.265625 -4.46875 2.265625 -4.390625 C 2.265625 -4.390625 2.265625 -4.34375 2.234375 -4.25 L 1.296875 -0.546875 C 1.234375 -0.3125 1.21875 -0.25 0.6875 -0.25 C 0.578125 -0.25 0.484375 -0.25 0.484375 -0.109375 C 0.484375 0 0.5625 0 0.6875 0 L 4.1875 0 C 4.375 0 4.375 0 4.4375 -0.140625 C 4.5 -0.328125 5.03125 -1.671875 5.03125 -1.734375 C 5.03125 -1.75 5.015625 -1.828125 4.90625 -1.828125 C 4.828125 -1.828125 4.8125 -1.796875 4.765625 -1.6875 C 4.5 -1.03125 4.1875 -0.25 2.921875 -0.25 L 2.125 -0.25 C 1.921875 -0.25 1.90625 -0.265625 1.90625 -0.328125 C 1.90625 -0.328125 1.90625 -0.359375 1.9375 -0.46875 Z M 2.875 -4.1875 "/>
</symbol>
<symbol overflow="visible" id="embed--3842383016057251561-glyph3-0">
<path style="stroke:none;" d=""/>
</symbol>
<symbol overflow="visible" id="embed--3842383016057251561-glyph3-1">
<path style="stroke:none;" d="M 1.078125 -3.890625 C 1.4375 -3.796875 1.640625 -3.796875 1.75 -3.796875 C 2.671875 -3.796875 3.21875 -4.421875 3.21875 -4.53125 C 3.21875 -4.609375 3.171875 -4.625 3.140625 -4.625 C 3.125 -4.625 3.109375 -4.625 3.078125 -4.609375 C 2.90625 -4.546875 2.546875 -4.40625 2.03125 -4.40625 C 1.828125 -4.40625 1.46875 -4.421875 1.015625 -4.59375 C 0.9375 -4.625 0.921875 -4.625 0.921875 -4.625 C 0.828125 -4.625 0.828125 -4.546875 0.828125 -4.4375 L 0.828125 -2.390625 C 0.828125 -2.265625 0.828125 -2.1875 0.9375 -2.1875 C 1 -2.1875 1.015625 -2.1875 1.078125 -2.28125 C 1.375 -2.65625 1.8125 -2.71875 2.046875 -2.71875 C 2.46875 -2.71875 2.65625 -2.390625 2.6875 -2.328125 C 2.8125 -2.09375 2.859375 -1.828125 2.859375 -1.421875 C 2.859375 -1.21875 2.859375 -0.8125 2.640625 -0.5 C 2.46875 -0.25 2.171875 -0.078125 1.828125 -0.078125 C 1.375 -0.078125 0.90625 -0.328125 0.734375 -0.796875 C 1 -0.78125 1.140625 -0.953125 1.140625 -1.140625 C 1.140625 -1.4375 0.875 -1.484375 0.78125 -1.484375 C 0.78125 -1.484375 0.4375 -1.484375 0.4375 -1.109375 C 0.4375 -0.484375 1.015625 0.140625 1.84375 0.140625 C 2.734375 0.140625 3.515625 -0.515625 3.515625 -1.40625 C 3.515625 -2.1875 2.921875 -2.90625 2.0625 -2.90625 C 1.75 -2.90625 1.390625 -2.84375 1.078125 -2.578125 Z M 1.078125 -3.890625 "/>
</symbol>
</g>
<clipPath id="embed--3842383016057251561-clip1">
  <path d="M 18 5 L 22 5 L 22 10.460938 L 18 10.460938 Z M 18 5 "/>
</clipPath>
</g>
<g id="d1">
<g>
<symbol overflow="visible" id="embed-2631050336543982013-glyph0-0">
<path style="stroke:none;" d=""/>
</symbol>
<symbol overflow="visible" id="embed-2631050336543982013-glyph0-1">
<path style="stroke:none;" d="M 1.578125 -7.125 C 1.578125 -7.296875 1.578125 -7.484375 1.390625 -7.484375 C 1.1875 -7.484375 1.1875 -7.296875 1.1875 -7.125 L 1.1875 2.140625 C 1.1875 2.3125 1.1875 2.5 1.390625 2.5 C 1.578125 2.5 1.578125 2.3125 1.578125 2.140625 Z M 1.578125 -7.125 "/>
</symbol>
<symbol overflow="visible" id="embed-2631050336543982013-glyph0-2">
<path style="stroke:none;" d="M 2.71875 -2.328125 C 2.765625 -2.4375 2.765625 -2.46875 2.765625 -2.5 C 2.765625 -2.515625 2.765625 -2.546875 2.71875 -2.65625 L 0.984375 -7.25 C 0.921875 -7.421875 0.859375 -7.484375 0.75 -7.484375 C 0.640625 -7.484375 0.546875 -7.390625 0.546875 -7.28125 C 0.546875 -7.25 0.546875 -7.234375 0.59375 -7.125 L 2.359375 -2.5 L 0.59375 2.109375 C 0.546875 2.21875 0.546875 2.25 0.546875 2.296875 C 0.546875 2.40625 0.640625 2.5 0.75 2.5 C 0.875 2.5 0.921875 2.390625 0.953125 2.296875 Z M 2.71875 -2.328125 "/>
</symbol>
<symbol overflow="visible" id="embed-2631050336543982013-glyph1-0">
<path style="stroke:none;" d=""/>
</symbol>
<symbol overflow="visible" id="embed-2631050336543982013-glyph1-1">
<path style="stroke:none;" d="M 4.578125 -3.1875 C 4.578125 -3.984375 4.53125 -4.78125 4.1875 -5.515625 C 3.734375 -6.484375 2.90625 -6.640625 2.5 -6.640625 C 1.890625 -6.640625 1.171875 -6.375 0.75 -5.453125 C 0.4375 -4.765625 0.390625 -3.984375 0.390625 -3.1875 C 0.390625 -2.4375 0.421875 -1.546875 0.84375 -0.78125 C 1.265625 0.015625 2 0.21875 2.484375 0.21875 C 3.015625 0.21875 3.78125 0.015625 4.21875 -0.9375 C 4.53125 -1.625 4.578125 -2.40625 4.578125 -3.1875 Z M 2.484375 0 C 2.09375 0 1.5 -0.25 1.328125 -1.203125 C 1.21875 -1.796875 1.21875 -2.71875 1.21875 -3.3125 C 1.21875 -3.953125 1.21875 -4.609375 1.296875 -5.140625 C 1.484375 -6.328125 2.234375 -6.421875 2.484375 -6.421875 C 2.8125 -6.421875 3.46875 -6.234375 3.65625 -5.25 C 3.765625 -4.6875 3.765625 -3.9375 3.765625 -3.3125 C 3.765625 -2.5625 3.765625 -1.890625 3.65625 -1.25 C 3.5 -0.296875 2.9375 0 2.484375 0 Z M 2.484375 0 "/>
</symbol>
<symbol overflow="visible" id="embed-2631050336543982013-glyph2-0">
<path style="stroke:none;" d=""/>
</symbol>
<symbol overflow="visible" id="embed-2631050336543982013-glyph2-1">
<path style="stroke:none;" d="M 2.875 -4.1875 C 2.9375 -4.4375 2.953125 -4.515625 3.59375 -4.515625 C 3.8125 -4.515625 3.875 -4.515625 3.875 -4.65625 C 3.875 -4.671875 3.875 -4.765625 3.765625 -4.765625 C 3.609375 -4.765625 3.421875 -4.75 3.25 -4.734375 C 3.078125 -4.734375 2.859375 -4.734375 2.6875 -4.734375 C 2.546875 -4.734375 2.359375 -4.734375 2.203125 -4.734375 C 2.0625 -4.734375 1.890625 -4.765625 1.75 -4.765625 C 1.71875 -4.765625 1.609375 -4.765625 1.609375 -4.609375 C 1.609375 -4.515625 1.6875 -4.515625 1.828125 -4.515625 C 1.84375 -4.515625 1.96875 -4.515625 2.09375 -4.5 C 2.25 -4.484375 2.265625 -4.46875 2.265625 -4.390625 C 2.265625 -4.390625 2.265625 -4.34375 2.234375 -4.25 L 1.296875 -0.546875 C 1.234375 -0.3125 1.21875 -0.25 0.6875 -0.25 C 0.578125 -0.25 0.484375 -0.25 0.484375 -0.109375 C 0.484375 0 0.5625 0 0.6875 0 L 4.1875 0 C 4.375 0 4.375 0 4.4375 -0.140625 C 4.5 -0.328125 5.03125 -1.671875 5.03125 -1.734375 C 5.03125 -1.75 5.015625 -1.828125 4.90625 -1.828125 C 4.828125 -1.828125 4.8125 -1.796875 4.765625 -1.6875 C 4.5 -1.03125 4.1875 -0.25 2.921875 -0.25 L 2.125 -0.25 C 1.921875 -0.25 1.90625 -0.265625 1.90625 -0.328125 C 1.90625 -0.328125 1.90625 -0.359375 1.9375 -0.46875 Z M 2.875 -4.1875 "/>
</symbol>
<symbol overflow="visible" id="embed-2631050336543982013-glyph3-0">
<path style="stroke:none;" d=""/>
</symbol>
<symbol overflow="visible" id="embed-2631050336543982013-glyph3-1">
<path style="stroke:none;" d="M 3.6875 -1.140625 L 3.6875 -1.390625 L 2.90625 -1.390625 L 2.90625 -4.5 C 2.90625 -4.640625 2.90625 -4.703125 2.765625 -4.703125 C 2.671875 -4.703125 2.640625 -4.703125 2.578125 -4.59375 L 0.265625 -1.390625 L 0.265625 -1.140625 L 2.328125 -1.140625 L 2.328125 -0.578125 C 2.328125 -0.328125 2.328125 -0.25 1.75 -0.25 L 1.5625 -0.25 L 1.5625 0 C 1.921875 -0.015625 2.359375 -0.03125 2.609375 -0.03125 C 2.875 -0.03125 3.3125 -0.015625 3.671875 0 L 3.671875 -0.25 L 3.484375 -0.25 C 2.90625 -0.25 2.90625 -0.328125 2.90625 -0.578125 L 2.90625 -1.140625 Z M 2.375 -3.9375 L 2.375 -1.390625 L 0.53125 -1.390625 Z M 2.375 -3.9375 "/>
</symbol>
</g>
<clipPath id="embed-2631050336543982013-clip1">
  <path d="M 17 5 L 22 5 L 22 10.460938 L 17 10.460938 Z M 17 5 "/>
</clipPath>
</g>
<g id="d2">
<g>
<symbol overflow="visible" id="embed--535268606635337995-glyph0-0">
<path style="stroke:none;" d=""/>
</symbol>
<symbol overflow="visible" id="embed--535268606635337995-glyph0-1">
<path style="stroke:none;" d="M 1.578125 -7.125 C 1.578125 -7.296875 1.578125 -7.484375 1.390625 -7.484375 C 1.1875 -7.484375 1.1875 -7.296875 1.1875 -7.125 L 1.1875 2.140625 C 1.1875 2.3125 1.1875 2.5 1.390625 2.5 C 1.578125 2.5 1.578125 2.3125 1.578125 2.140625 Z M 1.578125 -7.125 "/>
</symbol>
<symbol overflow="visible" id="embed--535268606635337995-glyph0-2">
<path style="stroke:none;" d="M 2.71875 -2.328125 C 2.765625 -2.4375 2.765625 -2.46875 2.765625 -2.5 C 2.765625 -2.515625 2.765625 -2.546875 2.71875 -2.65625 L 0.984375 -7.25 C 0.921875 -7.421875 0.859375 -7.484375 0.75 -7.484375 C 0.640625 -7.484375 0.546875 -7.390625 0.546875 -7.28125 C 0.546875 -7.25 0.546875 -7.234375 0.59375 -7.125 L 2.359375 -2.5 L 0.59375 2.109375 C 0.546875 2.21875 0.546875 2.25 0.546875 2.296875 C 0.546875 2.40625 0.640625 2.5 0.75 2.5 C 0.875 2.5 0.921875 2.390625 0.953125 2.296875 Z M 2.71875 -2.328125 "/>
</symbol>
<symbol overflow="visible" id="embed--535268606635337995-glyph1-0">
<path style="stroke:none;" d=""/>
</symbol>
<symbol overflow="visible" id="embed--535268606635337995-glyph1-1">
<path style="stroke:none;" d="M 4.578125 -3.1875 C 4.578125 -3.984375 4.53125 -4.78125 4.1875 -5.515625 C 3.734375 -6.484375 2.90625 -6.640625 2.5 -6.640625 C 1.890625 -6.640625 1.171875 -6.375 0.75 -5.453125 C 0.4375 -4.765625 0.390625 -3.984375 0.390625 -3.1875 C 0.390625 -2.4375 0.421875 -1.546875 0.84375 -0.78125 C 1.265625 0.015625 2 0.21875 2.484375 0.21875 C 3.015625 0.21875 3.78125 0.015625 4.21875 -0.9375 C 4.53125 -1.625 4.578125 -2.40625 4.578125 -3.1875 Z M 2.484375 0 C 2.09375 0 1.5 -0.25 1.328125 -1.203125 C 1.21875 -1.796875 1.21875 -2.71875 1.21875 -3.3125 C 1.21875 -3.953125 1.21875 -4.609375 1.296875 -5.140625 C 1.484375 -6.328125 2.234375 -6.421875 2.484375 -6.421875 C 2.8125 -6.421875 3.46875 -6.234375 3.65625 -5.25 C 3.765625 -4.6875 3.765625 -3.9375 3.765625 -3.3125 C 3.765625 -2.5625 3.765625 -1.890625 3.65625 -1.25 C 3.5 -0.296875 2.9375 0 2.484375 0 Z M 2.484375 0 "/>
</symbol>
<symbol overflow="visible" id="embed--535268606635337995-glyph2-0">
<path style="stroke:none;" d=""/>
</symbol>
<symbol overflow="visible" id="embed--535268606635337995-glyph2-1">
<path style="stroke:none;" d="M 2.875 -4.1875 C 2.9375 -4.4375 2.953125 -4.515625 3.59375 -4.515625 C 3.8125 -4.515625 3.875 -4.515625 3.875 -4.65625 C 3.875 -4.671875 3.875 -4.765625 3.765625 -4.765625 C 3.609375 -4.765625 3.421875 -4.75 3.25 -4.734375 C 3.078125 -4.734375 2.859375 -4.734375 2.6875 -4.734375 C 2.546875 -4.734375 2.359375 -4.734375 2.203125 -4.734375 C 2.0625 -4.734375 1.890625 -4.765625 1.75 -4.765625 C 1.71875 -4.765625 1.609375 -4.765625 1.609375 -4.609375 C 1.609375 -4.515625 1.6875 -4.515625 1.828125 -4.515625 C 1.84375 -4.515625 1.96875 -4.515625 2.09375 -4.5 C 2.25 -4.484375 2.265625 -4.46875 2.265625 -4.390625 C 2.265625 -4.390625 2.265625 -4.34375 2.234375 -4.25 L 1.296875 -0.546875 C 1.234375 -0.3125 1.21875 -0.25 0.6875 -0.25 C 0.578125 -0.25 0.484375 -0.25 0.484375 -0.109375 C 0.484375 0 0.5625 0 0.6875 0 L 4.1875 0 C 4.375 0 4.375 0 4.4375 -0.140625 C 4.5 -0.328125 5.03125 -1.671875 5.03125 -1.734375 C 5.03125 -1.75 5.015625 -1.828125 4.90625 -1.828125 C 4.828125 -1.828125 4.8125 -1.796875 4.765625 -1.6875 C 4.5 -1.03125 4.1875 -0.25 2.921875 -0.25 L 2.125 -0.25 C 1.921875 -0.25 1.90625 -0.265625 1.90625 -0.328125 C 1.90625 -0.328125 1.90625 -0.359375 1.9375 -0.46875 Z M 2.875 -4.1875 "/>
</symbol>
<symbol overflow="visible" id="embed--535268606635337995-glyph3-0">
<path style="stroke:none;" d=""/>
</symbol>
<symbol overflow="visible" id="embed--535268606635337995-glyph3-1">
<path style="stroke:none;" d="M 1.90625 -2.328125 C 2.453125 -2.328125 2.84375 -1.953125 2.84375 -1.203125 C 2.84375 -0.34375 2.328125 -0.078125 1.9375 -0.078125 C 1.65625 -0.078125 1.03125 -0.15625 0.75 -0.578125 C 1.078125 -0.578125 1.15625 -0.8125 1.15625 -0.96875 C 1.15625 -1.1875 0.984375 -1.34375 0.765625 -1.34375 C 0.578125 -1.34375 0.375 -1.21875 0.375 -0.9375 C 0.375 -0.28125 1.09375 0.140625 1.9375 0.140625 C 2.90625 0.140625 3.578125 -0.515625 3.578125 -1.203125 C 3.578125 -1.75 3.140625 -2.296875 2.375 -2.453125 C 3.09375 -2.71875 3.359375 -3.234375 3.359375 -3.671875 C 3.359375 -4.21875 2.734375 -4.625 1.953125 -4.625 C 1.1875 -4.625 0.59375 -4.25 0.59375 -3.6875 C 0.59375 -3.453125 0.75 -3.328125 0.953125 -3.328125 C 1.171875 -3.328125 1.3125 -3.484375 1.3125 -3.671875 C 1.3125 -3.875 1.171875 -4.03125 0.953125 -4.046875 C 1.203125 -4.34375 1.671875 -4.421875 1.9375 -4.421875 C 2.25 -4.421875 2.6875 -4.265625 2.6875 -3.671875 C 2.6875 -3.375 2.59375 -3.046875 2.40625 -2.84375 C 2.1875 -2.578125 1.984375 -2.5625 1.640625 -2.53125 C 1.46875 -2.515625 1.453125 -2.515625 1.421875 -2.515625 C 1.40625 -2.515625 1.34375 -2.5 1.34375 -2.421875 C 1.34375 -2.328125 1.40625 -2.328125 1.53125 -2.328125 Z M 1.90625 -2.328125 "/>
</symbol>
</g>
<clipPath id="embed--535268606635337995-clip1">
  <path d="M 17 5 L 22 5 L 22 10.460938 L 17 10.460938 Z M 17 5 "/>
</clipPath>
</g>
<g id="d3">
<g>
<symbol overflow="visible" id="embed--3846653907546800476-glyph0-0">
<path style="stroke:none;" d=""/>
</symbol>
<symbol overflow="visible" id="embed--3846653907546800476-glyph0-1">
<path style="stroke:none;" d="M 1.578125 -7.125 C 1.578125 -7.296875 1.578125 -7.484375 1.390625 -7.484375 C 1.1875 -7.484375 1.1875 -7.296875 1.1875 -7.125 L 1.1875 2.140625 C 1.1875 2.3125 1.1875 2.5 1.390625 2.5 C 1.578125 2.5 1.578125 2.3125 1.578125 2.140625 Z M 1.578125 -7.125 "/>
</symbol>
<symbol overflow="visible" id="embed--3846653907546800476-glyph0-2">
<path style="stroke:none;" d="M 2.71875 -2.328125 C 2.765625 -2.4375 2.765625 -2.46875 2.765625 -2.5 C 2.765625 -2.515625 2.765625 -2.546875 2.71875 -2.65625 L 0.984375 -7.25 C 0.921875 -7.421875 0.859375 -7.484375 0.75 -7.484375 C 0.640625 -7.484375 0.546875 -7.390625 0.546875 -7.28125 C 0.546875 -7.25 0.546875 -7.234375 0.59375 -7.125 L 2.359375 -2.5 L 0.59375 2.109375 C 0.546875 2.21875 0.546875 2.25 0.546875 2.296875 C 0.546875 2.40625 0.640625 2.5 0.75 2.5 C 0.875 2.5 0.921875 2.390625 0.953125 2.296875 Z M 2.71875 -2.328125 "/>
</symbol>
<symbol overflow="visible" id="embed--3846653907546800476-glyph1-0">
<path style="stroke:none;" d=""/>
</symbol>
<symbol overflow="visible" id="embed--3846653907546800476-glyph1-1">
<path style="stroke:none;" d="M 4.578125 -3.1875 C 4.578125 -3.984375 4.53125 -4.78125 4.1875 -5.515625 C 3.734375 -6.484375 2.90625 -6.640625 2.5 -6.640625 C 1.890625 -6.640625 1.171875 -6.375 0.75 -5.453125 C 0.4375 -4.765625 0.390625 -3.984375 0.390625 -3.1875 C 0.390625 -2.4375 0.421875 -1.546875 0.84375 -0.78125 C 1.265625 0.015625 2 0.21875 2.484375 0.21875 C 3.015625 0.21875 3.78125 0.015625 4.21875 -0.9375 C 4.53125 -1.625 4.578125 -2.40625 4.578125 -3.1875 Z M 2.484375 0 C 2.09375 0 1.5 -0.25 1.328125 -1.203125 C 1.21875 -1.796875 1.21875 -2.71875 1.21875 -3.3125 C 1.21875 -3.953125 1.21875 -4.609375 1.296875 -5.140625 C 1.484375 -6.328125 2.234375 -6.421875 2.484375 -6.421875 C 2.8125 -6.421875 3.46875 -6.234375 3.65625 -5.25 C 3.765625 -4.6875 3.765625 -3.9375 3.765625 -3.3125 C 3.765625 -2.5625 3.765625 -1.890625 3.65625 -1.25 C 3.5 -0.296875 2.9375 0 2.484375 0 Z M 2.484375 0 "/>
</symbol>
<symbol overflow="visible" id="embed--3846653907546800476-glyph2-0">
<path style="stroke:none;" d=""/>
</symbol>
<symbol overflow="visible" id="embed--3846653907546800476-glyph2-1">
<path style="stroke:none;" d="M 2.875 -4.1875 C 2.9375 -4.4375 2.953125 -4.515625 3.59375 -4.515625 C 3.8125 -4.515625 3.875 -4.515625 3.875 -4.65625 C 3.875 -4.671875 3.875 -4.765625 3.765625 -4.765625 C 3.609375 -4.765625 3.421875 -4.75 3.25 -4.734375 C 3.078125 -4.734375 2.859375 -4.734375 2.6875 -4.734375 C 2.546875 -4.734375 2.359375 -4.734375 2.203125 -4.734375 C 2.0625 -4.734375 1.890625 -4.765625 1.75 -4.765625 C 1.71875 -4.765625 1.609375 -4.765625 1.609375 -4.609375 C 1.609375 -4.515625 1.6875 -4.515625 1.828125 -4.515625 C 1.84375 -4.515625 1.96875 -4.515625 2.09375 -4.5 C 2.25 -4.484375 2.265625 -4.46875 2.265625 -4.390625 C 2.265625 -4.390625 2.265625 -4.34375 2.234375 -4.25 L 1.296875 -0.546875 C 1.234375 -0.3125 1.21875 -0.25 0.6875 -0.25 C 0.578125 -0.25 0.484375 -0.25 0.484375 -0.109375 C 0.484375 0 0.5625 0 0.6875 0 L 4.1875 0 C 4.375 0 4.375 0 4.4375 -0.140625 C 4.5 -0.328125 5.03125 -1.671875 5.03125 -1.734375 C 5.03125 -1.75 5.015625 -1.828125 4.90625 -1.828125 C 4.828125 -1.828125 4.8125 -1.796875 4.765625 -1.6875 C 4.5 -1.03125 4.1875 -0.25 2.921875 -0.25 L 2.125 -0.25 C 1.921875 -0.25 1.90625 -0.265625 1.90625 -0.328125 C 1.90625 -0.328125 1.90625 -0.359375 1.9375 -0.46875 Z M 2.875 -4.1875 "/>
</symbol>
<symbol overflow="visible" id="embed--3846653907546800476-glyph3-0">
<path style="stroke:none;" d=""/>
</symbol>
<symbol overflow="visible" id="embed--3846653907546800476-glyph3-1">
<path style="stroke:none;" d="M 3.515625 -1.265625 L 3.28125 -1.265625 C 3.265625 -1.109375 3.1875 -0.703125 3.09375 -0.640625 C 3.046875 -0.59375 2.515625 -0.59375 2.40625 -0.59375 L 1.125 -0.59375 C 1.859375 -1.234375 2.109375 -1.4375 2.515625 -1.765625 C 3.03125 -2.171875 3.515625 -2.609375 3.515625 -3.265625 C 3.515625 -4.109375 2.78125 -4.625 1.890625 -4.625 C 1.03125 -4.625 0.4375 -4.015625 0.4375 -3.375 C 0.4375 -3.03125 0.734375 -2.984375 0.8125 -2.984375 C 0.96875 -2.984375 1.171875 -3.109375 1.171875 -3.359375 C 1.171875 -3.484375 1.125 -3.734375 0.765625 -3.734375 C 0.984375 -4.21875 1.453125 -4.375 1.78125 -4.375 C 2.484375 -4.375 2.84375 -3.828125 2.84375 -3.265625 C 2.84375 -2.65625 2.40625 -2.1875 2.1875 -1.9375 L 0.515625 -0.265625 C 0.4375 -0.203125 0.4375 -0.1875 0.4375 0 L 3.3125 0 Z M 3.515625 -1.265625 "/>
</symbol>
</g>
<clipPath id="embed--3846653907546800476-clip1">
  <path d="M 18 5 L 22 5 L 22 10.460938 L 18 10.460938 Z M 18 5 "/>
</clipPath>
</g>
<g id="d4">
<g>
<symbol overflow="visible" id="embed--3994517089647106512-glyph0-0">
<path style="stroke:none;" d=""/>
</symbol>
<symbol overflow="visible" id="embed--3994517089647106512-glyph0-1">
<path style="stroke:none;" d="M 1.578125 -7.125 C 1.578125 -7.296875 1.578125 -7.484375 1.390625 -7.484375 C 1.1875 -7.484375 1.1875 -7.296875 1.1875 -7.125 L 1.1875 2.140625 C 1.1875 2.3125 1.1875 2.5 1.390625 2.5 C 1.578125 2.5 1.578125 2.3125 1.578125 2.140625 Z M 1.578125 -7.125 "/>
</symbol>
<symbol overflow="visible" id="embed--3994517089647106512-glyph0-2">
<path style="stroke:none;" d="M 2.71875 -2.328125 C 2.765625 -2.4375 2.765625 -2.46875 2.765625 -2.5 C 2.765625 -2.515625 2.765625 -2.546875 2.71875 -2.65625 L 0.984375 -7.25 C 0.921875 -7.421875 0.859375 -7.484375 0.75 -7.484375 C 0.640625 -7.484375 0.546875 -7.390625 0.546875 -7.28125 C 0.546875 -7.25 0.546875 -7.234375 0.59375 -7.125 L 2.359375 -2.5 L 0.59375 2.109375 C 0.546875 2.21875 0.546875 2.25 0.546875 2.296875 C 0.546875 2.40625 0.640625 2.5 0.75 2.5 C 0.875 2.5 0.921875 2.390625 0.953125 2.296875 Z M 2.71875 -2.328125 "/>
</symbol>
<symbol overflow="visible" id="embed--3994517089647106512-glyph1-0">
<path style="stroke:none;" d=""/>
</symbol>
<symbol overflow="visible" id="embed--3994517089647106512-glyph1-1">
<path style="stroke:none;" d="M 4.8125 -6.65625 C 4.8125 -6.703125 4.828125 -6.765625 4.828125 -6.8125 C 4.828125 -6.90625 4.765625 -6.921875 4.71875 -6.921875 C 4.609375 -6.921875 4.609375 -6.890625 4.5625 -6.71875 L 2.90625 -0.125 C 2.15625 -0.21875 1.78125 -0.59375 1.78125 -1.25 C 1.78125 -1.453125 1.78125 -1.703125 2.3125 -3.09375 C 2.359375 -3.21875 2.421875 -3.390625 2.421875 -3.59375 C 2.421875 -4.03125 2.109375 -4.40625 1.609375 -4.40625 C 0.65625 -4.40625 0.296875 -2.953125 0.296875 -2.875 C 0.296875 -2.765625 0.390625 -2.765625 0.40625 -2.765625 C 0.515625 -2.765625 0.515625 -2.796875 0.5625 -2.953125 C 0.84375 -3.890625 1.234375 -4.1875 1.578125 -4.1875 C 1.65625 -4.1875 1.828125 -4.1875 1.828125 -3.875 C 1.828125 -3.609375 1.71875 -3.359375 1.59375 -3.015625 C 1.109375 -1.75 1.109375 -1.5 1.109375 -1.328125 C 1.109375 -0.375 1.890625 0.03125 2.84375 0.09375 C 2.765625 0.453125 2.765625 0.46875 2.625 1 C 2.609375 1.109375 2.40625 1.90625 2.40625 1.9375 C 2.40625 1.953125 2.40625 2.046875 2.515625 2.046875 C 2.546875 2.046875 2.59375 2.046875 2.609375 2 C 2.640625 1.984375 2.703125 1.734375 2.734375 1.59375 L 3.109375 0.109375 C 3.484375 0.109375 4.359375 0.109375 5.296875 -0.953125 C 5.703125 -1.421875 5.90625 -1.859375 6.015625 -2.15625 C 6.109375 -2.40625 6.328125 -3.265625 6.328125 -3.703125 C 6.328125 -4.265625 6.0625 -4.40625 5.890625 -4.40625 C 5.640625 -4.40625 5.390625 -4.140625 5.390625 -3.921875 C 5.390625 -3.796875 5.453125 -3.734375 5.546875 -3.65625 C 5.65625 -3.546875 5.90625 -3.296875 5.90625 -2.8125 C 5.90625 -2.171875 5.390625 -1.359375 5.03125 -1 C 4.15625 -0.109375 3.515625 -0.109375 3.15625 -0.109375 Z M 4.8125 -6.65625 "/>
</symbol>
<symbol overflow="visible" id="embed--3994517089647106512-glyph2-0">
<path style="stroke:none;" d=""/>
</symbol>
<symbol overflow="visible" id="embed--3994517089647106512-glyph2-1">
<path style="stroke:none;" d="M 2.328125 -4.4375 C 2.328125 -4.625 2.328125 -4.625 2.125 -4.625 C 1.671875 -4.1875 1.046875 -4.1875 0.765625 -4.1875 L 0.765625 -3.9375 C 0.921875 -3.9375 1.390625 -3.9375 1.765625 -4.125 L 1.765625 -0.578125 C 1.765625 -0.34375 1.765625 -0.25 1.078125 -0.25 L 0.8125 -0.25 L 0.8125 0 C 0.9375 0 1.796875 -0.03125 2.046875 -0.03125 C 2.265625 -0.03125 3.140625 0 3.296875 0 L 3.296875 -0.25 L 3.03125 -0.25 C 2.328125 -0.25 2.328125 -0.34375 2.328125 -0.578125 Z M 2.328125 -4.4375 "/>
</symbol>
</g>
<clipPath id="embed--3994517089647106512-clip1">
  <path d="M 14 5 L 17 5 L 17 10.460938 L 14 10.460938 Z M 14 5 "/>
</clipPath>
</g>
<g id="d5">
<g>
<symbol overflow="visible" id="embed-2192715076076086625-glyph0-0">
<path style="stroke:none;" d=""/>
</symbol>
<symbol overflow="visible" id="embed-2192715076076086625-glyph0-1">
<path style="stroke:none;" d="M 1.578125 -7.125 C 1.578125 -7.296875 1.578125 -7.484375 1.390625 -7.484375 C 1.1875 -7.484375 1.1875 -7.296875 1.1875 -7.125 L 1.1875 2.140625 C 1.1875 2.3125 1.1875 2.5 1.390625 2.5 C 1.578125 2.5 1.578125 2.3125 1.578125 2.140625 Z M 1.578125 -7.125 "/>
</symbol>
<symbol overflow="visible" id="embed-2192715076076086625-glyph0-2">
<path style="stroke:none;" d="M 2.71875 -2.328125 C 2.765625 -2.4375 2.765625 -2.46875 2.765625 -2.5 C 2.765625 -2.515625 2.765625 -2.546875 2.71875 -2.65625 L 0.984375 -7.25 C 0.921875 -7.421875 0.859375 -7.484375 0.75 -7.484375 C 0.640625 -7.484375 0.546875 -7.390625 0.546875 -7.28125 C 0.546875 -7.25 0.546875 -7.234375 0.59375 -7.125 L 2.359375 -2.5 L 0.59375 2.109375 C 0.546875 2.21875 0.546875 2.25 0.546875 2.296875 C 0.546875 2.40625 0.640625 2.5 0.75 2.5 C 0.875 2.5 0.921875 2.390625 0.953125 2.296875 Z M 2.71875 -2.328125 "/>
</symbol>
<symbol overflow="visible" id="embed-2192715076076086625-glyph1-0">
<path style="stroke:none;" d=""/>
</symbol>
<symbol overflow="visible" id="embed-2192715076076086625-glyph1-1">
<path style="stroke:none;" d="M 4.8125 -6.65625 C 4.8125 -6.703125 4.828125 -6.765625 4.828125 -6.8125 C 4.828125 -6.90625 4.765625 -6.921875 4.71875 -6.921875 C 4.609375 -6.921875 4.609375 -6.890625 4.5625 -6.71875 L 2.90625 -0.125 C 2.15625 -0.21875 1.78125 -0.59375 1.78125 -1.25 C 1.78125 -1.453125 1.78125 -1.703125 2.3125 -3.09375 C 2.359375 -3.21875 2.421875 -3.390625 2.421875 -3.59375 C 2.421875 -4.03125 2.109375 -4.40625 1.609375 -4.40625 C 0.65625 -4.40625 0.296875 -2.953125 0.296875 -2.875 C 0.296875 -2.765625 0.390625 -2.765625 0.40625 -2.765625 C 0.515625 -2.765625 0.515625 -2.796875 0.5625 -2.953125 C 0.84375 -3.890625 1.234375 -4.1875 1.578125 -4.1875 C 1.65625 -4.1875 1.828125 -4.1875 1.828125 -3.875 C 1.828125 -3.609375 1.71875 -3.359375 1.59375 -3.015625 C 1.109375 -1.75 1.109375 -1.5 1.109375 -1.328125 C 1.109375 -0.375 1.890625 0.03125 2.84375 0.09375 C 2.765625 0.453125 2.765625 0.46875 2.625 1 C 2.609375 1.109375 2.40625 1.90625 2.40625 1.9375 C 2.40625 1.953125 2.40625 2.046875 2.515625 2.046875 C 2.546875 2.046875 2.59375 2.046875 2.609375 2 C 2.640625 1.984375 2.703125 1.734375 2.734375 1.59375 L 3.109375 0.109375 C 3.484375 0.109375 4.359375 0.109375 5.296875 -0.953125 C 5.703125 -1.421875 5.90625 -1.859375 6.015625 -2.15625 C 6.109375 -2.40625 6.328125 -3.265625 6.328125 -3.703125 C 6.328125 -4.265625 6.0625 -4.40625 5.890625 -4.40625 C 5.640625 -4.40625 5.390625 -4.140625 5.390625 -3.921875 C 5.390625 -3.796875 5.453125 -3.734375 5.546875 -3.65625 C 5.65625 -3.546875 5.90625 -3.296875 5.90625 -2.8125 C 5.90625 -2.171875 5.390625 -1.359375 5.03125 -1 C 4.15625 -0.109375 3.515625 -0.109375 3.15625 -0.109375 Z M 4.8125 -6.65625 "/>
</symbol>
<symbol overflow="visible" id="embed-2192715076076086625-glyph2-0">
<path style="stroke:none;" d=""/>
</symbol>
<symbol overflow="visible" id="embed-2192715076076086625-glyph2-1">
<path style="stroke:none;" d="M 1.90625 -2.328125 C 2.453125 -2.328125 2.84375 -1.953125 2.84375 -1.203125 C 2.84375 -0.34375 2.328125 -0.078125 1.9375 -0.078125 C 1.65625 -0.078125 1.03125 -0.15625 0.75 -0.578125 C 1.078125 -0.578125 1.15625 -0.8125 1.15625 -0.96875 C 1.15625 -1.1875 0.984375 -1.34375 0.765625 -1.34375 C 0.578125 -1.34375 0.375 -1.21875 0.375 -0.9375 C 0.375 -0.28125 1.09375 0.140625 1.9375 0.140625 C 2.90625 0.140625 3.578125 -0.515625 3.578125 -1.203125 C 3.578125 -1.75 3.140625 -2.296875 2.375 -2.453125 C 3.09375 -2.71875 3.359375 -3.234375 3.359375 -3.671875 C 3.359375 -4.21875 2.734375 -4.625 1.953125 -4.625 C 1.1875 -4.625 0.59375 -4.25 0.59375 -3.6875 C 0.59375 -3.453125 0.75 -3.328125 0.953125 -3.328125 C 1.171875 -3.328125 1.3125 -3.484375 1.3125 -3.671875 C 1.3125 -3.875 1.171875 -4.03125 0.953125 -4.046875 C 1.203125 -4.34375 1.671875 -4.421875 1.9375 -4.421875 C 2.25 -4.421875 2.6875 -4.265625 2.6875 -3.671875 C 2.6875 -3.375 2.59375 -3.046875 2.40625 -2.84375 C 2.1875 -2.578125 1.984375 -2.5625 1.640625 -2.53125 C 1.46875 -2.515625 1.453125 -2.515625 1.421875 -2.515625 C 1.40625 -2.515625 1.34375 -2.5 1.34375 -2.421875 C 1.34375 -2.328125 1.40625 -2.328125 1.53125 -2.328125 Z M 1.90625 -2.328125 "/>
</symbol>
</g>
<clipPath id="embed-2192715076076086625-clip1">
  <path d="M 13 5 L 17.957031 5 L 17.957031 10.460938 L 13 10.460938 Z M 13 5 "/>
</clipPath>
</g>
<g id="d6">
<g>
<symbol overflow="visible" id="embed-2086179165456097113-glyph0-0">
<path style="stroke:none;" d=""/>
</symbol>
<symbol overflow="visible" id="embed-2086179165456097113-glyph0-1">
<path style="stroke:none;" d="M 3.875 8.515625 L 2.125 4.640625 C 2.046875 4.484375 2 4.484375 1.96875 4.484375 C 1.96875 4.484375 1.90625 4.484375 1.796875 4.5625 L 0.859375 5.28125 C 0.734375 5.390625 0.734375 5.40625 0.734375 5.4375 C 0.734375 5.5 0.75 5.546875 0.828125 5.546875 C 0.890625 5.546875 1.0625 5.40625 1.171875 5.328125 C 1.21875 5.28125 1.375 5.171875 1.484375 5.09375 L 3.453125 9.40625 C 3.515625 9.5625 3.5625 9.5625 3.65625 9.5625 C 3.8125 9.5625 3.84375 9.515625 3.90625 9.375 L 8.4375 0 C 8.5 -0.140625 8.5 -0.171875 8.5 -0.203125 C 8.5 -0.296875 8.421875 -0.40625 8.296875 -0.40625 C 8.21875 -0.40625 8.15625 -0.34375 8.078125 -0.1875 Z M 3.875 8.515625 "/>
</symbol>
<symbol overflow="visible" id="embed-2086179165456097113-glyph1-0">
<path style="stroke:none;" d=""/>
</symbol>
<symbol overflow="visible" id="embed-2086179165456097113-glyph1-1">
<path style="stroke:none;" d="M 4.828125 -4.09375 L 4 -6.078125 C 3.96875 -6.15625 3.953125 -6.203125 3.953125 -6.203125 C 3.953125 -6.265625 4.109375 -6.453125 4.53125 -6.5 C 4.640625 -6.515625 4.734375 -6.515625 4.734375 -6.6875 C 4.734375 -6.8125 4.609375 -6.8125 4.578125 -6.8125 C 4.171875 -6.8125 3.75 -6.78125 3.328125 -6.78125 C 3.078125 -6.78125 2.46875 -6.8125 2.21875 -6.8125 C 2.15625 -6.8125 2.03125 -6.8125 2.03125 -6.609375 C 2.03125 -6.5 2.140625 -6.5 2.265625 -6.5 C 2.859375 -6.5 2.921875 -6.40625 3.015625 -6.1875 L 4.1875 -3.40625 L 2.078125 -1.140625 L 1.953125 -1.03125 C 1.46875 -0.5 1 -0.34375 0.484375 -0.3125 C 0.359375 -0.296875 0.265625 -0.296875 0.265625 -0.109375 C 0.265625 -0.09375 0.265625 0 0.40625 0 C 0.703125 0 1.03125 -0.03125 1.328125 -0.03125 C 1.703125 -0.03125 2.09375 0 2.453125 0 C 2.515625 0 2.625 0 2.625 -0.203125 C 2.625 -0.296875 2.53125 -0.3125 2.515625 -0.3125 C 2.421875 -0.3125 2.109375 -0.34375 2.109375 -0.625 C 2.109375 -0.78125 2.265625 -0.9375 2.375 -1.0625 L 3.40625 -2.140625 L 4.296875 -3.125 L 5.296875 -0.734375 C 5.34375 -0.625 5.359375 -0.625 5.359375 -0.59375 C 5.359375 -0.515625 5.15625 -0.34375 4.78125 -0.3125 C 4.671875 -0.296875 4.578125 -0.296875 4.578125 -0.125 C 4.578125 0 4.6875 0 4.71875 0 C 5 0 5.703125 -0.03125 5.984375 -0.03125 C 6.234375 -0.03125 6.84375 0 7.09375 0 C 7.15625 0 7.28125 0 7.28125 -0.1875 C 7.28125 -0.3125 7.171875 -0.3125 7.09375 -0.3125 C 6.4375 -0.3125 6.40625 -0.34375 6.234375 -0.75 C 5.859375 -1.671875 5.1875 -3.234375 4.953125 -3.828125 C 5.625 -4.53125 6.671875 -5.71875 7 -5.984375 C 7.28125 -6.234375 7.671875 -6.46875 8.265625 -6.5 C 8.390625 -6.515625 8.484375 -6.515625 8.484375 -6.703125 C 8.484375 -6.703125 8.484375 -6.8125 8.359375 -6.8125 C 8.0625 -6.8125 7.71875 -6.78125 7.421875 -6.78125 C 7.046875 -6.78125 6.671875 -6.8125 6.3125 -6.8125 C 6.25 -6.8125 6.125 -6.8125 6.125 -6.609375 C 6.125 -6.546875 6.171875 -6.515625 6.234375 -6.5 C 6.328125 -6.484375 6.640625 -6.46875 6.640625 -6.1875 C 6.640625 -6.046875 6.53125 -5.921875 6.453125 -5.828125 Z M 4.828125 -4.09375 "/>
</symbol>
<symbol overflow="visible" id="embed-2086179165456097113-glyph2-0">
<path style="stroke:none;" d=""/>
</symbol>
<symbol overflow="visible" id="embed-2086179165456097113-glyph2-1">
<path style="stroke:none;" d="M 3.6875 -1.140625 L 3.6875 -1.390625 L 2.90625 -1.390625 L 2.90625 -4.5 C 2.90625 -4.640625 2.90625 -4.703125 2.765625 -4.703125 C 2.671875 -4.703125 2.640625 -4.703125 2.578125 -4.59375 L 0.265625 -1.390625 L 0.265625 -1.140625 L 2.328125 -1.140625 L 2.328125 -0.578125 C 2.328125 -0.328125 2.328125 -0.25 1.75 -0.25 L 1.5625 -0.25 L 1.5625 0 C 1.921875 -0.015625 2.359375 -0.03125 2.609375 -0.03125 C 2.875 -0.03125 3.3125 -0.015625 3.671875 0 L 3.671875 -0.25 L 3.484375 -0.25 C 2.90625 -0.25 2.90625 -0.328125 2.90625 -0.578125 L 2.90625 -1.140625 Z M 2.375 -3.9375 L 2.375 -1.390625 L 0.53125 -1.390625 Z M 2.375 -3.9375 "/>
</symbol>
<symbol overflow="visible" id="embed-2086179165456097113-glyph2-2">
<path style="stroke:none;" d="M 1.078125 -3.890625 C 1.4375 -3.796875 1.640625 -3.796875 1.75 -3.796875 C 2.671875 -3.796875 3.21875 -4.421875 3.21875 -4.53125 C 3.21875 -4.609375 3.171875 -4.625 3.140625 -4.625 C 3.125 -4.625 3.109375 -4.625 3.078125 -4.609375 C 2.90625 -4.546875 2.546875 -4.40625 2.03125 -4.40625 C 1.828125 -4.40625 1.46875 -4.421875 1.015625 -4.59375 C 0.9375 -4.625 0.921875 -4.625 0.921875 -4.625 C 0.828125 -4.625 0.828125 -4.546875 0.828125 -4.4375 L 0.828125 -2.390625 C 0.828125 -2.265625 0.828125 -2.1875 0.9375 -2.1875 C 1 -2.1875 1.015625 -2.1875 1.078125 -2.28125 C 1.375 -2.65625 1.8125 -2.71875 2.046875 -2.71875 C 2.46875 -2.71875 2.65625 -2.390625 2.6875 -2.328125 C 2.8125 -2.09375 2.859375 -1.828125 2.859375 -1.421875 C 2.859375 -1.21875 2.859375 -0.8125 2.640625 -0.5 C 2.46875 -0.25 2.171875 -0.078125 1.828125 -0.078125 C 1.375 -0.078125 0.90625 -0.328125 0.734375 -0.796875 C 1 -0.78125 1.140625 -0.953125 1.140625 -1.140625 C 1.140625 -1.4375 0.875 -1.484375 0.78125 -1.484375 C 0.78125 -1.484375 0.4375 -1.484375 0.4375 -1.109375 C 0.4375 -0.484375 1.015625 0.140625 1.84375 0.140625 C 2.734375 0.140625 3.515625 -0.515625 3.515625 -1.40625 C 3.515625 -2.1875 2.921875 -2.90625 2.0625 -2.90625 C 1.75 -2.90625 1.390625 -2.84375 1.078125 -2.578125 Z M 1.078125 -3.890625 "/>
</symbol>
</g>
<clipPath id="embed-2086179165456097113-clip1">
  <path d="M 0 0 L 9 0 L 9 10.359375 L 0 10.359375 Z M 0 0 "/>
</clipPath>
<clipPath id="embed-2086179165456097113-clip2">
  <path d="M 8 0 L 33.75 0 L 33.75 1 L 8 1 Z M 8 0 "/>
</clipPath>
<clipPath id="embed-2086179165456097113-clip3">
  <path d="M 29 5 L 33 5 L 33 10.359375 L 29 10.359375 Z M 29 5 "/>
</clipPath>
</g>
<g id="d7">
<g>
<symbol overflow="visible" id="embed--8791179151765489624-glyph0-0">
<path style="stroke:none;" d=""/>
</symbol>
<symbol overflow="visible" id="embed--8791179151765489624-glyph0-1">
<path style="stroke:none;" d="M 3.875 8.515625 L 2.125 4.640625 C 2.046875 4.484375 2 4.484375 1.96875 4.484375 C 1.96875 4.484375 1.90625 4.484375 1.796875 4.5625 L 0.859375 5.28125 C 0.734375 5.390625 0.734375 5.40625 0.734375 5.4375 C 0.734375 5.5 0.75 5.546875 0.828125 5.546875 C 0.890625 5.546875 1.0625 5.40625 1.171875 5.328125 C 1.21875 5.28125 1.375 5.171875 1.484375 5.09375 L 3.453125 9.40625 C 3.515625 9.5625 3.5625 9.5625 3.65625 9.5625 C 3.8125 9.5625 3.84375 9.515625 3.90625 9.375 L 8.4375 0 C 8.5 -0.140625 8.5 -0.171875 8.5 -0.203125 C 8.5 -0.296875 8.421875 -0.40625 8.296875 -0.40625 C 8.21875 -0.40625 8.15625 -0.34375 8.078125 -0.1875 Z M 3.875 8.515625 "/>
</symbol>
<symbol overflow="visible" id="embed--8791179151765489624-glyph1-0">
<path style="stroke:none;" d=""/>
</symbol>
<symbol overflow="visible" id="embed--8791179151765489624-glyph1-1">
<path style="stroke:none;" d="M 4.828125 -4.09375 L 4 -6.078125 C 3.96875 -6.15625 3.953125 -6.203125 3.953125 -6.203125 C 3.953125 -6.265625 4.109375 -6.453125 4.53125 -6.5 C 4.640625 -6.515625 4.734375 -6.515625 4.734375 -6.6875 C 4.734375 -6.8125 4.609375 -6.8125 4.578125 -6.8125 C 4.171875 -6.8125 3.75 -6.78125 3.328125 -6.78125 C 3.078125 -6.78125 2.46875 -6.8125 2.21875 -6.8125 C 2.15625 -6.8125 2.03125 -6.8125 2.03125 -6.609375 C 2.03125 -6.5 2.140625 -6.5 2.265625 -6.5 C 2.859375 -6.5 2.921875 -6.40625 3.015625 -6.1875 L 4.1875 -3.40625 L 2.078125 -1.140625 L 1.953125 -1.03125 C 1.46875 -0.5 1 -0.34375 0.484375 -0.3125 C 0.359375 -0.296875 0.265625 -0.296875 0.265625 -0.109375 C 0.265625 -0.09375 0.265625 0 0.40625 0 C 0.703125 0 1.03125 -0.03125 1.328125 -0.03125 C 1.703125 -0.03125 2.09375 0 2.453125 0 C 2.515625 0 2.625 0 2.625 -0.203125 C 2.625 -0.296875 2.53125 -0.3125 2.515625 -0.3125 C 2.421875 -0.3125 2.109375 -0.34375 2.109375 -0.625 C 2.109375 -0.78125 2.265625 -0.9375 2.375 -1.0625 L 3.40625 -2.140625 L 4.296875 -3.125 L 5.296875 -0.734375 C 5.34375 -0.625 5.359375 -0.625 5.359375 -0.59375 C 5.359375 -0.515625 5.15625 -0.34375 4.78125 -0.3125 C 4.671875 -0.296875 4.578125 -0.296875 4.578125 -0.125 C 4.578125 0 4.6875 0 4.71875 0 C 5 0 5.703125 -0.03125 5.984375 -0.03125 C 6.234375 -0.03125 6.84375 0 7.09375 0 C 7.15625 0 7.28125 0 7.28125 -0.1875 C 7.28125 -0.3125 7.171875 -0.3125 7.09375 -0.3125 C 6.4375 -0.3125 6.40625 -0.34375 6.234375 -0.75 C 5.859375 -1.671875 5.1875 -3.234375 4.953125 -3.828125 C 5.625 -4.53125 6.671875 -5.71875 7 -5.984375 C 7.28125 -6.234375 7.671875 -6.46875 8.265625 -6.5 C 8.390625 -6.515625 8.484375 -6.515625 8.484375 -6.703125 C 8.484375 -6.703125 8.484375 -6.8125 8.359375 -6.8125 C 8.0625 -6.8125 7.71875 -6.78125 7.421875 -6.78125 C 7.046875 -6.78125 6.671875 -6.8125 6.3125 -6.8125 C 6.25 -6.8125 6.125 -6.8125 6.125 -6.609375 C 6.125 -6.546875 6.171875 -6.515625 6.234375 -6.5 C 6.328125 -6.484375 6.640625 -6.46875 6.640625 -6.1875 C 6.640625 -6.046875 6.53125 -5.921875 6.453125 -5.828125 Z M 4.828125 -4.09375 "/>
</symbol>
<symbol overflow="visible" id="embed--8791179151765489624-glyph2-0">
<path style="stroke:none;" d=""/>
</symbol>
<symbol overflow="visible" id="embed--8791179151765489624-glyph2-1">
<path style="stroke:none;" d="M 3.515625 -1.265625 L 3.28125 -1.265625 C 3.265625 -1.109375 3.1875 -0.703125 3.09375 -0.640625 C 3.046875 -0.59375 2.515625 -0.59375 2.40625 -0.59375 L 1.125 -0.59375 C 1.859375 -1.234375 2.109375 -1.4375 2.515625 -1.765625 C 3.03125 -2.171875 3.515625 -2.609375 3.515625 -3.265625 C 3.515625 -4.109375 2.78125 -4.625 1.890625 -4.625 C 1.03125 -4.625 0.4375 -4.015625 0.4375 -3.375 C 0.4375 -3.03125 0.734375 -2.984375 0.8125 -2.984375 C 0.96875 -2.984375 1.171875 -3.109375 1.171875 -3.359375 C 1.171875 -3.484375 1.125 -3.734375 0.765625 -3.734375 C 0.984375 -4.21875 1.453125 -4.375 1.78125 -4.375 C 2.484375 -4.375 2.84375 -3.828125 2.84375 -3.265625 C 2.84375 -2.65625 2.40625 -2.1875 2.1875 -1.9375 L 0.515625 -0.265625 C 0.4375 -0.203125 0.4375 -0.1875 0.4375 0 L 3.3125 0 Z M 3.515625 -1.265625 "/>
</symbol>
<symbol overflow="visible" id="embed--8791179151765489624-glyph2-2">
<path style="stroke:none;" d="M 1.90625 -2.328125 C 2.453125 -2.328125 2.84375 -1.953125 2.84375 -1.203125 C 2.84375 -0.34375 2.328125 -0.078125 1.9375 -0.078125 C 1.65625 -0.078125 1.03125 -0.15625 0.75 -0.578125 C 1.078125 -0.578125 1.15625 -0.8125 1.15625 -0.96875 C 1.15625 -1.1875 0.984375 -1.34375 0.765625 -1.34375 C 0.578125 -1.34375 0.375 -1.21875 0.375 -0.9375 C 0.375 -0.28125 1.09375 0.140625 1.9375 0.140625 C 2.90625 0.140625 3.578125 -0.515625 3.578125 -1.203125 C 3.578125 -1.75 3.140625 -2.296875 2.375 -2.453125 C 3.09375 -2.71875 3.359375 -3.234375 3.359375 -3.671875 C 3.359375 -4.21875 2.734375 -4.625 1.953125 -4.625 C 1.1875 -4.625 0.59375 -4.25 0.59375 -3.6875 C 0.59375 -3.453125 0.75 -3.328125 0.953125 -3.328125 C 1.171875 -3.328125 1.3125 -3.484375 1.3125 -3.671875 C 1.3125 -3.875 1.171875 -4.03125 0.953125 -4.046875 C 1.203125 -4.34375 1.671875 -4.421875 1.9375 -4.421875 C 2.25 -4.421875 2.6875 -4.265625 2.6875 -3.671875 C 2.6875 -3.375 2.59375 -3.046875 2.40625 -2.84375 C 2.1875 -2.578125 1.984375 -2.5625 1.640625 -2.53125 C 1.46875 -2.515625 1.453125 -2.515625 1.421875 -2.515625 C 1.40625 -2.515625 1.34375 -2.5 1.34375 -2.421875 C 1.34375 -2.328125 1.40625 -2.328125 1.53125 -2.328125 Z M 1.90625 -2.328125 "/>
</symbol>
</g>
<clipPath id="embed--8791179151765489624-clip1">
  <path d="M 0 0 L 9 0 L 9 10.359375 L 0 10.359375 Z M 0 0 "/>
</clipPath>
<clipPath id="embed--8791179151765489624-clip2">
  <path d="M 8 0 L 33.75 0 L 33.75 1 L 8 1 Z M 8 0 "/>
</clipPath>
<clipPath id="embed--8791179151765489624-clip3">
  <path d="M 29 5 L 33 5 L 33 10.359375 L 29 10.359375 Z M 29 5 "/>
</clipPath>
</g>
<g id="d8">
<g>
<symbol overflow="visible" id="embed-1231665619870531764-glyph0-0">
<path style="stroke:none;" d=""/>
</symbol>
<symbol overflow="visible" id="embed-1231665619870531764-glyph0-1">
<path style="stroke:none;" d="M 3.875 8.515625 L 2.125 4.640625 C 2.046875 4.484375 2 4.484375 1.96875 4.484375 C 1.96875 4.484375 1.90625 4.484375 1.796875 4.5625 L 0.859375 5.28125 C 0.734375 5.390625 0.734375 5.40625 0.734375 5.4375 C 0.734375 5.5 0.75 5.546875 0.828125 5.546875 C 0.890625 5.546875 1.0625 5.40625 1.171875 5.328125 C 1.21875 5.28125 1.375 5.171875 1.484375 5.09375 L 3.453125 9.40625 C 3.515625 9.5625 3.5625 9.5625 3.65625 9.5625 C 3.8125 9.5625 3.84375 9.515625 3.90625 9.375 L 8.4375 0 C 8.5 -0.140625 8.5 -0.171875 8.5 -0.203125 C 8.5 -0.296875 8.421875 -0.40625 8.296875 -0.40625 C 8.21875 -0.40625 8.15625 -0.34375 8.078125 -0.1875 Z M 3.875 8.515625 "/>
</symbol>
<symbol overflow="visible" id="embed-1231665619870531764-glyph1-0">
<path style="stroke:none;" d=""/>
</symbol>
<symbol overflow="visible" id="embed-1231665619870531764-glyph1-1">
<path style="stroke:none;" d="M 4.828125 -4.09375 L 4 -6.078125 C 3.96875 -6.15625 3.953125 -6.203125 3.953125 -6.203125 C 3.953125 -6.265625 4.109375 -6.453125 4.53125 -6.5 C 4.640625 -6.515625 4.734375 -6.515625 4.734375 -6.6875 C 4.734375 -6.8125 4.609375 -6.8125 4.578125 -6.8125 C 4.171875 -6.8125 3.75 -6.78125 3.328125 -6.78125 C 3.078125 -6.78125 2.46875 -6.8125 2.21875 -6.8125 C 2.15625 -6.8125 2.03125 -6.8125 2.03125 -6.609375 C 2.03125 -6.5 2.140625 -6.5 2.265625 -6.5 C 2.859375 -6.5 2.921875 -6.40625 3.015625 -6.1875 L 4.1875 -3.40625 L 2.078125 -1.140625 L 1.953125 -1.03125 C 1.46875 -0.5 1 -0.34375 0.484375 -0.3125 C 0.359375 -0.296875 0.265625 -0.296875 0.265625 -0.109375 C 0.265625 -0.09375 0.265625 0 0.40625 0 C 0.703125 0 1.03125 -0.03125 1.328125 -0.03125 C 1.703125 -0.03125 2.09375 0 2.453125 0 C 2.515625 0 2.625 0 2.625 -0.203125 C 2.625 -0.296875 2.53125 -0.3125 2.515625 -0.3125 C 2.421875 -0.3125 2.109375 -0.34375 2.109375 -0.625 C 2.109375 -0.78125 2.265625 -0.9375 2.375 -1.0625 L 3.40625 -2.140625 L 4.296875 -3.125 L 5.296875 -0.734375 C 5.34375 -0.625 5.359375 -0.625 5.359375 -0.59375 C 5.359375 -0.515625 5.15625 -0.34375 4.78125 -0.3125 C 4.671875 -0.296875 4.578125 -0.296875 4.578125 -0.125 C 4.578125 0 4.6875 0 4.71875 0 C 5 0 5.703125 -0.03125 5.984375 -0.03125 C 6.234375 -0.03125 6.84375 0 7.09375 0 C 7.15625 0 7.28125 0 7.28125 -0.1875 C 7.28125 -0.3125 7.171875 -0.3125 7.09375 -0.3125 C 6.4375 -0.3125 6.40625 -0.34375 6.234375 -0.75 C 5.859375 -1.671875 5.1875 -3.234375 4.953125 -3.828125 C 5.625 -4.53125 6.671875 -5.71875 7 -5.984375 C 7.28125 -6.234375 7.671875 -6.46875 8.265625 -6.5 C 8.390625 -6.515625 8.484375 -6.515625 8.484375 -6.703125 C 8.484375 -6.703125 8.484375 -6.8125 8.359375 -6.8125 C 8.0625 -6.8125 7.71875 -6.78125 7.421875 -6.78125 C 7.046875 -6.78125 6.671875 -6.8125 6.3125 -6.8125 C 6.25 -6.8125 6.125 -6.8125 6.125 -6.609375 C 6.125 -6.546875 6.171875 -6.515625 6.234375 -6.5 C 6.328125 -6.484375 6.640625 -6.46875 6.640625 -6.1875 C 6.640625 -6.046875 6.53125 -5.921875 6.453125 -5.828125 Z M 4.828125 -4.09375 "/>
</symbol>
<symbol overflow="visible" id="embed-1231665619870531764-glyph2-0">
<path style="stroke:none;" d=""/>
</symbol>
<symbol overflow="visible" id="embed-1231665619870531764-glyph2-1">
<path style="stroke:none;" d="M 2.328125 -4.4375 C 2.328125 -4.625 2.328125 -4.625 2.125 -4.625 C 1.671875 -4.1875 1.046875 -4.1875 0.765625 -4.1875 L 0.765625 -3.9375 C 0.921875 -3.9375 1.390625 -3.9375 1.765625 -4.125 L 1.765625 -0.578125 C 1.765625 -0.34375 1.765625 -0.25 1.078125 -0.25 L 0.8125 -0.25 L 0.8125 0 C 0.9375 0 1.796875 -0.03125 2.046875 -0.03125 C 2.265625 -0.03125 3.140625 0 3.296875 0 L 3.296875 -0.25 L 3.03125 -0.25 C 2.328125 -0.25 2.328125 -0.34375 2.328125 -0.578125 Z M 2.328125 -4.4375 "/>
</symbol>
<symbol overflow="visible" id="embed-1231665619870531764-glyph2-2">
<path style="stroke:none;" d="M 3.515625 -1.265625 L 3.28125 -1.265625 C 3.265625 -1.109375 3.1875 -0.703125 3.09375 -0.640625 C 3.046875 -0.59375 2.515625 -0.59375 2.40625 -0.59375 L 1.125 -0.59375 C 1.859375 -1.234375 2.109375 -1.4375 2.515625 -1.765625 C 3.03125 -2.171875 3.515625 -2.609375 3.515625 -3.265625 C 3.515625 -4.109375 2.78125 -4.625 1.890625 -4.625 C 1.03125 -4.625 0.4375 -4.015625 0.4375 -3.375 C 0.4375 -3.03125 0.734375 -2.984375 0.8125 -2.984375 C 0.96875 -2.984375 1.171875 -3.109375 1.171875 -3.359375 C 1.171875 -3.484375 1.125 -3.734375 0.765625 -3.734375 C 0.984375 -4.21875 1.453125 -4.375 1.78125 -4.375 C 2.484375 -4.375 2.84375 -3.828125 2.84375 -3.265625 C 2.84375 -2.65625 2.40625 -2.1875 2.1875 -1.9375 L 0.515625 -0.265625 C 0.4375 -0.203125 0.4375 -0.1875 0.4375 0 L 3.3125 0 Z M 3.515625 -1.265625 "/>
</symbol>
</g>
<clipPath id="embed-1231665619870531764-clip1">
  <path d="M 0 0 L 9 0 L 9 10.359375 L 0 10.359375 Z M 0 0 "/>
</clipPath>
<clipPath id="embed-1231665619870531764-clip2">
  <path d="M 8 0 L 33.75 0 L 33.75 1 L 8 1 Z M 8 0 "/>
</clipPath>
</g>
<g id="d9">
<g>
<symbol overflow="visible" id="embed--4472800939989148419-glyph0-0">
<path style="stroke:none;" d=""/>
</symbol>
<symbol overflow="visible" id="embed--4472800939989148419-glyph0-1">
<path style="stroke:none;" d="M 4.828125 -4.09375 L 4 -6.078125 C 3.96875 -6.15625 3.953125 -6.203125 3.953125 -6.203125 C 3.953125 -6.265625 4.109375 -6.453125 4.53125 -6.5 C 4.640625 -6.515625 4.734375 -6.515625 4.734375 -6.6875 C 4.734375 -6.8125 4.609375 -6.8125 4.578125 -6.8125 C 4.171875 -6.8125 3.75 -6.78125 3.328125 -6.78125 C 3.078125 -6.78125 2.46875 -6.8125 2.21875 -6.8125 C 2.15625 -6.8125 2.03125 -6.8125 2.03125 -6.609375 C 2.03125 -6.5 2.140625 -6.5 2.265625 -6.5 C 2.859375 -6.5 2.921875 -6.40625 3.015625 -6.1875 L 4.1875 -3.40625 L 2.078125 -1.140625 L 1.953125 -1.03125 C 1.46875 -0.5 1 -0.34375 0.484375 -0.3125 C 0.359375 -0.296875 0.265625 -0.296875 0.265625 -0.109375 C 0.265625 -0.09375 0.265625 0 0.40625 0 C 0.703125 0 1.03125 -0.03125 1.328125 -0.03125 C 1.703125 -0.03125 2.09375 0 2.453125 0 C 2.515625 0 2.625 0 2.625 -0.203125 C 2.625 -0.296875 2.53125 -0.3125 2.515625 -0.3125 C 2.421875 -0.3125 2.109375 -0.34375 2.109375 -0.625 C 2.109375 -0.78125 2.265625 -0.9375 2.375 -1.0625 L 3.40625 -2.140625 L 4.296875 -3.125 L 5.296875 -0.734375 C 5.34375 -0.625 5.359375 -0.625 5.359375 -0.59375 C 5.359375 -0.515625 5.15625 -0.34375 4.78125 -0.3125 C 4.671875 -0.296875 4.578125 -0.296875 4.578125 -0.125 C 4.578125 0 4.6875 0 4.71875 0 C 5 0 5.703125 -0.03125 5.984375 -0.03125 C 6.234375 -0.03125 6.84375 0 7.09375 0 C 7.15625 0 7.28125 0 7.28125 -0.1875 C 7.28125 -0.3125 7.171875 -0.3125 7.09375 -0.3125 C 6.4375 -0.3125 6.40625 -0.34375 6.234375 -0.75 C 5.859375 -1.671875 5.1875 -3.234375 4.953125 -3.828125 C 5.625 -4.53125 6.671875 -5.71875 7 -5.984375 C 7.28125 -6.234375 7.671875 -6.46875 8.265625 -6.5 C 8.390625 -6.515625 8.484375 -6.515625 8.484375 -6.703125 C 8.484375 -6.703125 8.484375 -6.8125 8.359375 -6.8125 C 8.0625 -6.8125 7.71875 -6.78125 7.421875 -6.78125 C 7.046875 -6.78125 6.671875 -6.8125 6.3125 -6.8125 C 6.25 -6.8125 6.125 -6.8125 6.125 -6.609375 C 6.125 -6.546875 6.171875 -6.515625 6.234375 -6.5 C 6.328125 -6.484375 6.640625 -6.46875 6.640625 -6.1875 C 6.640625 -6.046875 6.53125 -5.921875 6.453125 -5.828125 Z M 4.828125 -4.09375 "/>
</symbol>
<symbol overflow="visible" id="embed--4472800939989148419-glyph1-0">
<path style="stroke:none;" d=""/>
</symbol>
<symbol overflow="visible" id="embed--4472800939989148419-glyph1-1">
<path style="stroke:none;" d="M 1.90625 -2.328125 C 2.453125 -2.328125 2.84375 -1.953125 2.84375 -1.203125 C 2.84375 -0.34375 2.328125 -0.078125 1.9375 -0.078125 C 1.65625 -0.078125 1.03125 -0.15625 0.75 -0.578125 C 1.078125 -0.578125 1.15625 -0.8125 1.15625 -0.96875 C 1.15625 -1.1875 0.984375 -1.34375 0.765625 -1.34375 C 0.578125 -1.34375 0.375 -1.21875 0.375 -0.9375 C 0.375 -0.28125 1.09375 0.140625 1.9375 0.140625 C 2.90625 0.140625 3.578125 -0.515625 3.578125 -1.203125 C 3.578125 -1.75 3.140625 -2.296875 2.375 -2.453125 C 3.09375 -2.71875 3.359375 -3.234375 3.359375 -3.671875 C 3.359375 -4.21875 2.734375 -4.625 1.953125 -4.625 C 1.1875 -4.625 0.59375 -4.25 0.59375 -3.6875 C 0.59375 -3.453125 0.75 -3.328125 0.953125 -3.328125 C 1.171875 -3.328125 1.3125 -3.484375 1.3125 -3.671875 C 1.3125 -3.875 1.171875 -4.03125 0.953125 -4.046875 C 1.203125 -4.34375 1.671875 -4.421875 1.9375 -4.421875 C 2.25 -4.421875 2.6875 -4.265625 2.6875 -3.671875 C 2.6875 -3.375 2.59375 -3.046875 2.40625 -2.84375 C 2.1875 -2.578125 1.984375 -2.5625 1.640625 -2.53125 C 1.46875 -2.515625 1.453125 -2.515625 1.421875 -2.515625 C 1.40625 -2.515625 1.34375 -2.5 1.34375 -2.421875 C 1.34375 -2.328125 1.40625 -2.328125 1.53125 -2.328125 Z M 1.90625 -2.328125 "/>
</symbol>
<symbol overflow="visible" id="embed--4472800939989148419-glyph2-0">
<path style="stroke:none;" d=""/>
</symbol>
<symbol overflow="visible" id="embed--4472800939989148419-glyph2-1">
<path style="stroke:none;" d="M 2.75 -1.859375 L 2.75 -2.4375 L 0.109375 -2.4375 L 0.109375 -1.859375 Z M 2.75 -1.859375 "/>
</symbol>
<symbol overflow="visible" id="embed--4472800939989148419-glyph2-2">
<path style="stroke:none;" d="M 1.171875 -2.171875 C 1.171875 -3.796875 1.984375 -4.21875 2.515625 -4.21875 C 2.609375 -4.21875 3.234375 -4.203125 3.578125 -3.84375 C 3.171875 -3.8125 3.109375 -3.515625 3.109375 -3.390625 C 3.109375 -3.125 3.296875 -2.9375 3.5625 -2.9375 C 3.828125 -2.9375 4.03125 -3.09375 4.03125 -3.40625 C 4.03125 -4.078125 3.265625 -4.46875 2.5 -4.46875 C 1.25 -4.46875 0.34375 -3.390625 0.34375 -2.15625 C 0.34375 -0.875 1.328125 0.109375 2.484375 0.109375 C 3.8125 0.109375 4.140625 -1.09375 4.140625 -1.1875 C 4.140625 -1.28125 4.03125 -1.28125 4 -1.28125 C 3.921875 -1.28125 3.890625 -1.25 3.875 -1.1875 C 3.59375 -0.265625 2.9375 -0.140625 2.578125 -0.140625 C 2.046875 -0.140625 1.171875 -0.5625 1.171875 -2.171875 Z M 1.171875 -2.171875 "/>
</symbol>
<symbol overflow="visible" id="embed--4472800939989148419-glyph2-3">
<path style="stroke:none;" d="M 4.6875 -2.140625 C 4.6875 -3.40625 3.703125 -4.46875 2.5 -4.46875 C 1.25 -4.46875 0.28125 -3.375 0.28125 -2.140625 C 0.28125 -0.84375 1.3125 0.109375 2.484375 0.109375 C 3.6875 0.109375 4.6875 -0.875 4.6875 -2.140625 Z M 2.5 -0.140625 C 2.0625 -0.140625 1.625 -0.34375 1.359375 -0.8125 C 1.109375 -1.25 1.109375 -1.859375 1.109375 -2.21875 C 1.109375 -2.609375 1.109375 -3.140625 1.34375 -3.578125 C 1.609375 -4.03125 2.078125 -4.25 2.484375 -4.25 C 2.921875 -4.25 3.34375 -4.03125 3.609375 -3.59375 C 3.875 -3.171875 3.875 -2.59375 3.875 -2.21875 C 3.875 -1.859375 3.875 -1.3125 3.65625 -0.875 C 3.421875 -0.421875 2.984375 -0.140625 2.5 -0.140625 Z M 2.5 -0.140625 "/>
</symbol>
<symbol overflow="visible" id="embed--4472800939989148419-glyph2-4">
<path style="stroke:none;" d="M 1.671875 -3.3125 L 1.671875 -4.40625 L 0.28125 -4.296875 L 0.28125 -3.984375 C 0.984375 -3.984375 1.0625 -3.921875 1.0625 -3.421875 L 1.0625 -0.75 C 1.0625 -0.3125 0.953125 -0.3125 0.28125 -0.3125 L 0.28125 0 C 0.671875 -0.015625 1.140625 -0.03125 1.421875 -0.03125 C 1.8125 -0.03125 2.28125 -0.03125 2.6875 0 L 2.6875 -0.3125 L 2.46875 -0.3125 C 1.734375 -0.3125 1.71875 -0.421875 1.71875 -0.78125 L 1.71875 -2.3125 C 1.71875 -3.296875 2.140625 -4.1875 2.890625 -4.1875 C 2.953125 -4.1875 2.984375 -4.1875 3 -4.171875 C 2.96875 -4.171875 2.765625 -4.046875 2.765625 -3.78125 C 2.765625 -3.515625 2.984375 -3.359375 3.203125 -3.359375 C 3.375 -3.359375 3.625 -3.484375 3.625 -3.796875 C 3.625 -4.109375 3.3125 -4.40625 2.890625 -4.40625 C 2.15625 -4.40625 1.796875 -3.734375 1.671875 -3.3125 Z M 1.671875 -3.3125 "/>
</symbol>
</g>
<clipPath id="embed--4472800939989148419-clip1">
  <path d="M 8 3 L 12 3 L 12 8.300781 L 8 8.300781 Z M 8 3 "/>
</clipPath>
</g>
<g id="d10">
<g>
<symbol overflow="visible" id="embed--4719795426140691884-glyph0-0">
<path style="stroke:none;" d=""/>
</symbol>
<symbol overflow="visible" id="embed--4719795426140691884-glyph0-1">
<path style="stroke:none;" d="M 7.171875 -6.5625 C 7.1875 -6.609375 7.203125 -6.65625 7.203125 -6.71875 C 7.203125 -6.8125 7.15625 -6.8125 6.953125 -6.8125 L 2.75 -6.8125 C 2.515625 -6.8125 2.5 -6.796875 2.4375 -6.609375 L 1.890625 -4.8125 C 1.875 -4.765625 1.859375 -4.6875 1.859375 -4.671875 C 1.859375 -4.671875 1.859375 -4.5625 1.984375 -4.5625 C 2.078125 -4.5625 2.09375 -4.640625 2.109375 -4.671875 C 2.5 -5.84375 3.015625 -6.5 4.5625 -6.5 L 6.1875 -6.5 L 0.625 -0.265625 C 0.625 -0.265625 0.578125 -0.125 0.578125 -0.09375 C 0.578125 0 0.640625 0 0.828125 0 L 5.15625 0 C 5.40625 0 5.40625 -0.015625 5.46875 -0.203125 L 6.1875 -2.40625 C 6.1875 -2.4375 6.21875 -2.515625 6.21875 -2.546875 C 6.21875 -2.609375 6.1875 -2.65625 6.09375 -2.65625 C 6 -2.65625 5.984375 -2.625 5.921875 -2.40625 C 5.484375 -1.0625 5 -0.34375 3.3125 -0.34375 L 1.609375 -0.34375 Z M 7.171875 -6.5625 "/>
</symbol>
<symbol overflow="visible" id="embed--4719795426140691884-glyph1-0">
<path style="stroke:none;" d=""/>
</symbol>
<symbol overflow="visible" id="embed--4719795426140691884-glyph1-1">
<path style="stroke:none;" d="M 1.90625 -2.328125 C 2.453125 -2.328125 2.84375 -1.953125 2.84375 -1.203125 C 2.84375 -0.34375 2.328125 -0.078125 1.9375 -0.078125 C 1.65625 -0.078125 1.03125 -0.15625 0.75 -0.578125 C 1.078125 -0.578125 1.15625 -0.8125 1.15625 -0.96875 C 1.15625 -1.1875 0.984375 -1.34375 0.765625 -1.34375 C 0.578125 -1.34375 0.375 -1.21875 0.375 -0.9375 C 0.375 -0.28125 1.09375 0.140625 1.9375 0.140625 C 2.90625 0.140625 3.578125 -0.515625 3.578125 -1.203125 C 3.578125 -1.75 3.140625 -2.296875 2.375 -2.453125 C 3.09375 -2.71875 3.359375 -3.234375 3.359375 -3.671875 C 3.359375 -4.21875 2.734375 -4.625 1.953125 -4.625 C 1.1875 -4.625 0.59375 -4.25 0.59375 -3.6875 C 0.59375 -3.453125 0.75 -3.328125 0.953125 -3.328125 C 1.171875 -3.328125 1.3125 -3.484375 1.3125 -3.671875 C 1.3125 -3.875 1.171875 -4.03125 0.953125 -4.046875 C 1.203125 -4.34375 1.671875 -4.421875 1.9375 -4.421875 C 2.25 -4.421875 2.6875 -4.265625 2.6875 -3.671875 C 2.6875 -3.375 2.59375 -3.046875 2.40625 -2.84375 C 2.1875 -2.578125 1.984375 -2.5625 1.640625 -2.53125 C 1.46875 -2.515625 1.453125 -2.515625 1.421875 -2.515625 C 1.40625 -2.515625 1.34375 -2.5 1.34375 -2.421875 C 1.34375 -2.328125 1.40625 -2.328125 1.53125 -2.328125 Z M 1.90625 -2.328125 "/>
</symbol>
<symbol overflow="visible" id="embed--4719795426140691884-glyph2-0">
<path style="stroke:none;" d=""/>
</symbol>
<symbol overflow="visible" id="embed--4719795426140691884-glyph2-1">
<path style="stroke:none;" d="M 2.75 -1.859375 L 2.75 -2.4375 L 0.109375 -2.4375 L 0.109375 -1.859375 Z M 2.75 -1.859375 "/>
</symbol>
<symbol overflow="visible" id="embed--4719795426140691884-glyph2-2">
<path style="stroke:none;" d="M 1.171875 -2.171875 C 1.171875 -3.796875 1.984375 -4.21875 2.515625 -4.21875 C 2.609375 -4.21875 3.234375 -4.203125 3.578125 -3.84375 C 3.171875 -3.8125 3.109375 -3.515625 3.109375 -3.390625 C 3.109375 -3.125 3.296875 -2.9375 3.5625 -2.9375 C 3.828125 -2.9375 4.03125 -3.09375 4.03125 -3.40625 C 4.03125 -4.078125 3.265625 -4.46875 2.5 -4.46875 C 1.25 -4.46875 0.34375 -3.390625 0.34375 -2.15625 C 0.34375 -0.875 1.328125 0.109375 2.484375 0.109375 C 3.8125 0.109375 4.140625 -1.09375 4.140625 -1.1875 C 4.140625 -1.28125 4.03125 -1.28125 4 -1.28125 C 3.921875 -1.28125 3.890625 -1.25 3.875 -1.1875 C 3.59375 -0.265625 2.9375 -0.140625 2.578125 -0.140625 C 2.046875 -0.140625 1.171875 -0.5625 1.171875 -2.171875 Z M 1.171875 -2.171875 "/>
</symbol>
<symbol overflow="visible" id="embed--4719795426140691884-glyph2-3">
<path style="stroke:none;" d="M 4.6875 -2.140625 C 4.6875 -3.40625 3.703125 -4.46875 2.5 -4.46875 C 1.25 -4.46875 0.28125 -3.375 0.28125 -2.140625 C 0.28125 -0.84375 1.3125 0.109375 2.484375 0.109375 C 3.6875 0.109375 4.6875 -0.875 4.6875 -2.140625 Z M 2.5 -0.140625 C 2.0625 -0.140625 1.625 -0.34375 1.359375 -0.8125 C 1.109375 -1.25 1.109375 -1.859375 1.109375 -2.21875 C 1.109375 -2.609375 1.109375 -3.140625 1.34375 -3.578125 C 1.609375 -4.03125 2.078125 -4.25 2.484375 -4.25 C 2.921875 -4.25 3.34375 -4.03125 3.609375 -3.59375 C 3.875 -3.171875 3.875 -2.59375 3.875 -2.21875 C 3.875 -1.859375 3.875 -1.3125 3.65625 -0.875 C 3.421875 -0.421875 2.984375 -0.140625 2.5 -0.140625 Z M 2.5 -0.140625 "/>
</symbol>
<symbol overflow="visible" id="embed--4719795426140691884-glyph2-4">
<path style="stroke:none;" d="M 1.671875 -3.3125 L 1.671875 -4.40625 L 0.28125 -4.296875 L 0.28125 -3.984375 C 0.984375 -3.984375 1.0625 -3.921875 1.0625 -3.421875 L 1.0625 -0.75 C 1.0625 -0.3125 0.953125 -0.3125 0.28125 -0.3125 L 0.28125 0 C 0.671875 -0.015625 1.140625 -0.03125 1.421875 -0.03125 C 1.8125 -0.03125 2.28125 -0.03125 2.6875 0 L 2.6875 -0.3125 L 2.46875 -0.3125 C 1.734375 -0.3125 1.71875 -0.421875 1.71875 -0.78125 L 1.71875 -2.3125 C 1.71875 -3.296875 2.140625 -4.1875 2.890625 -4.1875 C 2.953125 -4.1875 2.984375 -4.1875 3 -4.171875 C 2.96875 -4.171875 2.765625 -4.046875 2.765625 -3.78125 C 2.765625 -3.515625 2.984375 -3.359375 3.203125 -3.359375 C 3.375 -3.359375 3.625 -3.484375 3.625 -3.796875 C 3.625 -4.109375 3.3125 -4.40625 2.890625 -4.40625 C 2.15625 -4.40625 1.796875 -3.734375 1.671875 -3.3125 Z M 1.671875 -3.3125 "/>
</symbol>
</g>
<clipPath id="embed--4719795426140691884-clip1">
  <path d="M 7 3 L 11 3 L 11 8.300781 L 7 8.300781 Z M 7 3 "/>
</clipPath>
<clipPath id="embed--4719795426140691884-clip2">
  <path d="M 11 2 L 31.804688 2 L 31.804688 7 L 11 7 Z M 11 2 "/>
</clipPath>
</g>
</defs>
<rect x="-67.0" y="-94.5" width="28" height="14" fill="white" stroke-width="1" stroke="black" />
<rect x="-37.0" y="-94.5" width="28" height="14" fill="white" stroke-width="1" stroke="black" />
<rect x="-7.0" y="-94.5" width="28" height="14" fill="white" stroke-width="1" stroke="black" />
<rect x="23.0" y="-94.5" width="28" height="14" fill="white" stroke-width="1" stroke="black" />
<rect x="53.0" y="-94.5" width="28" height="14" fill="white" stroke-width="1" stroke="black" />
<circle cx="-60.0" cy="-87.5" r="1" fill="black" />
<circle cx="-45.0" cy="-87.5" r="1" fill="black" />
<circle cx="-30.0" cy="-87.5" r="1" fill="black" />
<circle cx="-15.0" cy="-87.5" r="1" fill="black" />
<circle cx="0.0" cy="-87.5" r="1" fill="black" />
<circle cx="15.0" cy="-87.5" r="1" fill="black" />
<circle cx="30.0" cy="-87.5" r="1" fill="black" />
<circle cx="45.0" cy="-87.5" r="1" fill="black" />
<circle cx="60.0" cy="-87.5" r="1" fill="black" />
<circle cx="75.0" cy="-87.5" r="1" fill="black" />
<text x="-60.0" y="-84.0" font-size="7" text-anchor="middle" fill="black" dy="0.5em"></text>
<text x="-45.0" y="-84.0" font-size="7" text-anchor="middle" fill="black" dy="0.5em"></text>
<text x="-30.0" y="-84.0" font-size="7" text-anchor="middle" fill="black" dy="0.5em"></text>
<text x="-15.0" y="-84.0" font-size="7" text-anchor="middle" fill="black" dy="0.5em"></text>
<text x="0.0" y="-84.0" font-size="7" text-anchor="middle" fill="#FD7F28" dy="0.5em"></text>
<text x="15.0" y="-84.0" font-size="7" text-anchor="middle" fill="#FD7F28" dy="0.5em"></text>
<rect x="-67.0" y="-57.5" width="28" height="14" fill="white" stroke-width="1" stroke="black" />
<rect x="-37.0" y="-57.5" width="28" height="14" fill="white" stroke-width="1" stroke="black" />
<rect x="-7.0" y="-57.5" width="28" height="14" fill="white" stroke-width="1" stroke="black" />
<rect x="23.0" y="-57.5" width="28" height="14" fill="white" stroke-width="1" stroke="black" />
<rect x="53.0" y="-57.5" width="28" height="14" fill="white" stroke-width="1" stroke="black" />
<circle cx="-60.0" cy="-50.5" r="1" fill="black" />
<circle cx="-45.0" cy="-50.5" r="1" fill="black" />
<circle cx="-30.0" cy="-50.5" r="1" fill="black" />
<circle cx="-15.0" cy="-50.5" r="1" fill="black" />
<circle cx="0.0" cy="-50.5" r="1" fill="black" />
<circle cx="15.0" cy="-50.5" r="1" fill="black" />
<circle cx="30.0" cy="-50.5" r="1" fill="black" />
<circle cx="45.0" cy="-50.5" r="1" fill="black" />
<circle cx="60.0" cy="-50.5" r="1" fill="black" />
<circle cx="75.0" cy="-50.5" r="1" fill="black" />
<rect x="-37.0" y="-20.5" width="28" height="14" fill="white" stroke-width="1" stroke="black" />
<rect x="-7.0" y="-20.5" width="28" height="14" fill="white" stroke-width="1" stroke="black" />
<rect x="23.0" y="-20.5" width="28" height="14" fill="white" stroke-width="1" stroke="black" />
<rect x="53.0" y="-20.5" width="28" height="14" fill="white" stroke-width="1" stroke="black" />
<circle cx="-30.0" cy="-13.5" r="1" fill="black" />
<circle cx="-15.0" cy="-13.5" r="1" fill="black" />
<circle cx="0.0" cy="-13.5" r="1" fill="black" />
<circle cx="15.0" cy="-13.5" r="1" fill="black" />
<circle cx="30.0" cy="-13.5" r="1" fill="black" />
<circle cx="45.0" cy="-13.5" r="1" fill="black" />
<circle cx="60.0" cy="-13.5" r="1" fill="black" />
<circle cx="75.0" cy="-13.5" r="1" fill="black" />
<rect x="-37.0" y="16.5" width="28" height="14" fill="white" stroke-width="1" stroke="black" />
<rect x="-7.0" y="16.5" width="28" height="14" fill="white" stroke-width="1" stroke="black" />
<rect x="23.0" y="16.5" width="28" height="14" fill="white" stroke-width="1" stroke="black" />
<rect x="53.0" y="16.5" width="28" height="14" fill="white" stroke-width="1" stroke="black" />
<circle cx="-30.0" cy="23.5" r="1" fill="black" />
<circle cx="-15.0" cy="23.5" r="1" fill="black" />
<circle cx="0.0" cy="23.5" r="1" fill="black" />
<circle cx="15.0" cy="23.5" r="1" fill="black" />
<circle cx="30.0" cy="23.5" r="1" fill="black" />
<circle cx="45.0" cy="23.5" r="1" fill="black" />
<circle cx="60.0" cy="23.5" r="1" fill="black" />
<circle cx="75.0" cy="23.5" r="1" fill="black" />
<rect x="-37.0" y="53.5" width="28" height="14" fill="white" stroke-width="1" stroke="black" />
<rect x="-7.0" y="53.5" width="28" height="14" fill="white" stroke-width="1" stroke="black" />
<circle cx="-30.0" cy="60.5" r="1" fill="black" />
<circle cx="-15.0" cy="60.5" r="1" fill="black" />
<circle cx="0.0" cy="60.5" r="1" fill="black" />
<circle cx="15.0" cy="60.5" r="1" fill="black" />
<rect x="-7.0" y="90.5" width="28" height="14" fill="white" stroke-width="1" stroke="black" />
<circle cx="0.0" cy="97.5" r="1" fill="black" />
<circle cx="15.0" cy="97.5" r="1" fill="black" />
<text x="-60.0" y="101.0" font-size="7" text-anchor="middle" fill="black" dy="0.5em"></text>
<text x="-45.0" y="101.0" font-size="7" text-anchor="middle" fill="black" dy="0.5em"></text>
<text x="-30.0" y="101.0" font-size="7" text-anchor="middle" fill="black" dy="0.5em"></text>
<text x="-15.0" y="101.0" font-size="7" text-anchor="middle" fill="black" dy="0.5em"></text>
<text x="0.0" y="101.0" font-size="7" text-anchor="middle" fill="black" dy="0.5em"></text>
<text x="15.0" y="101.0" font-size="7" text-anchor="middle" fill="black" dy="0.5em"></text>
<path d="M-60.0,-80.5 l0,30.0" stroke-width="1" stroke="black" fill="black" fill-opacity="0.5" />
<path d="M-45.0,-80.5 l0.060639441088304935,2.307692307692308 l0.36727059222770153,2.307692307692308 l0.8363071751958697,2.307692307692308 l1.3368552598621575,2.307692307692308 l1.7671084561249475,2.307692307692308 l2.0543479139116547,2.307692307692308 l2.154942323178731,2.3076923076923093 l2.0543479139116503,2.307692307692306 l1.7671084561249444,2.307692307692306 l1.3368552598621675,2.3076923076923093 l0.8363071751958706,2.3076923076923093 l0.3672705922277042,2.307692307692306 l0.060639441088296,2.307692307692306" stroke-width="1" stroke="black" fill="none" />
<path d="M-30.0,-80.5 l-0.060639441088304935,2.307692307692308 l-0.36727059222770153,2.307692307692308 l-0.8363071751958697,2.307692307692308 l-1.3368552598621575,2.307692307692308 l-1.7671084561249475,2.307692307692308 l-2.0543479139116547,2.307692307692308 l-2.154942323178731,2.3076923076923093 l-2.0543479139116503,2.307692307692306 l-1.7671084561249444,2.307692307692306 l-1.3368552598621675,2.3076923076923093 l-0.8363071751958706,2.3076923076923093 l-0.3672705922277042,2.307692307692306 l-0.060639441088296,2.307692307692306" stroke-width="1" stroke="black" fill="none" />
<path d="M-15.0,-80.5 l0,30.0" stroke-width="1" stroke="black" fill="black" fill-opacity="0.5" />
<path d="M0.0,-80.5 l0,30.0" stroke-width="1" stroke="black" fill="black" fill-opacity="0.5" />
<path d="M15.0,-80.5 l0,30.0" stroke-width="1" stroke="black" fill="black" fill-opacity="0.5" />
<path d="M30.0,-80.5 l0,30.0" stroke-width="1" stroke="black" fill="black" fill-opacity="0.5" />
<path d="M45.0,-80.5 l0,30.0" stroke-width="1" stroke="black" fill="black" fill-opacity="0.5" />
<path d="M60.0,-80.5 l0,30.0" stroke-width="1" stroke="black" fill="black" fill-opacity="0.5" />
<path d="M75.0,-80.5 l0,30.0" stroke-width="1" stroke="black" fill="black" fill-opacity="0.5" />
<path d="M-30.0,-43.5 l0,30.0" stroke-width="1" stroke="black" fill="black" fill-opacity="0.5" />
<path d="M-15.0,-43.5 l0,30.0" stroke-width="1" stroke="black" fill="black" fill-opacity="0.5" />
<path d="M0.0,-43.5 l0,30.0" stroke-width="1" stroke="black" fill="black" fill-opacity="0.5" />
<path d="M15.0,-43.5 l0.060639441088304935,2.307692307692308 l0.36727059222770153,2.307692307692308 l0.8363071751958697,2.307692307692308 l1.3368552598621575,2.307692307692308 l1.7671084561249475,2.307692307692308 l2.0543479139116547,2.307692307692308 l2.154942323178731,2.3076923076923093 l2.0543479139116503,2.307692307692306 l1.7671084561249444,2.307692307692306 l1.3368552598621675,2.3076923076923093 l0.8363071751958706,2.3076923076923093 l0.3672705922277042,2.307692307692306 l0.060639441088296,2.307692307692306" stroke-width="1" stroke="black" fill="none" />
<path d="M30.0,-43.5 l-0.060639441088304935,2.307692307692308 l-0.36727059222770153,2.307692307692308 l-0.8363071751958697,2.307692307692308 l-1.3368552598621575,2.307692307692308 l-1.7671084561249475,2.307692307692308 l-2.0543479139116547,2.307692307692308 l-2.154942323178731,2.3076923076923093 l-2.0543479139116503,2.307692307692306 l-1.7671084561249444,2.307692307692306 l-1.3368552598621675,2.3076923076923093 l-0.8363071751958706,2.3076923076923093 l-0.3672705922277042,2.307692307692306 l-0.060639441088296,2.307692307692306" stroke-width="1" stroke="black" fill="none" />
<path d="M45.0,-43.5 l0,30.0" stroke-width="1" stroke="black" fill="black" fill-opacity="0.5" />
<path d="M60.0,-43.5 l0,30.0" stroke-width="1" stroke="black" fill="black" fill-opacity="0.5" />
<path d="M75.0,-43.5 l0,30.0" stroke-width="1" stroke="black" fill="black" fill-opacity="0.5" />
<path d="M-30.0,-6.5 l0,30.0" stroke-width="1" stroke="black" fill="black" fill-opacity="0.5" />
<path d="M-15.0,-6.5 l0,30.0" stroke-width="1" stroke="black" fill="black" fill-opacity="0.5" />
<path d="M0.0,-6.5 l0,30.0" stroke-width="1" stroke="black" fill="black" fill-opacity="0.5" />
<path d="M15.0,-6.5 l0,30.0" stroke-width="1" stroke="black" fill="black" fill-opacity="0.5" />
<path d="M30.0,-6.5 l0,30.0" stroke-width="1" stroke="black" fill="black" fill-opacity="0.5" />
<path d="M45.0,-6.5 l0.060639441088304935,2.307692307692308 l0.36727059222770153,2.307692307692308 l0.8363071751958697,2.307692307692308 l1.3368552598621575,2.307692307692308 l1.7671084561249475,2.307692307692308 l2.0543479139116547,2.307692307692308 l2.154942323178731,2.3076923076923093 l2.0543479139116503,2.307692307692306 l1.7671084561249444,2.307692307692306 l1.3368552598621675,2.3076923076923093 l0.8363071751958706,2.3076923076923093 l0.3672705922277042,2.307692307692306 l0.060639441088296,2.307692307692306" stroke-width="1" stroke="black" fill="none" />
<path d="M60.0,-6.5 l-0.060639441088304935,2.307692307692308 l-0.36727059222770153,2.307692307692308 l-0.8363071751958697,2.307692307692308 l-1.3368552598621575,2.307692307692308 l-1.7671084561249475,2.307692307692308 l-2.0543479139116547,2.307692307692308 l-2.154942323178731,2.3076923076923093 l-2.0543479139116503,2.307692307692306 l-1.7671084561249444,2.307692307692306 l-1.3368552598621675,2.3076923076923093 l-0.8363071751958706,2.3076923076923093 l-0.3672705922277042,2.307692307692306 l-0.060639441088296,2.307692307692306" stroke-width="1" stroke="black" fill="none" />
<path d="M75.0,-6.5 l0,30.0" stroke-width="1" stroke="black" fill="black" fill-opacity="0.5" />
<path d="M-30.0,30.5 l0,30.0" stroke-width="1" stroke="black" fill="black" fill-opacity="0.5" />
<path d="M15.0,30.5 l0,30.0" stroke-width="1" stroke="black" fill="black" fill-opacity="0.5" />
<path d="M-15.0,30.5 l0.060639441088304935,1.153846153846154 l0.36727059222770153,1.153846153846154 l0.8363071751958697,1.153846153846154 l1.3368552598621575,1.153846153846154 l1.7671084561249475,1.153846153846154 l2.0543479139116547,1.153846153846154 l2.154942323178731,1.1538461538461546 l2.0543479139116503,1.153846153846153 l1.7671084561249444,1.153846153846153 l1.3368552598621675,1.1538461538461546 l0.8363071751958706,1.1538461538461546 l0.3672705922277042,1.153846153846153 l0.060639441088296,1.153846153846153" stroke-width="1" stroke="black" fill="none" />
<path d="M0.0,30.5 l-0.060639441088304935,1.153846153846154 l-0.36727059222770153,1.153846153846154 l-0.8363071751958697,1.153846153846154 l-1.3368552598621575,1.153846153846154 l-1.7671084561249475,1.153846153846154 l-2.0543479139116547,1.153846153846154 l-2.154942323178731,1.1538461538461546 l-2.0543479139116503,1.153846153846153 l-1.7671084561249444,1.153846153846153 l-1.3368552598621675,1.1538461538461546 l-0.8363071751958706,1.1538461538461546 l-0.3672705922277042,1.153846153846153 l-0.060639441088296,1.153846153846153" stroke-width="1" stroke="black" fill="none" />
<path d="M-15.0,45.5 l0.060639441088304935,1.153846153846154 l0.36727059222770153,1.153846153846154 l0.8363071751958697,1.153846153846154 l1.3368552598621575,1.153846153846154 l1.7671084561249475,1.153846153846154 l2.0543479139116547,1.153846153846154 l2.154942323178731,1.1538461538461546 l2.0543479139116503,1.153846153846153 l1.7671084561249444,1.153846153846153 l1.3368552598621675,1.1538461538461546 l0.8363071751958706,1.1538461538461546 l0.3672705922277042,1.153846153846153 l0.060639441088296,1.153846153846153" stroke-width="1" stroke="black" fill="none" />
<path d="M0.0,45.5 l-0.060639441088304935,1.153846153846154 l-0.36727059222770153,1.153846153846154 l-0.8363071751958697,1.153846153846154 l-1.3368552598621575,1.153846153846154 l-1.7671084561249475,1.153846153846154 l-2.0543479139116547,1.153846153846154 l-2.154942323178731,1.1538461538461546 l-2.0543479139116503,1.153846153846153 l-1.7671084561249444,1.153846153846153 l-1.3368552598621675,1.1538461538461546 l-0.8363071751958706,1.1538461538461546 l-0.3672705922277042,1.153846153846153 l-0.060639441088296,1.153846153846153" stroke-width="1" stroke="black" fill="none" />
<path d="M0.0,67.5 l0.060639441088304935,1.153846153846154 l0.36727059222770153,1.153846153846154 l0.8363071751958697,1.153846153846154 l1.3368552598621575,1.153846153846154 l1.7671084561249475,1.153846153846154 l2.0543479139116547,1.153846153846154 l2.154942323178731,1.1538461538461546 l2.0543479139116503,1.153846153846153 l1.7671084561249444,1.153846153846153 l1.3368552598621675,1.1538461538461546 l0.8363071751958706,1.1538461538461546 l0.3672705922277042,1.153846153846153 l0.060639441088296,1.153846153846153" stroke-width="1" stroke="black" fill="none" />
<path d="M15.0,67.5 l-0.060639441088304935,1.153846153846154 l-0.36727059222770153,1.153846153846154 l-0.8363071751958697,1.153846153846154 l-1.3368552598621575,1.153846153846154 l-1.7671084561249475,1.153846153846154 l-2.0543479139116547,1.153846153846154 l-2.154942323178731,1.1538461538461546 l-2.0543479139116503,1.153846153846153 l-1.7671084561249444,1.153846153846153 l-1.3368552598621675,1.1538461538461546 l-0.8363071751958706,1.1538461538461546 l-0.3672705922277042,1.153846153846153 l-0.060639441088296,1.153846153846153" stroke-width="1" stroke="black" fill="none" />
<path d="M0.0,82.5 l0.060639441088304935,1.153846153846154 l0.36727059222770153,1.153846153846154 l0.8363071751958697,1.153846153846154 l1.3368552598621575,1.153846153846154 l1.7671084561249475,1.153846153846154 l2.0543479139116547,1.153846153846154 l2.154942323178731,1.1538461538461546 l2.0543479139116503,1.153846153846153 l1.7671084561249444,1.153846153846153 l1.3368552598621675,1.1538461538461546 l0.8363071751958706,1.1538461538461546 l0.3672705922277042,1.153846153846153 l0.060639441088296,1.153846153846153" stroke-width="1" stroke="black" fill="none" />
<path d="M15.0,82.5 l-0.060639441088304935,1.153846153846154 l-0.36727059222770153,1.153846153846154 l-0.8363071751958697,1.153846153846154 l-1.3368552598621575,1.153846153846154 l-1.7671084561249475,1.153846153846154 l-2.0543479139116547,1.153846153846154 l-2.154942323178731,1.1538461538461546 l-2.0543479139116503,1.153846153846153 l-1.7671084561249444,1.153846153846153 l-1.3368552598621675,1.1538461538461546 l-0.8363071751958706,1.1538461538461546 l-0.3672705922277042,1.153846153846153 l-0.060639441088296,1.153846153846153" stroke-width="1" stroke="black" fill="none" />
<g opacity="1.0" transform="translate(-52.5, -101.5) scale(0.7000000000000001) translate(-11.028, -5.2305)">
<g id="embed--3842383016057251561-surface1">
<g style="fill:rgb(0%,0%,0%);fill-opacity:1;">
  <use xlink:href="#embed--3842383016057251561-glyph0-1" x="0" y="7.472"/>
</g>
<g style="fill:rgb(0%,0%,0%);fill-opacity:1;">
  <use xlink:href="#embed--3842383016057251561-glyph1-1" x="2.767" y="7.472"/>
</g>
<g style="fill:rgb(0%,0%,0%);fill-opacity:1;">
  <use xlink:href="#embed--3842383016057251561-glyph2-1" x="7.749" y="8.967"/>
</g>
<g style="fill:rgb(0%,0%,0%);fill-opacity:1;">
  <use xlink:href="#embed--3842383016057251561-glyph0-2" x="13.713" y="7.472"/>
</g>
<g clip-path="url(#embed--3842383016057251561-clip1)" clip-rule="nonzero">
<g style="fill:rgb(0%,0%,0%);fill-opacity:1;">
  <use xlink:href="#embed--3842383016057251561-glyph3-1" x="17.587" y="10.461"/>
</g>
</g>
</g>
</g>
<g opacity="1.0" transform="translate(-22.5, -101.5) scale(0.7000000000000001) translate(-11.028, -5.2305)">
<g id="embed-2631050336543982013-surface1">
<g style="fill:rgb(0%,0%,0%);fill-opacity:1;">
  <use xlink:href="#embed-2631050336543982013-glyph0-1" x="0" y="7.472"/>
</g>
<g style="fill:rgb(0%,0%,0%);fill-opacity:1;">
  <use xlink:href="#embed-2631050336543982013-glyph1-1" x="2.767" y="7.472"/>
</g>
<g style="fill:rgb(0%,0%,0%);fill-opacity:1;">
  <use xlink:href="#embed-2631050336543982013-glyph2-1" x="7.749" y="8.967"/>
</g>
<g style="fill:rgb(0%,0%,0%);fill-opacity:1;">
  <use xlink:href="#embed-2631050336543982013-glyph0-2" x="13.713" y="7.472"/>
</g>
<g clip-path="url(#embed-2631050336543982013-clip1)" clip-rule="nonzero">
<g style="fill:rgb(0%,0%,0%);fill-opacity:1;">
  <use xlink:href="#embed-2631050336543982013-glyph3-1" x="17.587" y="10.461"/>
</g>
</g>
</g>
</g>
<g opacity="1.0" transform="translate(7.5, -101.5) scale(0.7000000000000001) translate(-11.028, -5.2305)">
<g id="embed--535268606635337995-surface1">
<g style="fill:rgb(0%,0%,0%);fill-opacity:1;">
  <use xlink:href="#embed--535268606635337995-glyph0-1" x="0" y="7.472"/>
</g>
<g style="fill:rgb(0%,0%,0%);fill-opacity:1;">
  <use xlink:href="#embed--535268606635337995-glyph1-1" x="2.767" y="7.472"/>
</g>
<g style="fill:rgb(0%,0%,0%);fill-opacity:1;">
  <use xlink:href="#embed--535268606635337995-glyph2-1" x="7.749" y="8.967"/>
</g>
<g style="fill:rgb(0%,0%,0%);fill-opacity:1;">
  <use xlink:href="#embed--535268606635337995-glyph0-2" x="13.713" y="7.472"/>
</g>
<g clip-path="url(#embed--535268606635337995-clip1)" clip-rule="nonzero">
<g style="fill:rgb(0%,0%,0%);fill-opacity:1;">
  <use xlink:href="#embed--535268606635337995-glyph3-1" x="17.587" y="10.461"/>
</g>
</g>
</g>
</g>
<g opacity="1.0" transform="translate(37.5, -101.5) scale(0.7000000000000001) translate(-11.028, -5.2305)">
<g id="embed--3846653907546800476-surface1">
<g style="fill:rgb(0%,0%,0%);fill-opacity:1;">
  <use xlink:href="#embed--3846653907546800476-glyph0-1" x="0" y="7.472"/>
</g>
<g style="fill:rgb(0%,0%,0%);fill-opacity:1;">
  <use xlink:href="#embed--3846653907546800476-glyph1-1" x="2.767" y="7.472"/>
</g>
<g style="fill:rgb(0%,0%,0%);fill-opacity:1;">
  <use xlink:href="#embed--3846653907546800476-glyph2-1" x="7.749" y="8.967"/>
</g>
<g style="fill:rgb(0%,0%,0%);fill-opacity:1;">
  <use xlink:href="#embed--3846653907546800476-glyph0-2" x="13.713" y="7.472"/>
</g>
<g clip-path="url(#embed--3846653907546800476-clip1)" clip-rule="nonzero">
<g style="fill:rgb(0%,0%,0%);fill-opacity:1;">
  <use xlink:href="#embed--3846653907546800476-glyph3-1" x="17.587" y="10.461"/>
</g>
</g>
</g>
</g>
<g opacity="1.0" transform="translate(67.5, -101.5) scale(0.7000000000000001) translate(-8.979, -5.2305)">
<g id="embed--3994517089647106512-surface1">
<g style="fill:rgb(0%,0%,0%);fill-opacity:1;">
  <use xlink:href="#embed--3994517089647106512-glyph0-1" x="0" y="7.472"/>
</g>
<g style="fill:rgb(0%,0%,0%);fill-opacity:1;">
  <use xlink:href="#embed--3994517089647106512-glyph1-1" x="2.767" y="7.472"/>
</g>
<g style="fill:rgb(0%,0%,0%);fill-opacity:1;">
  <use xlink:href="#embed--3994517089647106512-glyph0-2" x="9.614" y="7.472"/>
</g>
<g clip-path="url(#embed--3994517089647106512-clip1)" clip-rule="nonzero">
<g style="fill:rgb(0%,0%,0%);fill-opacity:1;">
  <use xlink:href="#embed--3994517089647106512-glyph2-1" x="13.489" y="10.461"/>
</g>
</g>
</g>
</g>
<g opacity="1.0" transform="translate(7.5, 111.5) scale(0.7000000000000001) translate(-8.979, -5.2305)">
<g id="embed-2192715076076086625-surface1">
<g style="fill:rgb(0%,0%,0%);fill-opacity:1;">
  <use xlink:href="#embed-2192715076076086625-glyph0-1" x="0" y="7.472"/>
</g>
<g style="fill:rgb(0%,0%,0%);fill-opacity:1;">
  <use xlink:href="#embed-2192715076076086625-glyph1-1" x="2.767" y="7.472"/>
</g>
<g style="fill:rgb(0%,0%,0%);fill-opacity:1;">
  <use xlink:href="#embed-2192715076076086625-glyph0-2" x="9.614" y="7.472"/>
</g>
<g clip-path="url(#embed-2192715076076086625-clip1)" clip-rule="nonzero">
<g style="fill:rgb(0%,0%,0%);fill-opacity:1;">
  <use xlink:href="#embed-2192715076076086625-glyph2-1" x="13.489" y="10.461"/>
</g>
</g>
</g>
</g>
<g opacity="1.0" transform="translate(-78.75, -69.0) scale(0.7000000000000001) translate(-16.8745, -5.1805)">
<g id="embed-2086179165456097113-surface1">
<g clip-path="url(#embed-2086179165456097113-clip1)" clip-rule="nonzero">
<g style="fill:rgb(0%,0%,0%);fill-opacity:1;">
  <use xlink:href="#embed-2086179165456097113-glyph0-1" x="0" y="0.797"/>
</g>
</g>
<g clip-path="url(#embed-2086179165456097113-clip2)" clip-rule="nonzero">
<path style="fill:none;stroke-width:0.398;stroke-linecap:butt;stroke-linejoin:miter;stroke:rgb(0%,0%,0%);stroke-opacity:1;stroke-miterlimit:10;" d="M -0.00121875 0.00034375 L 25.444094 0.00034375 " transform="matrix(1,0,0,-1,8.302,0.598)"/>
</g>
<g style="fill:rgb(0%,0%,0%);fill-opacity:1;">
  <use xlink:href="#embed-2086179165456097113-glyph1-1" x="8.302" y="8.485"/>
</g>
<g style="fill:rgb(0%,0%,0%);fill-opacity:1;">
  <use xlink:href="#embed-2086179165456097113-glyph2-1" x="16.556" y="9.979"/>
</g>
<g style="fill:rgb(0%,0%,0%);fill-opacity:1;">
  <use xlink:href="#embed-2086179165456097113-glyph1-1" x="21.025" y="8.485"/>
</g>
<g clip-path="url(#embed-2086179165456097113-clip3)" clip-rule="nonzero">
<g style="fill:rgb(0%,0%,0%);fill-opacity:1;">
  <use xlink:href="#embed-2086179165456097113-glyph2-2" x="29.279" y="9.979"/>
</g>
</g>
</g>
</g>
<g opacity="1.0" transform="translate(-48.75, -32.0) scale(0.7000000000000001) translate(-16.8745, -5.1805)">
<g id="embed--8791179151765489624-surface1">
<g clip-path="url(#embed--8791179151765489624-clip1)" clip-rule="nonzero">
<g style="fill:rgb(0%,0%,0%);fill-opacity:1;">
  <use xlink:href="#embed--8791179151765489624-glyph0-1" x="0" y="0.797"/>
</g>
</g>
<g clip-path="url(#embed--8791179151765489624-clip2)" clip-rule="nonzero">
<path style="fill:none;stroke-width:0.398;stroke-linecap:butt;stroke-linejoin:miter;stroke:rgb(0%,0%,0%);stroke-opacity:1;stroke-miterlimit:10;" d="M -0.00121875 0.00034375 L 25.444094 0.00034375 " transform="matrix(1,0,0,-1,8.302,0.598)"/>
</g>
<g style="fill:rgb(0%,0%,0%);fill-opacity:1;">
  <use xlink:href="#embed--8791179151765489624-glyph1-1" x="8.302" y="8.485"/>
</g>
<g style="fill:rgb(0%,0%,0%);fill-opacity:1;">
  <use xlink:href="#embed--8791179151765489624-glyph2-1" x="16.556" y="9.979"/>
</g>
<g style="fill:rgb(0%,0%,0%);fill-opacity:1;">
  <use xlink:href="#embed--8791179151765489624-glyph1-1" x="21.025" y="8.485"/>
</g>
<g clip-path="url(#embed--8791179151765489624-clip3)" clip-rule="nonzero">
<g style="fill:rgb(0%,0%,0%);fill-opacity:1;">
  <use xlink:href="#embed--8791179151765489624-glyph2-2" x="29.279" y="9.979"/>
</g>
</g>
</g>
</g>
<g opacity="1.0" transform="translate(-48.75, 5.0) scale(0.7000000000000001) translate(-16.8745, -5.1805)">
<g id="embed-1231665619870531764-surface1">
<g clip-path="url(#embed-1231665619870531764-clip1)" clip-rule="nonzero">
<g style="fill:rgb(0%,0%,0%);fill-opacity:1;">
  <use xlink:href="#embed-1231665619870531764-glyph0-1" x="0" y="0.797"/>
</g>
</g>
<g clip-path="url(#embed-1231665619870531764-clip2)" clip-rule="nonzero">
<path style="fill:none;stroke-width:0.398;stroke-linecap:butt;stroke-linejoin:miter;stroke:rgb(0%,0%,0%);stroke-opacity:1;stroke-miterlimit:10;" d="M -0.00121875 0.00034375 L 25.444094 0.00034375 " transform="matrix(1,0,0,-1,8.302,0.598)"/>
</g>
<g style="fill:rgb(0%,0%,0%);fill-opacity:1;">
  <use xlink:href="#embed-1231665619870531764-glyph1-1" x="8.302" y="8.485"/>
</g>
<g style="fill:rgb(0%,0%,0%);fill-opacity:1;">
  <use xlink:href="#embed-1231665619870531764-glyph2-1" x="16.556" y="9.979"/>
</g>
<g style="fill:rgb(0%,0%,0%);fill-opacity:1;">
  <use xlink:href="#embed-1231665619870531764-glyph1-1" x="21.025" y="8.485"/>
</g>
<g style="fill:rgb(0%,0%,0%);fill-opacity:1;">
  <use xlink:href="#embed-1231665619870531764-glyph2-2" x="29.279" y="9.979"/>
</g>
</g>
</g>
<g opacity="1.0" transform="translate(26.25, 42.0) scale(0.7000000000000001) translate(-16.6285, -4.151)">
<g id="embed--4472800939989148419-surface1">
<g style="fill:rgb(0%,0%,0%);fill-opacity:1;">
  <use xlink:href="#embed--4472800939989148419-glyph0-1" x="0" y="6.808"/>
</g>
<g clip-path="url(#embed--4472800939989148419-clip1)" clip-rule="nonzero">
<g style="fill:rgb(0%,0%,0%);fill-opacity:1;">
  <use xlink:href="#embed--4472800939989148419-glyph1-1" x="8.254" y="8.302"/>
</g>
</g>
<g style="fill:rgb(0%,0%,0%);fill-opacity:1;">
  <use xlink:href="#embed--4472800939989148419-glyph2-1" x="12.723" y="6.808"/>
  <use xlink:href="#embed--4472800939989148419-glyph2-2" x="16.043535" y="6.808"/>
  <use xlink:href="#embed--4472800939989148419-glyph2-3" x="20.470914" y="6.808"/>
  <use xlink:href="#embed--4472800939989148419-glyph2-4" x="25.452214" y="6.808"/>
  <use xlink:href="#embed--4472800939989148419-glyph2-4" x="29.354564" y="6.808"/>
</g>
</g>
</g>
<g opacity="1.0" transform="translate(26.25, 79.0) scale(0.7000000000000001) translate(-15.902, -4.151)">
<g id="embed--4719795426140691884-surface1">
<g style="fill:rgb(0%,0%,0%);fill-opacity:1;">
  <use xlink:href="#embed--4719795426140691884-glyph0-1" x="0" y="6.808"/>
</g>
<g clip-path="url(#embed--4719795426140691884-clip1)" clip-rule="nonzero">
<g style="fill:rgb(0%,0%,0%);fill-opacity:1;">
  <use xlink:href="#embed--4719795426140691884-glyph1-1" x="6.801" y="8.302"/>
</g>
</g>
<g clip-path="url(#embed--4719795426140691884-clip2)" clip-rule="nonzero">
<g style="fill:rgb(0%,0%,0%);fill-opacity:1;">
  <use xlink:href="#embed--4719795426140691884-glyph2-1" x="11.27" y="6.808"/>
  <use xlink:href="#embed--4719795426140691884-glyph2-2" x="14.590535" y="6.808"/>
  <use xlink:href="#embed--4719795426140691884-glyph2-3" x="19.017914" y="6.808"/>
  <use xlink:href="#embed--4719795426140691884-glyph2-4" x="23.999214" y="6.808"/>
  <use xlink:href="#embed--4719795426140691884-glyph2-4" x="27.901564" y="6.808"/>
</g>
</g>
</g>
</g>
<text x="-0.5" y="-108.5" font-size="7" text-anchor="middle" fill="black" dy="0em">https://mareknarozniak.com/2021/07/09/topological-teleportation/</text>
</svg>