<svg id="Layer_1" data-name="Layer 1" xmlns="http://www.w3.org/2000/svg" xmlns:xlink="http://www.w3.org/1999/xlink" viewBox="0 0 488.68 390.28"><defs><style>.cls-1,.cls-17,.cls-19,.cls-2,.cls-21,.cls-23,.cls-25,.cls-27,.cls-3,.cls-5,.cls-7{fill:none;}.cls-2,.cls-3{stroke:#2e3191;stroke-width:3px;}.cls-17,.cls-19,.cls-2,.cls-21,.cls-25,.cls-5,.cls-7{stroke-miterlimit:8;}.cls-27,.cls-3{stroke-miterlimit:10;}.cls-24,.cls-4{fill:#fff;}.cls-17,.cls-19,.cls-23,.cls-24,.cls-27,.cls-5,.cls-7{stroke:#000;}.cls-5{stroke-dasharray:3 3;}.cls-6{fill:#93c854;}.cls-8{clip-path:url(#clip-path);}.cls-9{clip-path:url(#clip-path-2);}.cls-10{clip-path:url(#clip-path-3);}.cls-11{clip-path:url(#clip-path-4);}.cls-12{clip-path:url(#clip-path-5);}.cls-13{clip-path:url(#clip-path-6);}.cls-14{clip-path:url(#clip-path-7);}.cls-15{clip-path:url(#clip-path-8);}.cls-16{fill:#767171;}.cls-16,.cls-18,.cls-20,.cls-22{fill-rule:evenodd;}.cls-17{stroke-width:0.96px;}.cls-18{fill:#d8d8d7;}.cls-19{stroke-width:0.48px;}.cls-21{stroke:#ec7d30;stroke-width:4.56px;}.cls-22{fill:#ec7d30;}.cls-24,.cls-27{stroke-linecap:square;}.cls-24{stroke-miterlimit:3;}.cls-25{stroke:#f6921e;stroke-width:2px;stroke-dasharray:5 5;}.cls-26{clip-path:url(#clip-path-9);}.cls-27{stroke-width:1.04px;}.cls-28{clip-path:url(#clip-path-10);}.cls-29{clip-path:url(#clip-path-11);}.cls-30{clip-path:url(#clip-path-12);}.cls-31{clip-path:url(#clip-path-13);}.cls-32{clip-path:url(#clip-path-14);}.cls-33{clip-path:url(#clip-path-15);}.cls-34{clip-path:url(#clip-path-16);}</style><clipPath id="clip-path" transform="translate(-3.6 -4.07)"><polygon class="cls-1" points="46.07 77.95 70.43 77.95 70.43 53.47 46.07 53.47 46.07 77.95 46.07 77.95"/></clipPath><clipPath id="clip-path-2" transform="translate(-3.6 -4.07)"><polygon class="cls-1" points="46.91 31.51 71.39 31.51 71.39 7.03 46.91 7.03 46.91 31.51 46.91 31.51"/></clipPath><clipPath id="clip-path-3" transform="translate(-3.6 -4.07)"><polygon class="cls-1" points="47.39 180.79 73.07 180.79 73.07 156.31 47.39 156.31 47.39 180.79 47.39 180.79"/></clipPath><clipPath id="clip-path-4" transform="translate(-3.6 -4.07)"><polygon class="cls-1" points="46.91 138.31 72.59 138.31 72.59 113.83 46.91 113.83 46.91 138.31 46.91 138.31"/></clipPath><clipPath id="clip-path-5" transform="translate(-3.6 -4.07)"><polygon class="cls-1" points="47.27 282.91 72.95 282.91 72.95 258.43 47.27 258.43 47.27 282.91 47.27 282.91"/></clipPath><clipPath id="clip-path-6" transform="translate(-3.6 -4.07)"><polygon class="cls-1" points="47.99 239.59 73.91 239.59 73.91 214.99 47.99 214.99 47.99 239.59 47.99 239.59"/></clipPath><clipPath id="clip-path-7" transform="translate(-3.6 -4.07)"><polygon class="cls-1" points="47.39 387.31 73.07 387.31 73.07 362.83 47.39 362.83 47.39 387.31 47.39 387.31"/></clipPath><clipPath id="clip-path-8" transform="translate(-3.6 -4.07)"><polygon class="cls-1" points="46.91 346.39 72.59 346.39 72.59 321.91 46.91 321.91 46.91 346.39 46.91 346.39"/></clipPath><clipPath id="clip-path-9" transform="translate(-3.6 -4.07)"><polygon class="cls-1" points="0.13 59.35 33.37 59.35 33.37 24.31 0.13 24.31 0.13 59.35 0.13 59.35"/></clipPath><clipPath id="clip-path-10" transform="translate(-3.6 -4.07)"><polygon class="cls-1" points="1.85 162.51 29.81 162.51 29.81 127.47 1.85 127.47 1.85 162.51 1.85 162.51"/></clipPath><clipPath id="clip-path-11" transform="translate(-3.6 -4.07)"><polygon class="cls-1" points="3.35 269.01 31.31 269.01 31.31 233.97 3.35 233.97 3.35 269.01 3.35 269.01"/></clipPath><clipPath id="clip-path-12" transform="translate(-3.6 -4.07)"><polygon class="cls-1" points="3.85 371.01 31.81 371.01 31.81 335.97 3.85 335.97 3.85 371.01 3.85 371.01"/></clipPath><clipPath id="clip-path-13" transform="translate(-3.6 -4.07)"><polygon class="cls-1" points="463.13 265.35 496.37 265.35 496.37 230.31 463.13 230.31 463.13 265.35 463.13 265.35"/></clipPath><clipPath id="clip-path-14" transform="translate(-3.6 -4.07)"><polygon class="cls-1" points="464.85 371.01 492.81 371.01 492.81 335.97 464.85 335.97 464.85 371.01 464.85 371.01"/></clipPath><clipPath id="clip-path-15" transform="translate(-3.6 -4.07)"><polygon class="cls-1" points="213.85 361.81 236.9 361.81 236.9 341.65 213.85 341.65 213.85 361.81 213.85 361.81"/></clipPath><clipPath id="clip-path-16" transform="translate(-3.6 -4.07)"><polygon class="cls-1" points="346.36 302.31 366.15 302.31 366.15 282.27 346.36 282.27 346.36 302.31 346.36 302.31"/></clipPath></defs><title>topological-teleportation</title><line class="cls-2" x1="319.64" y1="329.14" x2="454.12" y2="329.14"/><path class="cls-3" d="M72.91,229.85c29.82,0,29.82-62.57,59.64-62.57" transform="translate(-3.6 -4.07)"/><polygon class="cls-4" points="101.63 203.37 97.26 195.69 97.53 186.49 101.9 194.17 101.63 203.37"/><path class="cls-3" d="M72.91,166.85c29.82,0,29.82,62.56,59.64,62.56" transform="translate(-3.6 -4.07)"/><path class="cls-3" d="M71.31,125.06c29.82,0,29.82-62.57,59.64-62.57" transform="translate(-3.6 -4.07)"/><polygon class="cls-4" points="100.04 98.58 95.66 90.9 95.94 81.7 100.31 89.38 100.04 98.58"/><path class="cls-3" d="M71.31,62.06c29.82,0,29.82,62.56,59.64,62.56" transform="translate(-3.6 -4.07)"/><line class="cls-2" x1="128.33" y1="225.45" x2="332.83" y2="224.78"/><line class="cls-2" x1="69.14" y1="330.14" x2="203.62" y2="330.14"/><line class="cls-2" x1="69.38" y1="267.46" x2="203.85" y2="267.46"/><line class="cls-2" x1="68.4" y1="16.46" x2="130.83" y2="16.46"/><line class="cls-5" x1="53.63" y1="32.78" x2="53.79" y2="46.28"/><rect class="cls-6" x="38.2" y="0.5" width="30.6" height="30.96" rx="5.1"/><rect class="cls-7" x="38.2" y="0.5" width="30.6" height="30.96" rx="5.1"/><rect class="cls-6" x="38.68" y="44.18" width="30.48" height="30.96" rx="5.08"/><rect class="cls-7" x="38.68" y="44.18" width="30.48" height="30.96" rx="5.08"/><g class="cls-8"><path d="M59.77,65.05v.16a4,4,0,0,1-1.1-.78,4.39,4.39,0,0,1-1-1.49A4.92,4.92,0,0,1,58,58.68a3.85,3.85,0,0,1,1.74-1.59v.18a2.53,2.53,0,0,0-.88.81,3.74,3.74,0,0,0-.51,1.31A7.45,7.45,0,0,0,58.21,61a9.82,9.82,0,0,0,.14,1.7,5.24,5.24,0,0,0,.27,1,3,3,0,0,0,.44.7A3.23,3.23,0,0,0,59.77,65.05Z" transform="translate(-3.6 -4.07)"/><path d="M61,58l1.43-.71h.14v5a2.36,2.36,0,0,0,.05.62.29.29,0,0,0,.17.19,1.39,1.39,0,0,0,.53.07v.17H61.11v-.17a1.42,1.42,0,0,0,.54-.07.35.35,0,0,0,.17-.17,2.34,2.34,0,0,0,0-.64V59.06a6.09,6.09,0,0,0,0-.83.43.43,0,0,0-.12-.21.29.29,0,0,0-.19-.06,1.12,1.12,0,0,0-.45.13Z" transform="translate(-3.6 -4.07)"/><path d="M64.61,57.27v-.18a4,4,0,0,1,1.1.77,4.29,4.29,0,0,1,1,1.5,4.9,4.9,0,0,1-.32,4.25,3.83,3.83,0,0,1-1.74,1.6v-.16a2.66,2.66,0,0,0,.88-.82,3.88,3.88,0,0,0,.52-1.3,8.13,8.13,0,0,0,.16-1.66A9.7,9.7,0,0,0,66,59.58a4.12,4.12,0,0,0-.27-1,4,4,0,0,0-.43-.7A3.55,3.55,0,0,0,64.61,57.27Z" transform="translate(-3.6 -4.07)"/><path d="M56.51,70.5l1.5-.24-.63,2.12a7.1,7.1,0,0,1,1.38-1.82,1,1,0,0,1,.58-.3.31.31,0,0,1,.22.08.33.33,0,0,1,.08.25,1.18,1.18,0,0,1-.14.55.33.33,0,0,1-.3.2.24.24,0,0,1-.18-.07.34.34,0,0,1-.08-.2.23.23,0,0,0,0-.11.14.14,0,0,0-.09,0,.31.31,0,0,0-.13,0,1.69,1.69,0,0,0-.35.34,10.29,10.29,0,0,0-.78,1.11,3,3,0,0,0-.31.65q-.18.5-.21.6l-.14.55h-.66L57,71.5a2.92,2.92,0,0,0,.14-.67.14.14,0,0,0-.07-.13.32.32,0,0,0-.23-.07,2,2,0,0,0-.33,0Z" transform="translate(-3.6 -4.07)"/><path d="M49.3,73.31a18.15,18.15,0,0,0,1.18-4.4,16.46,16.46,0,0,0-.59-6.15h1.52a15.69,15.69,0,0,1,.33,5.83h.06a18.87,18.87,0,0,0,3.51-5.31c.08-.23.12-.38.16-.52h1.28a3.31,3.31,0,0,1-.12.51C56,65.18,54,67.66,51.82,69.84a.72.72,0,0,0-.22.37c-.25.88-.63,2-1,3.1Z" transform="translate(-3.6 -4.07)"/></g><g class="cls-9"><path d="M60.68,18.61v.16a4,4,0,0,1-1.1-.78,4.42,4.42,0,0,1-1-1.49,4.75,4.75,0,0,1-.34-1.79,4.64,4.64,0,0,1,.67-2.46,3.77,3.77,0,0,1,1.74-1.6v.18a2.47,2.47,0,0,0-.88.82,3.88,3.88,0,0,0-.52,1.3,8.1,8.1,0,0,0-.17,1.65,8.89,8.89,0,0,0,.15,1.7,4.26,4.26,0,0,0,.27,1A3.48,3.48,0,0,0,60,18,3.84,3.84,0,0,0,60.68,18.61Z" transform="translate(-3.6 -4.07)"/><path d="M61.93,11.52l1.44-.7h.14v5a2.5,2.5,0,0,0,0,.62.31.31,0,0,0,.18.19,1.33,1.33,0,0,0,.53.08v.16H62V16.7a1.36,1.36,0,0,0,.54-.08.31.31,0,0,0,.17-.17,2.34,2.34,0,0,0,0-.64V12.62a4.74,4.74,0,0,0,0-.83.35.35,0,0,0-.11-.2.29.29,0,0,0-.2-.07,1.17,1.17,0,0,0-.45.14Z" transform="translate(-3.6 -4.07)"/><path d="M65.55,10.83v-.18a4.21,4.21,0,0,1,1.1.77,4.56,4.56,0,0,1,1,1.5A4.75,4.75,0,0,1,68,14.71a4.64,4.64,0,0,1-.67,2.46,3.77,3.77,0,0,1-1.74,1.6v-.16a2.47,2.47,0,0,0,.88-.82,3.61,3.61,0,0,0,.52-1.3,8.1,8.1,0,0,0,.17-1.65,8.89,8.89,0,0,0-.15-1.7,4.26,4.26,0,0,0-.27-1,3.16,3.16,0,0,0-.43-.69A3.55,3.55,0,0,0,65.55,10.83Z" transform="translate(-3.6 -4.07)"/><path d="M50.1,26.82a18.1,18.1,0,0,0,1.19-4.39,16.43,16.43,0,0,0-.6-6.15h1.53a15.44,15.44,0,0,1,.33,5.82h.07a18.94,18.94,0,0,0,3.53-5.3c.07-.23.11-.38.16-.52h1.28a2.55,2.55,0,0,1-.13.51c-.63,1.91-2.67,4.39-4.83,6.57a.8.8,0,0,0-.22.37c-.24.88-.63,2-1,3.09Z" transform="translate(-3.6 -4.07)"/><path d="M60,23.92a8,8,0,0,1-.44.76,5.85,5.85,0,0,1-.54.69c-.19.22-.4.44-.63.67,0,.21-.05.42-.06.62a2.79,2.79,0,0,0,0,.53.83.83,0,0,0,.17.38.39.39,0,0,0,.32.14.94.94,0,0,0,.3-.05,1,1,0,0,0,.25-.13,1.43,1.43,0,0,0,.23-.2c.07-.07.15-.14.23-.23s.07,0,.13,0,0,.1,0,.12a2.18,2.18,0,0,1-.52.5,1.07,1.07,0,0,1-.64.17.53.53,0,0,1-.43-.21,1.53,1.53,0,0,1-.28-.46,2.62,2.62,0,0,1-.15-.48c0-.16-.05-.25-.05-.28l-.17.15-.15.15-.18.17-.24.2h0s0,0-.09,0,0-.11,0-.12.26-.22.4-.36.28-.26.42-.37a5.35,5.35,0,0,1,.06-.79c0-.26.07-.51.11-.74a4.87,4.87,0,0,1,.29-1,9.12,9.12,0,0,1,.49-1A4.26,4.26,0,0,1,59.4,22a.72.72,0,0,1,.49-.31.42.42,0,0,1,.38.17.87.87,0,0,1,.14.39,2.13,2.13,0,0,1,0,.44c0,.14,0,.24-.07.3A7.66,7.66,0,0,1,60,23.92Zm.22-1.19a2.31,2.31,0,0,0,0-.37.79.79,0,0,0-.07-.32.24.24,0,0,0-.23-.14q-.15,0-.33.3a6,6,0,0,0-.38.76c-.12.29-.24.61-.35,1a9.52,9.52,0,0,0-.28.94c0,.14-.07.29-.1.45s-.07.32-.1.49c.23-.25.44-.5.62-.74a5.83,5.83,0,0,0,.48-.7,7.73,7.73,0,0,0,.37-.69,6.5,6.5,0,0,0,.28-.68A1.46,1.46,0,0,0,60.18,22.73Z" transform="translate(-3.6 -4.07)"/></g><rect class="cls-6" x="38.2" y="104.66" width="30.6" height="30.96" rx="5.1"/><rect class="cls-7" x="38.2" y="104.66" width="30.6" height="30.96" rx="5.1"/><rect class="cls-6" x="38.68" y="148.22" width="30.48" height="30.96" rx="5.08"/><rect class="cls-7" x="38.68" y="148.22" width="30.48" height="30.96" rx="5.08"/><rect class="cls-6" x="38.2" y="208.94" width="30.6" height="30.96" rx="5.1"/><rect class="cls-7" x="38.2" y="208.94" width="30.6" height="30.96" rx="5.1"/><rect class="cls-6" x="38.68" y="252.62" width="30.48" height="30.96" rx="5.08"/><rect class="cls-7" x="38.68" y="252.62" width="30.48" height="30.96" rx="5.08"/><rect class="cls-6" x="38.2" y="313.34" width="30.6" height="30.96" rx="5.1"/><rect class="cls-7" x="38.2" y="313.34" width="30.6" height="30.96" rx="5.1"/><rect class="cls-6" x="38.68" y="356.9" width="30.48" height="30.96" rx="5.08"/><rect class="cls-7" x="38.68" y="356.9" width="30.48" height="30.96" rx="5.08"/><g class="cls-10"><path d="M61.11,167.88V168a4.21,4.21,0,0,1-1.1-.77,4.46,4.46,0,0,1-1-1.5,4.89,4.89,0,0,1-.33-1.78,4.76,4.76,0,0,1,.66-2.47,3.8,3.8,0,0,1,1.74-1.59v.18a2.53,2.53,0,0,0-.88.81,3.85,3.85,0,0,0-.52,1.31,8,8,0,0,0-.17,1.65,8.78,8.78,0,0,0,.15,1.69,4.66,4.66,0,0,0,.27,1,2.92,2.92,0,0,0,.44.7A3.21,3.21,0,0,0,61.11,167.88Z" transform="translate(-3.6 -4.07)"/><path d="M66.19,165l-.41,1.14H62.3V166a15.86,15.86,0,0,0,2.16-2.3,2.87,2.87,0,0,0,.63-1.62,1.29,1.29,0,0,0-.35-.93,1.08,1.08,0,0,0-.82-.36,1.27,1.27,0,0,0-.78.25,1.48,1.48,0,0,0-.51.75h-.16a2,2,0,0,1,.56-1.24,1.54,1.54,0,0,1,1.12-.43,1.69,1.69,0,0,1,1.2.46,1.48,1.48,0,0,1,.48,1.09,2.11,2.11,0,0,1-.21.9,5.74,5.74,0,0,1-1,1.5c-.72.79-1.17,1.27-1.35,1.43h1.54a4.68,4.68,0,0,0,.65,0,1.07,1.07,0,0,0,.35-.14A1,1,0,0,0,66,165Z" transform="translate(-3.6 -4.07)"/><path d="M67.4,160.11v-.18a3.79,3.79,0,0,1,1.1.77,4.42,4.42,0,0,1,1,1.49A4.94,4.94,0,0,1,69.8,164a4.78,4.78,0,0,1-.66,2.47A3.8,3.8,0,0,1,67.4,168v-.16a2.53,2.53,0,0,0,.88-.81,3.49,3.49,0,0,0,.52-1.31,8.1,8.1,0,0,0,.17-1.65,8.89,8.89,0,0,0-.15-1.7,4,4,0,0,0-.27-1,3.22,3.22,0,0,0-.43-.7A3.27,3.27,0,0,0,67.4,160.11Z" transform="translate(-3.6 -4.07)"/><path d="M57.84,173.34l1.51-.24-.63,2.12a7.37,7.37,0,0,1,1.38-1.83,1,1,0,0,1,.58-.29.27.27,0,0,1,.22.08.33.33,0,0,1,.09.25,1.11,1.11,0,0,1-.15.55.32.32,0,0,1-.3.19.24.24,0,0,1-.17-.06.31.31,0,0,1-.09-.2.19.19,0,0,0,0-.11.11.11,0,0,0-.09,0,.2.2,0,0,0-.13,0,1.45,1.45,0,0,0-.35.34,8.61,8.61,0,0,0-.78,1.11,3,3,0,0,0-.31.65,4.37,4.37,0,0,0-.21.6l-.14.55h-.67l.81-2.72a2.82,2.82,0,0,0,.14-.67.19.19,0,0,0-.07-.13.39.39,0,0,0-.23-.07l-.33,0Z" transform="translate(-3.6 -4.07)"/><path d="M50.61,176.14a18.15,18.15,0,0,0,1.18-4.4,16.46,16.46,0,0,0-.59-6.15h1.53a15.91,15.91,0,0,1,.33,5.83h.06a19,19,0,0,0,3.52-5.31c.07-.23.11-.38.15-.52h1.28a2.45,2.45,0,0,1-.12.51c-.64,1.92-2.66,4.39-4.82,6.57a.74.74,0,0,0-.21.37c-.25.88-.64,2-1,3.1Z" transform="translate(-3.6 -4.07)"/></g><g class="cls-11"><path d="M60.63,125.4v.17a4.17,4.17,0,0,1-1.1-.78,4.39,4.39,0,0,1-1-1.49,4.92,4.92,0,0,1,.32-4.26,3.9,3.9,0,0,1,1.74-1.59v.18a2.53,2.53,0,0,0-.88.81,3.74,3.74,0,0,0-.51,1.31,7.45,7.45,0,0,0-.17,1.65,9.82,9.82,0,0,0,.14,1.7,4.49,4.49,0,0,0,.28,1,2.7,2.7,0,0,0,.43.7A3.19,3.19,0,0,0,60.63,125.4Z" transform="translate(-3.6 -4.07)"/><path d="M65.72,122.52l-.42,1.13H61.82v-.16A14.82,14.82,0,0,0,64,121.2a2.92,2.92,0,0,0,.63-1.63,1.3,1.3,0,0,0-.34-.93,1.11,1.11,0,0,0-.82-.36,1.28,1.28,0,0,0-.78.26,1.44,1.44,0,0,0-.52.75H62a2.05,2.05,0,0,1,.56-1.24,1.57,1.57,0,0,1,1.13-.44,1.65,1.65,0,0,1,1.19.47,1.47,1.47,0,0,1,.48,1.09,2.1,2.1,0,0,1-.2.9,6,6,0,0,1-1.05,1.49c-.72.8-1.17,1.27-1.35,1.44h1.54a4.54,4.54,0,0,0,.66,0,.85.85,0,0,0,.34-.14,1,1,0,0,0,.27-.3Z" transform="translate(-3.6 -4.07)"/><path d="M66.93,117.63v-.18a4.14,4.14,0,0,1,1.1.77,4.59,4.59,0,0,1,1,1.5,4.9,4.9,0,0,1,.34,1.78,4.65,4.65,0,0,1-.67,2.47,3.85,3.85,0,0,1-1.73,1.6v-.17a2.62,2.62,0,0,0,.88-.81,3.68,3.68,0,0,0,.51-1.3,8.12,8.12,0,0,0,.17-1.66,9.7,9.7,0,0,0-.14-1.69,4.43,4.43,0,0,0-.28-1,3.48,3.48,0,0,0-.43-.7A3.76,3.76,0,0,0,66.93,117.63Z" transform="translate(-3.6 -4.07)"/><path d="M50.13,133.66a18.54,18.54,0,0,0,1.18-4.39,16.71,16.71,0,0,0-.59-6.16h1.52a15.71,15.71,0,0,1,.33,5.83h.06a18.49,18.49,0,0,0,3.52-5.3c.08-.23.12-.39.16-.53h1.28a3.06,3.06,0,0,1-.12.51c-.64,1.92-2.66,4.4-4.82,6.58a.72.72,0,0,0-.22.37c-.24.88-.63,2-1,3.09Z" transform="translate(-3.6 -4.07)"/><path d="M59.91,130.72a5.59,5.59,0,0,1-.44.76,7,7,0,0,1-.53.69c-.19.22-.41.45-.64.67a4.69,4.69,0,0,0,0,.62,1.86,1.86,0,0,0,0,.54.9.9,0,0,0,.16.37.39.39,0,0,0,.32.15,1,1,0,0,0,.31-.05,1.23,1.23,0,0,0,.25-.14,1.86,1.86,0,0,0,.22-.19l.23-.23a.1.1,0,0,1,.13,0s0,.09,0,.11a2.24,2.24,0,0,1-.52.51,1.15,1.15,0,0,1-.64.17.54.54,0,0,1-.43-.21,2,2,0,0,1-.28-.46,3.32,3.32,0,0,1-.14-.49c0-.15-.05-.25-.06-.28l-.16.16-.16.14-.17.17-.24.21h0s0,0-.09,0,0-.11,0-.13l.4-.35a4.64,4.64,0,0,1,.42-.37,6.84,6.84,0,0,1,0-.79c0-.27.07-.52.11-.74a5.84,5.84,0,0,1,.3-1,6.86,6.86,0,0,1,.48-1,4.93,4.93,0,0,1,.55-.77.74.74,0,0,1,.49-.3.4.4,0,0,1,.38.17.82.82,0,0,1,.13.39,1.54,1.54,0,0,1,0,.43c0,.14-.05.24-.07.3A7.66,7.66,0,0,1,59.91,130.72Zm.22-1.19a2.19,2.19,0,0,0,0-.36.84.84,0,0,0-.07-.33.24.24,0,0,0-.23-.13c-.1,0-.2.1-.33.3a5.24,5.24,0,0,0-.37.75q-.19.45-.36,1c-.11.34-.2.66-.28.94s-.07.29-.1.45l-.09.49c.23-.25.44-.49.62-.73a5.8,5.8,0,0,0,.47-.71c.14-.23.26-.46.37-.68s.2-.46.28-.68A1.91,1.91,0,0,0,60.13,129.53Z" transform="translate(-3.6 -4.07)"/></g><g class="cls-12"><path d="M61,270v.16a4.17,4.17,0,0,1-1.1-.78,4.39,4.39,0,0,1-1-1.49,4.9,4.9,0,0,1,.32-4.25A3.87,3.87,0,0,1,61,262v.18a2.47,2.47,0,0,0-.88.82,3.68,3.68,0,0,0-.51,1.3,7.45,7.45,0,0,0-.17,1.65,9.82,9.82,0,0,0,.14,1.7,4.79,4.79,0,0,0,.28,1,3.08,3.08,0,0,0,.43.7A3.76,3.76,0,0,0,61,270Z" transform="translate(-3.6 -4.07)"/><path d="M62.32,263.46a2.43,2.43,0,0,1,.64-.93,1.44,1.44,0,0,1,1-.32,1.3,1.3,0,0,1,1.08.46,1.15,1.15,0,0,1,.29.74,1.86,1.86,0,0,1-.81,1.33,1.81,1.81,0,0,1,.82.61,1.58,1.58,0,0,1,.28.94,2,2,0,0,1-.49,1.33,2.28,2.28,0,0,1-1.84.73,1.56,1.56,0,0,1-.81-.15.39.39,0,0,1-.21-.31.3.3,0,0,1,.1-.23.37.37,0,0,1,.25-.09l.22,0,.33.16a2,2,0,0,0,.36.16,1.09,1.09,0,0,0,1.12-.29,1.14,1.14,0,0,0,.33-.82,1.59,1.59,0,0,0-.15-.67,1.25,1.25,0,0,0-.25-.37,1.93,1.93,0,0,0-.52-.32,1.7,1.7,0,0,0-.66-.14h-.14v-.13a1.75,1.75,0,0,0,.69-.25,1.31,1.31,0,0,0,.5-.49,1.24,1.24,0,0,0,.16-.64,1,1,0,0,0-.28-.72.94.94,0,0,0-.7-.28,1.31,1.31,0,0,0-1.13.73Z" transform="translate(-3.6 -4.07)"/><path d="M66.72,262.22V262a4.38,4.38,0,0,1,1.1.77,4.7,4.7,0,0,1,1,1.5,5,5,0,0,1,.34,1.79,4.64,4.64,0,0,1-.67,2.46,3.8,3.8,0,0,1-1.73,1.6V270a2.55,2.55,0,0,0,.88-.82,3.61,3.61,0,0,0,.51-1.3,8.1,8.1,0,0,0,.17-1.65,8.89,8.89,0,0,0-.15-1.7,4,4,0,0,0-.27-1,3,3,0,0,0-.43-.7A3.48,3.48,0,0,0,66.72,262.22Z" transform="translate(-3.6 -4.07)"/><path d="M57.73,275.46l1.5-.24-.63,2.12A7.1,7.1,0,0,1,60,275.52a1,1,0,0,1,.58-.3.32.32,0,0,1,.23.09.33.33,0,0,1,.08.24,1.08,1.08,0,0,1-.15.55.33.33,0,0,1-.3.2.22.22,0,0,1-.17-.07.29.29,0,0,1-.09-.2.23.23,0,0,0,0-.11.11.11,0,0,0-.08,0,.32.32,0,0,0-.14,0,1.69,1.69,0,0,0-.35.34,10.29,10.29,0,0,0-.78,1.11,3.56,3.56,0,0,0-.31.65q-.18.5-.21.6l-.14.55h-.67l.81-2.71a2.92,2.92,0,0,0,.14-.67.15.15,0,0,0-.07-.13.32.32,0,0,0-.23-.07,2,2,0,0,0-.33,0Z" transform="translate(-3.6 -4.07)"/><path d="M50.48,278.26a18,18,0,0,0,1.18-4.39,16.46,16.46,0,0,0-.59-6.15H52.6a15.69,15.69,0,0,1,.33,5.83H53a18.76,18.76,0,0,0,3.52-5.31c.07-.23.11-.38.16-.52h1.27a2.45,2.45,0,0,1-.12.51c-.64,1.92-2.66,4.39-4.82,6.57a.7.7,0,0,0-.21.37c-.25.88-.64,2-1,3.09Z" transform="translate(-3.6 -4.07)"/></g><g class="cls-13"><path d="M61.84,226.62v.16a3.92,3.92,0,0,1-1.11-.78,4.59,4.59,0,0,1-1-1.5,5,5,0,0,1-.34-1.8,4.83,4.83,0,0,1,.67-2.48,3.92,3.92,0,0,1,1.76-1.6v.18a2.59,2.59,0,0,0-.89.82,3.74,3.74,0,0,0-.52,1.31,8.12,8.12,0,0,0-.17,1.66,9.94,9.94,0,0,0,.14,1.71,4.79,4.79,0,0,0,.28,1,3.27,3.27,0,0,0,1.16,1.35Z" transform="translate(-3.6 -4.07)"/><path d="M63.18,220a2.43,2.43,0,0,1,.64-.93,1.49,1.49,0,0,1,1-.32,1.34,1.34,0,0,1,1.1.46,1.15,1.15,0,0,1,.29.74,1.91,1.91,0,0,1-.82,1.35,1.71,1.71,0,0,1,.83.61,1.58,1.58,0,0,1,.28.94,2,2,0,0,1-.49,1.34,2.34,2.34,0,0,1-1.86.73,1.58,1.58,0,0,1-.82-.15.42.42,0,0,1-.22-.32.29.29,0,0,1,.11-.22.37.37,0,0,1,.25-.1.6.6,0,0,1,.22,0,2.51,2.51,0,0,1,.34.16,1.71,1.71,0,0,0,.36.16,1.09,1.09,0,0,0,1.13-.3,1.14,1.14,0,0,0,.33-.82,1.59,1.59,0,0,0-.15-.67,1.25,1.25,0,0,0-.25-.37,1.71,1.71,0,0,0-.52-.32,1.61,1.61,0,0,0-.67-.14h-.14v-.14a1.61,1.61,0,0,0,.69-.25,1.34,1.34,0,0,0,.51-.49,1.38,1.38,0,0,0,.16-.64,1,1,0,0,0-.29-.73,1,1,0,0,0-.7-.28,1.36,1.36,0,0,0-1.14.73Z" transform="translate(-3.6 -4.07)"/><path d="M67.62,218.8v-.18a4.22,4.22,0,0,1,1.11.78,4.36,4.36,0,0,1,1,1.5,4.93,4.93,0,0,1-.33,4.28,3.9,3.9,0,0,1-1.75,1.6v-.16a2.66,2.66,0,0,0,.88-.82,3.56,3.56,0,0,0,.52-1.31,7.54,7.54,0,0,0,.17-1.66,9.94,9.94,0,0,0-.14-1.71,4.6,4.6,0,0,0-.28-1,3.22,3.22,0,0,0-.43-.7A3.84,3.84,0,0,0,67.62,218.8Z" transform="translate(-3.6 -4.07)"/><path d="M51.2,234.88a18.25,18.25,0,0,0,1.19-4.41,16.39,16.39,0,0,0-.6-6.18h1.54a15.61,15.61,0,0,1,.34,5.86h.06a18.94,18.94,0,0,0,3.55-5.33c.08-.24.11-.39.16-.53h1.29a2.39,2.39,0,0,1-.13.51c-.64,1.93-2.68,4.41-4.86,6.6a.76.76,0,0,0-.21.38c-.25.88-.64,2.05-1,3.1Z" transform="translate(-3.6 -4.07)"/><path d="M61.11,232a6.41,6.41,0,0,1-.44.77q-.26.36-.54.69c-.19.22-.41.45-.64.67q0,.33-.06.63a2.79,2.79,0,0,0,0,.53,1,1,0,0,0,.17.38.42.42,0,0,0,.32.14.75.75,0,0,0,.31-.05.85.85,0,0,0,.25-.13l.23-.19.23-.24s.07,0,.13,0,0,.1,0,.12a2.24,2.24,0,0,1-.52.51,1.18,1.18,0,0,1-.65.16.55.55,0,0,1-.43-.2,1.72,1.72,0,0,1-.28-.47,2.48,2.48,0,0,1-.15-.49c0-.15-.05-.24-.05-.27l-.17.15-.16.15-.18.16-.23.21h0s0,0-.09,0,0-.11,0-.13l.4-.35a4.64,4.64,0,0,1,.42-.37,5.39,5.39,0,0,1,.06-.8c0-.27.07-.51.11-.74a4.41,4.41,0,0,1,.3-1,7.56,7.56,0,0,1,.48-1,4.93,4.93,0,0,1,.55-.77.8.8,0,0,1,.5-.31.42.42,0,0,1,.38.17.91.91,0,0,1,.14.4,1.61,1.61,0,0,1,0,.44c0,.14,0,.24-.07.3A5.28,5.28,0,0,1,61.11,232Zm.22-1.2a1.46,1.46,0,0,0,0-.36.84.84,0,0,0-.07-.33.23.23,0,0,0-.23-.14c-.1,0-.21.11-.33.31a5.19,5.19,0,0,0-.38.75c-.13.3-.25.63-.36,1s-.21.66-.28.95c0,.13-.07.28-.1.45s-.07.32-.1.49a8,8,0,0,0,.63-.74,7.39,7.39,0,0,0,.48-.71,7.73,7.73,0,0,0,.37-.69c.11-.23.2-.45.29-.68C61.29,231,61.31,230.89,61.33,230.76Z" transform="translate(-3.6 -4.07)"/></g><g class="cls-14"><path d="M61.11,374.4v.17a4.23,4.23,0,0,1-1.1-.78,4.42,4.42,0,0,1-1-1.49,5,5,0,0,1-.33-1.79,4.78,4.78,0,0,1,.66-2.47,3.8,3.8,0,0,1,1.74-1.59v.18a2.53,2.53,0,0,0-.88.81,3.94,3.94,0,0,0-.52,1.31,8,8,0,0,0-.17,1.65,8.89,8.89,0,0,0,.15,1.7,4.55,4.55,0,0,0,.27,1,2.74,2.74,0,0,0,.44.7A3,3,0,0,0,61.11,374.4Z" transform="translate(-3.6 -4.07)"/><path d="M66.25,370.47v.62h-.79v1.56h-.72v-1.56H62.25v-.56L65,366.61h.48v3.86Zm-1.51,0v-2.93l-2.07,2.93Z" transform="translate(-3.6 -4.07)"/><path d="M67.4,366.63v-.18a4,4,0,0,1,1.1.77,4.46,4.46,0,0,1,1,1.5,4.89,4.89,0,0,1,.33,1.78,4.76,4.76,0,0,1-.66,2.47,3.83,3.83,0,0,1-1.74,1.6v-.17a2.53,2.53,0,0,0,.88-.81,3.51,3.51,0,0,0,.52-1.3,8.12,8.12,0,0,0,.17-1.66,8.78,8.78,0,0,0-.15-1.69,4,4,0,0,0-.27-1,3.48,3.48,0,0,0-.43-.7A3.27,3.27,0,0,0,67.4,366.63Z" transform="translate(-3.6 -4.07)"/><path d="M57.84,379.86l1.51-.25-.63,2.12a7.1,7.1,0,0,1,1.38-1.82,1,1,0,0,1,.58-.3.28.28,0,0,1,.22.09.3.3,0,0,1,.09.24,1.08,1.08,0,0,1-.15.55.33.33,0,0,1-.3.2.21.21,0,0,1-.17-.07.29.29,0,0,1-.09-.2.23.23,0,0,0,0-.11.14.14,0,0,0-.09,0,.28.28,0,0,0-.13,0,1.69,1.69,0,0,0-.35.34,10.29,10.29,0,0,0-.78,1.11,3,3,0,0,0-.31.65,4.37,4.37,0,0,0-.21.6l-.14.55h-.67l.81-2.71a2.92,2.92,0,0,0,.14-.67.17.17,0,0,0-.07-.13.33.33,0,0,0-.23-.07,2,2,0,0,0-.33,0Z" transform="translate(-3.6 -4.07)"/><path d="M50.61,382.66a18.15,18.15,0,0,0,1.18-4.4,16.46,16.46,0,0,0-.59-6.15h1.52a15.48,15.48,0,0,1,.33,5.83h.06a18.55,18.55,0,0,0,3.52-5.31c.08-.23.12-.38.16-.52h1.28a2.45,2.45,0,0,1-.12.51c-.64,1.92-2.66,4.39-4.82,6.57a.85.85,0,0,0-.22.37c-.24.89-.63,2-1,3.1Z" transform="translate(-3.6 -4.07)"/></g><g class="cls-15"><path d="M60.63,333.48v.16a4,4,0,0,1-2.06-2.26,4.92,4.92,0,0,1,.32-4.26,3.9,3.9,0,0,1,1.74-1.59v.18a2.53,2.53,0,0,0-.88.81,3.66,3.66,0,0,0-.51,1.31,7.33,7.33,0,0,0-.17,1.65,9.62,9.62,0,0,0,.14,1.69,4.43,4.43,0,0,0,.28,1,2.87,2.87,0,0,0,.43.7A3.19,3.19,0,0,0,60.63,333.48Z" transform="translate(-3.6 -4.07)"/><path d="M65.78,329.55v.62H65v1.56h-.72v-1.56h-2.5v-.56l2.74-3.92H65v3.86Zm-1.51,0v-2.94l-2.07,2.94Z" transform="translate(-3.6 -4.07)"/><path d="M66.93,325.71v-.18a3.93,3.93,0,0,1,1.1.77,4.55,4.55,0,0,1,1,1.49,5,5,0,0,1,.34,1.79,4.67,4.67,0,0,1-.67,2.47,3.83,3.83,0,0,1-1.73,1.59v-.16a2.62,2.62,0,0,0,.88-.81,3.66,3.66,0,0,0,.51-1.31,8,8,0,0,0,.17-1.65,9.91,9.91,0,0,0-.14-1.7,4.49,4.49,0,0,0-.28-1,3.11,3.11,0,0,0-1.14-1.34Z" transform="translate(-3.6 -4.07)"/><path d="M50.13,341.75a18.15,18.15,0,0,0,1.18-4.4,16.46,16.46,0,0,0-.59-6.15h1.52a15.48,15.48,0,0,1,.33,5.83h.06a18.55,18.55,0,0,0,3.52-5.31c.08-.23.12-.38.16-.52h1.28a2.45,2.45,0,0,1-.12.51c-.64,1.92-2.66,4.39-4.82,6.57a.85.85,0,0,0-.22.37c-.24.88-.63,2-1,3.1Z" transform="translate(-3.6 -4.07)"/><path d="M59.91,338.8a6.28,6.28,0,0,1-.44.76,7,7,0,0,1-.53.69c-.19.22-.41.45-.64.67a4.56,4.56,0,0,0,0,.62,1.76,1.76,0,0,0,0,.53,1,1,0,0,0,.16.38.42.42,0,0,0,.32.14.75.75,0,0,0,.31,0,.85.85,0,0,0,.25-.13l.22-.19.23-.23a.1.1,0,0,1,.13,0s0,.09,0,.11a2.24,2.24,0,0,1-.52.51,1.15,1.15,0,0,1-.64.16.57.57,0,0,1-.43-.2,2,2,0,0,1-.28-.46,3.71,3.71,0,0,1-.14-.49c0-.15-.05-.25-.06-.28a1.1,1.1,0,0,1-.16.15l-.16.15-.17.17-.24.2h0s0,0-.09,0,0-.1,0-.12l.4-.36.42-.37a7.13,7.13,0,0,1,0-.79c0-.26.07-.51.11-.73a5.57,5.57,0,0,1,.3-1,6.86,6.86,0,0,1,.48-1,4.5,4.5,0,0,1,.55-.77.76.76,0,0,1,.49-.31.42.42,0,0,1,.38.17.9.9,0,0,1,.13.4,1.54,1.54,0,0,1,0,.43c0,.14-.05.24-.07.3A7.66,7.66,0,0,1,59.91,338.8Zm.22-1.19a2.22,2.22,0,0,0,0-.37.79.79,0,0,0-.07-.32.24.24,0,0,0-.23-.14c-.1,0-.2.1-.33.31a5.24,5.24,0,0,0-.37.75q-.19.45-.36,1c-.11.34-.2.66-.28.94s-.07.29-.1.45l-.09.49c.23-.25.44-.49.62-.73a6.68,6.68,0,0,0,.47-.71,7.73,7.73,0,0,0,.37-.69,5.72,5.72,0,0,0,.28-.68A1.46,1.46,0,0,0,60.13,337.61Z" transform="translate(-3.6 -4.07)"/></g><polygon class="cls-16" points="127.76 13.28 177.08 13.28 177.08 60.44 127.76 60.44 127.76 13.28 127.76 13.28"/><polygon class="cls-17" points="127.76 13.28 177.08 13.28 177.08 60.44 127.76 60.44 127.76 13.28 127.76 13.28"/><path class="cls-18" d="M135.81,58.25c-.14-12.83,9.36-23.35,21.22-23.5s21.6,10.12,21.74,22.94V58H157.29l-21.48.28Z" transform="translate(-3.6 -4.07)"/><line class="cls-19" x1="152.24" y1="51.56" x2="158.39" y2="37.77"/><polygon class="cls-20" points="160.72 39.9 160.43 33.2 155.24 37.46 160.72 39.9 160.72 39.9"/><polygon class="cls-16" points="127.52 118.4 176.96 118.4 176.96 165.56 127.52 165.56 127.52 118.4 127.52 118.4"/><polygon class="cls-17" points="127.52 118.4 176.96 118.4 176.96 165.56 127.52 165.56 127.52 118.4 127.52 118.4"/><path class="cls-18" d="M135.69,163.48c-.14-12.82,9.34-23.34,21.16-23.49s21.54,10.12,21.68,22.95v.27H157.11l-21.42.27Z" transform="translate(-3.6 -4.07)"/><line class="cls-19" x1="152" y1="156.68" x2="158.15" y2="142.89"/><polygon class="cls-20" points="160.48 145.02 160.19 138.32 155 142.58 160.48 145.02 160.48 145.02"/><line class="cls-21" x1="178.4" y1="36.8" x2="211.96" y2="36.8"/><line class="cls-21" x1="177.8" y1="137.29" x2="285.05" y2="136.64"/><line class="cls-21" x1="262.8" y1="256.68" x2="262.8" y2="46.3"/><line class="cls-21" x1="387.42" y1="216.89" x2="387.83" y2="137.88"/><line class="cls-21" x1="195.92" y1="140.02" x2="195.92" y2="49.68"/><line class="cls-21" x1="193.83" y1="50.88" x2="212.93" y2="50.88"/><path class="cls-22" d="M193.65,140.77a5.64,5.64,0,1,1,5.64,5.7,5.67,5.67,0,0,1-5.64-5.7Z" transform="translate(-3.6 -4.07)"/><line class="cls-5" x1="54.13" y1="136.78" x2="54.29" y2="148.68"/><line class="cls-5" x1="53.63" y1="241.28" x2="53.79" y2="253.18"/><line class="cls-5" x1="54.63" y1="345.28" x2="54.79" y2="357.18"/><path class="cls-3" d="M206.91,334.35c29.82,0,29.82-62.57,59.64-62.57" transform="translate(-3.6 -4.07)"/><polygon class="cls-4" points="235.63 307.87 231.26 300.19 231.53 290.99 235.9 298.67 235.63 307.87"/><path class="cls-3" d="M206.91,271.35c29.82,0,29.82,62.56,59.64,62.56" transform="translate(-3.6 -4.07)"/><path class="cls-3" d="M265.66,334.1c29.82,0,29.82-61.82,59.64-61.82" transform="translate(-3.6 -4.07)"/><polygon class="cls-4" points="294.38 307.88 290.01 300.29 290.28 291.21 294.65 298.8 294.38 307.88"/><path class="cls-3" d="M265.66,271.85c29.82,0,29.82,61.82,59.64,61.82" transform="translate(-3.6 -4.07)"/><g id="layer1"><path id="path4973" class="cls-23" d="M249.45,48.71a24.87,24.87,0,0,0-21-14h-9.8a25.43,25.43,0,0,1,0,28h9.8a24.87,24.87,0,0,0,21-14" transform="translate(-3.6 -4.07)"/><path id="path4975" class="cls-23" d="M215.85,34.71s4.2,7,4.2,14-4.2,14-4.2,14" transform="translate(-3.6 -4.07)"/></g><g id="layer1-2" data-name="layer1"><path id="path4979" class="cls-23" d="M291.12,126.14V155.2l29.06-14.53Z" transform="translate(-3.6 -4.07)"/><path id="path4977" class="cls-24" d="M326,140.67a2.91,2.91,0,1,1-2.91-2.91A2.9,2.9,0,0,1,326,140.67Z" transform="translate(-3.6 -4.07)"/></g><line class="cls-21" x1="246.33" y1="44.88" x2="265.43" y2="44.88"/><path class="cls-3" d="M335.66,273.1c29.82,0,29.82-44.1,59.64-44.1" transform="translate(-3.6 -4.07)"/><polygon class="cls-4" points="364.38 253.23 360.01 247.82 360.28 241.34 364.65 246.75 364.38 253.23"/><path class="cls-3" d="M335.66,228.69c29.82,0,29.82,44.1,59.64,44.1" transform="translate(-3.6 -4.07)"/><line class="cls-2" x1="320.38" y1="268.68" x2="334.33" y2="268.68"/><path class="cls-25" d="M333.74,230.86a9.76,9.76,0,0,1,9.69-9.83h93.92a9.76,9.76,0,0,1,9.69,9.83v39.29a9.75,9.75,0,0,1-9.69,9.82H343.43a9.75,9.75,0,0,1-9.69-9.82Z" transform="translate(-3.6 -4.07)"/><line class="cls-21" x1="323.3" y1="136.79" x2="390.83" y2="136.14"/><g class="cls-26"><line class="cls-27" x1="0.52" y1="25.33" x2="0.52" y2="50.19"/><line class="cls-27" x1="20.48" y1="25.33" x2="25.01" y2="37.76"/><line class="cls-27" x1="25.01" y1="37.76" x2="20.48" y2="50.19"/><path d="M11,47.33C8.46,47.17,6.65,46,8,42.06l.92-2.76a10.67,10.67,0,0,0,.62-2.37h1.7a4,4,0,0,1-.38,1.91l-1,3c-1,3,.09,4,1.65,4.1l3.91-11.73H17L13.13,46c1.86-.09,3.79-2,4.76-4.9a9.42,9.42,0,0,0,.63-4.16h1.7a7.79,7.79,0,0,1-.51,4c-1,3-3.35,6.2-7,6.39l-1.31,3.93H9.68Z" transform="translate(-3.6 -4.07)"/></g><g class="cls-28"><line class="cls-27" x1="2.24" y1="128.49" x2="2.24" y2="153.35"/><line class="cls-27" x1="17.47" y1="128.49" x2="22" y2="140.92"/><line class="cls-27" x1="22" y1="140.92" x2="17.47" y2="153.35"/><path d="M10.24,143.37a10.59,10.59,0,0,1,.72-4.1,5.66,5.66,0,0,1,1.9-2.56,3.17,3.17,0,0,1,1.9-.67,3.62,3.62,0,0,1,2.87,1.63,8.65,8.65,0,0,1,1.59,5.48,10.72,10.72,0,0,1-.7,4.12,5.41,5.41,0,0,1-1.77,2.46,3.65,3.65,0,0,1-2.09.77c-1.32,0-2.42-.79-3.31-2.36A9.61,9.61,0,0,1,10.24,143.37Zm2,.26a13.17,13.17,0,0,0,.7,4.69q.59,1.53,1.74,1.53a1.84,1.84,0,0,0,1.15-.5,3.11,3.11,0,0,0,.9-1.67,20.53,20.53,0,0,0,.47-5,13.6,13.6,0,0,0-.49-4,3.53,3.53,0,0,0-.95-1.67,1.55,1.55,0,0,0-1-.34,1.61,1.61,0,0,0-1.23.62,5.22,5.22,0,0,0-1,2.68A24.65,24.65,0,0,0,12.25,143.63Z" transform="translate(-3.6 -4.07)"/></g><g class="cls-29"><line class="cls-27" x1="3.74" y1="234.99" x2="3.74" y2="259.85"/><line class="cls-27" x1="18.97" y1="234.99" x2="23.5" y2="247.42"/><line class="cls-27" x1="23.5" y1="247.42" x2="18.97" y2="259.85"/><path d="M11.74,249.87a10.59,10.59,0,0,1,.72-4.1,5.66,5.66,0,0,1,1.9-2.56,3.17,3.17,0,0,1,1.9-.67,3.62,3.62,0,0,1,2.87,1.63,8.65,8.65,0,0,1,1.59,5.48,10.72,10.72,0,0,1-.7,4.12,5.41,5.41,0,0,1-1.77,2.46,3.65,3.65,0,0,1-2.09.77c-1.32,0-2.42-.79-3.31-2.36A9.61,9.61,0,0,1,11.74,249.87Zm2,.26a13.17,13.17,0,0,0,.7,4.69q.59,1.53,1.74,1.53a1.84,1.84,0,0,0,1.15-.5,3.11,3.11,0,0,0,.9-1.67,20.59,20.59,0,0,0,.47-5,13.6,13.6,0,0,0-.49-4,3.53,3.53,0,0,0-.95-1.67,1.55,1.55,0,0,0-1-.34,1.61,1.61,0,0,0-1.23.62,5.22,5.22,0,0,0-1,2.68A24.65,24.65,0,0,0,13.75,250.13Z" transform="translate(-3.6 -4.07)"/></g><g class="cls-30"><line class="cls-27" x1="4.24" y1="336.99" x2="4.24" y2="361.85"/><line class="cls-27" x1="19.47" y1="336.99" x2="24" y2="349.42"/><line class="cls-27" x1="24" y1="349.42" x2="19.47" y2="361.85"/><path d="M17,357.3v-5.12h-5.1v-.84H17v-5.11h.82v5.11H22.9v.84H17.78v5.12Z" transform="translate(-3.6 -4.07)"/></g><g class="cls-31"><line class="cls-27" x1="463.52" y1="231.33" x2="463.52" y2="256.19"/><line class="cls-27" x1="483.48" y1="231.33" x2="488.01" y2="243.76"/><line class="cls-27" x1="488.01" y1="243.76" x2="483.48" y2="256.19"/><path d="M474,253.33c-2.53-.16-4.34-1.34-3-5.27l.91-2.76a10.67,10.67,0,0,0,.62-2.37h1.71a4.25,4.25,0,0,1-.39,1.91l-1,3c-1,3,.09,4,1.65,4.1l3.91-11.73H480L476.13,252c1.86-.09,3.79-2,4.76-4.9a9.42,9.42,0,0,0,.63-4.16h1.7a7.79,7.79,0,0,1-.51,4c-1,3-3.35,6.2-7,6.39l-1.31,3.93h-1.7Z" transform="translate(-3.6 -4.07)"/></g><g class="cls-32"><line class="cls-27" x1="465.24" y1="336.99" x2="465.24" y2="361.85"/><line class="cls-27" x1="480.47" y1="336.99" x2="485" y2="349.42"/><line class="cls-27" x1="485" y1="349.42" x2="480.47" y2="361.85"/><path d="M478,357.3v-5.12h-5.1v-.84H478v-5.11h.82v5.11h5.12v.84h-5.12v5.12Z" transform="translate(-3.6 -4.07)"/></g><path class="cls-3" d="M392.16,273.1c29.82,0,29.82-43.61,59.64-43.61" transform="translate(-3.6 -4.07)"/><polygon class="cls-4" points="420.88 253.41 416.51 248.06 416.78 241.65 421.15 247 420.88 253.41"/><path class="cls-3" d="M392.16,229.19c29.82,0,29.82,43.6,59.64,43.6" transform="translate(-3.6 -4.07)"/><path class="cls-25" d="M208.74,274.27c0-7.31,4.47-13.24,10-13.24h96.82c5.51,0,10,5.93,10,13.24v53c0,7.32-4.48,13.24-10,13.24H218.73c-5.52,0-10-5.92-10-13.24Z" transform="translate(-3.6 -4.07)"/><path d="M246.31,355.78l1.55.2a4,4,0,0,1-1.3,2.52,3.79,3.79,0,0,1-2.58.91,4,4,0,0,1-3.08-1.25,5.07,5.07,0,0,1-1.17-3.59,6.59,6.59,0,0,1,.5-2.65,3.53,3.53,0,0,1,1.53-1.7,4.58,4.58,0,0,1,2.23-.56,3.81,3.81,0,0,1,2.48.77,3.49,3.49,0,0,1,1.24,2.18l-1.54.24a2.54,2.54,0,0,0-.77-1.42,2.07,2.07,0,0,0-1.35-.47,2.47,2.47,0,0,0-2,.85,4.13,4.13,0,0,0-.74,2.72,4.21,4.21,0,0,0,.72,2.73,2.34,2.34,0,0,0,1.88.85,2.2,2.2,0,0,0,1.55-.57A2.87,2.87,0,0,0,246.31,355.78Z" transform="translate(-3.6 -4.07)"/><path d="M248.63,354.53a4.83,4.83,0,0,1,1.44-3.84,4.33,4.33,0,0,1,2.93-1,4.2,4.2,0,0,1,3.15,1.26,4.81,4.81,0,0,1,1.22,3.48,6.21,6.21,0,0,1-.54,2.84,3.79,3.79,0,0,1-1.57,1.6,4.6,4.6,0,0,1-2.26.57,4.24,4.24,0,0,1-3.17-1.25A5.06,5.06,0,0,1,248.63,354.53Zm1.62,0a4,4,0,0,0,.78,2.69,2.54,2.54,0,0,0,2,.89,2.48,2.48,0,0,0,2-.9,4,4,0,0,0,.79-2.73,3.87,3.87,0,0,0-.79-2.62,2.5,2.5,0,0,0-2-.89,2.53,2.53,0,0,0-2,.88A4,4,0,0,0,250.25,354.53Z" transform="translate(-3.6 -4.07)"/><path d="M259.21,359.2v-9.33h1.42v1.41a3.93,3.93,0,0,1,1-1.31,1.74,1.74,0,0,1,1-.31,3.08,3.08,0,0,1,1.63.51l-.55,1.46a2.31,2.31,0,0,0-1.16-.34,1.57,1.57,0,0,0-.93.31,1.76,1.76,0,0,0-.59.87,6.34,6.34,0,0,0-.26,1.84v4.89Z" transform="translate(-3.6 -4.07)"/><path d="M265.2,359.2v-9.33h1.43v1.41a3.81,3.81,0,0,1,1-1.31,1.78,1.78,0,0,1,1-.31,3.07,3.07,0,0,1,1.62.51l-.54,1.46a2.34,2.34,0,0,0-1.16-.34,1.53,1.53,0,0,0-.93.31,1.7,1.7,0,0,0-.59.87,6,6,0,0,0-.27,1.84v4.89Z" transform="translate(-3.6 -4.07)"/><path d="M277.6,356.2l1.64.2a4.05,4.05,0,0,1-1.43,2.22,4.31,4.31,0,0,1-2.68.79,4.26,4.26,0,0,1-3.24-1.26,4.93,4.93,0,0,1-1.2-3.54A5.12,5.12,0,0,1,271.9,351a4.1,4.1,0,0,1,3.15-1.3,4,4,0,0,1,3.05,1.27,5,5,0,0,1,1.19,3.59c0,.09,0,.23,0,.42h-7a3.59,3.59,0,0,0,.87,2.35,2.57,2.57,0,0,0,1.95.82,2.4,2.4,0,0,0,1.49-.46A3,3,0,0,0,277.6,356.2Zm-5.19-2.56h5.21a3.14,3.14,0,0,0-.6-1.77,2.4,2.4,0,0,0-2-.91,2.51,2.51,0,0,0-1.83.73A2.87,2.87,0,0,0,272.41,353.64Z" transform="translate(-3.6 -4.07)"/><path d="M287.32,355.78l1.55.2a4,4,0,0,1-1.3,2.52,3.79,3.79,0,0,1-2.58.91,4,4,0,0,1-3.08-1.25,5.07,5.07,0,0,1-1.17-3.59,6.59,6.59,0,0,1,.5-2.65,3.53,3.53,0,0,1,1.53-1.7,4.58,4.58,0,0,1,2.23-.56,3.81,3.81,0,0,1,2.48.77,3.49,3.49,0,0,1,1.24,2.18l-1.54.24a2.54,2.54,0,0,0-.77-1.42,2.07,2.07,0,0,0-1.35-.47,2.47,2.47,0,0,0-1.95.85,4.13,4.13,0,0,0-.74,2.72,4.21,4.21,0,0,0,.72,2.73,2.34,2.34,0,0,0,1.88.85,2.2,2.2,0,0,0,1.55-.57A2.87,2.87,0,0,0,287.32,355.78Z" transform="translate(-3.6 -4.07)"/><path d="M293.68,357.79l.23,1.39a5.54,5.54,0,0,1-1.2.14,2.7,2.7,0,0,1-1.33-.27,1.52,1.52,0,0,1-.67-.71,5.61,5.61,0,0,1-.2-1.87V351.1h-1.16v-1.23h1.16v-2.31l1.58-.95v3.26h1.59v1.23h-1.59v5.46a3,3,0,0,0,.08.87.71.71,0,0,0,.27.3,1,1,0,0,0,.54.12A5.33,5.33,0,0,0,293.68,357.79Z" transform="translate(-3.6 -4.07)"/><path d="M295.23,348.14v-1.82h1.59v1.82Zm0,11.06v-9.33h1.59v9.33Z" transform="translate(-3.6 -4.07)"/><path d="M298.64,354.53a4.83,4.83,0,0,1,1.44-3.84,4.33,4.33,0,0,1,2.93-1,4.2,4.2,0,0,1,3.15,1.26,4.81,4.81,0,0,1,1.22,3.48,6.21,6.21,0,0,1-.54,2.84,3.79,3.79,0,0,1-1.57,1.6,4.6,4.6,0,0,1-2.26.57,4.24,4.24,0,0,1-3.17-1.25A5.06,5.06,0,0,1,298.64,354.53Zm1.62,0a4,4,0,0,0,.78,2.69,2.54,2.54,0,0,0,2,.89,2.48,2.48,0,0,0,2-.9,4,4,0,0,0,.78-2.73,3.87,3.87,0,0,0-.78-2.62,2.5,2.5,0,0,0-2-.89,2.53,2.53,0,0,0-2,.88A4,4,0,0,0,300.26,354.53Z" transform="translate(-3.6 -4.07)"/><path d="M309.24,359.2v-9.33h1.42v1.32a3.35,3.35,0,0,1,3-1.53,3.93,3.93,0,0,1,1.55.3,2.46,2.46,0,0,1,1.06.79,3.09,3.09,0,0,1,.49,1.17,9,9,0,0,1,.09,1.54v5.74h-1.58v-5.68a4.05,4.05,0,0,0-.19-1.44,1.52,1.52,0,0,0-.65-.77,2.09,2.09,0,0,0-1.1-.28,2.55,2.55,0,0,0-1.75.64,3.16,3.16,0,0,0-.73,2.43v5.1Z" transform="translate(-3.6 -4.07)"/><g class="cls-33"><path d="M228.58,345.12H233l-.11.36a4.33,4.33,0,0,0-1.63.58,10.55,10.55,0,0,0-1.91,1.75L226,351.35l.95,3.57c.09.34.26.87.5,1.59a3.22,3.22,0,0,0,.47,1,1.49,1.49,0,0,0,.58.44,3.25,3.25,0,0,0,1.07.18l-.11.37H224.3l.11-.37a2,2,0,0,0,1.13-.3.59.59,0,0,0,.26-.51,5.93,5.93,0,0,0-.25-1.21l-.91-3.36-3.07,3.16a9.4,9.4,0,0,0-1.07,1.23.66.66,0,0,0-.1.34.57.57,0,0,0,.28.49,3.55,3.55,0,0,0,.82.16l-.09.37h-4.35l.1-.37a3.22,3.22,0,0,0,1.34-.38,12.44,12.44,0,0,0,2.11-1.84l3.8-3.9-1-3.85a6.83,6.83,0,0,0-.82-2.18,1.71,1.71,0,0,0-1.23-.47l.1-.36h4.67l-.11.36a2.74,2.74,0,0,0-.87.09.66.66,0,0,0-.35.25.69.69,0,0,0-.12.39,6.15,6.15,0,0,0,.23,1.1l.89,3.29,2.05-2.09a11.87,11.87,0,0,0,1.67-2,.94.94,0,0,0,.16-.48.41.41,0,0,0-.18-.35,2,2,0,0,0-1-.21Z" transform="translate(-3.6 -4.07)"/></g><path d="M374.31,295.28l1.55.2a4,4,0,0,1-1.3,2.52,3.79,3.79,0,0,1-2.58.91,4,4,0,0,1-3.08-1.25,5.07,5.07,0,0,1-1.17-3.59,6.59,6.59,0,0,1,.5-2.65,3.53,3.53,0,0,1,1.53-1.7,4.58,4.58,0,0,1,2.23-.56,3.81,3.81,0,0,1,2.48.77,3.49,3.49,0,0,1,1.24,2.18l-1.54.24a2.54,2.54,0,0,0-.77-1.42,2.07,2.07,0,0,0-1.35-.47,2.47,2.47,0,0,0-1.95.85,4.13,4.13,0,0,0-.74,2.72,4.21,4.21,0,0,0,.72,2.73,2.34,2.34,0,0,0,1.88.85,2.2,2.2,0,0,0,1.55-.57A2.87,2.87,0,0,0,374.31,295.28Z" transform="translate(-3.6 -4.07)"/><path d="M376.63,294a4.83,4.83,0,0,1,1.44-3.84,4.33,4.33,0,0,1,2.93-1,4.2,4.2,0,0,1,3.15,1.26,4.81,4.81,0,0,1,1.22,3.48,6.21,6.21,0,0,1-.54,2.84,3.79,3.79,0,0,1-1.57,1.6,4.6,4.6,0,0,1-2.26.57,4.24,4.24,0,0,1-3.17-1.25A5.06,5.06,0,0,1,376.63,294Zm1.62,0a4,4,0,0,0,.78,2.69,2.54,2.54,0,0,0,2,.89,2.48,2.48,0,0,0,2-.9,4,4,0,0,0,.79-2.73,3.87,3.87,0,0,0-.79-2.62,2.5,2.5,0,0,0-2-.89,2.53,2.53,0,0,0-2,.88A4,4,0,0,0,378.25,294Z" transform="translate(-3.6 -4.07)"/><path d="M387.21,298.7v-9.33h1.42v1.41a3.93,3.93,0,0,1,1-1.31,1.74,1.74,0,0,1,1-.31,3.08,3.08,0,0,1,1.63.51l-.55,1.46a2.31,2.31,0,0,0-1.16-.34,1.57,1.57,0,0,0-.93.31,1.76,1.76,0,0,0-.59.87,6.34,6.34,0,0,0-.26,1.84v4.89Z" transform="translate(-3.6 -4.07)"/><path d="M393.2,298.7v-9.33h1.43v1.41a3.81,3.81,0,0,1,1-1.31,1.78,1.78,0,0,1,1-.31,3.07,3.07,0,0,1,1.62.51l-.54,1.46a2.34,2.34,0,0,0-1.16-.34,1.53,1.53,0,0,0-.93.31,1.7,1.7,0,0,0-.59.87,6,6,0,0,0-.27,1.84v4.89Z" transform="translate(-3.6 -4.07)"/><path d="M405.6,295.7l1.64.2a4.05,4.05,0,0,1-1.43,2.22,4.31,4.31,0,0,1-2.68.79,4.26,4.26,0,0,1-3.24-1.26,4.93,4.93,0,0,1-1.2-3.54,5.12,5.12,0,0,1,1.21-3.65,4.1,4.1,0,0,1,3.15-1.3,4,4,0,0,1,3.05,1.27,5,5,0,0,1,1.19,3.59c0,.09,0,.23,0,.42h-7a3.59,3.59,0,0,0,.87,2.35,2.57,2.57,0,0,0,1.95.82,2.4,2.4,0,0,0,1.49-.46A3,3,0,0,0,405.6,295.7Zm-5.19-2.56h5.21a3.14,3.14,0,0,0-.6-1.77,2.4,2.4,0,0,0-2-.91,2.51,2.51,0,0,0-1.83.73A2.87,2.87,0,0,0,400.41,293.14Z" transform="translate(-3.6 -4.07)"/><path d="M415.32,295.28l1.55.2a4,4,0,0,1-1.3,2.52,3.79,3.79,0,0,1-2.58.91,4,4,0,0,1-3.08-1.25,5.07,5.07,0,0,1-1.17-3.59,6.59,6.59,0,0,1,.5-2.65,3.53,3.53,0,0,1,1.53-1.7,4.58,4.58,0,0,1,2.23-.56,3.81,3.81,0,0,1,2.48.77,3.49,3.49,0,0,1,1.24,2.18l-1.54.24a2.54,2.54,0,0,0-.77-1.42,2.07,2.07,0,0,0-1.35-.47,2.47,2.47,0,0,0-1.95.85,4.13,4.13,0,0,0-.74,2.72,4.21,4.21,0,0,0,.72,2.73,2.34,2.34,0,0,0,1.88.85,2.2,2.2,0,0,0,1.55-.57A2.87,2.87,0,0,0,415.32,295.28Z" transform="translate(-3.6 -4.07)"/><path d="M421.68,297.29l.23,1.39a5.54,5.54,0,0,1-1.2.14,2.7,2.7,0,0,1-1.33-.27,1.52,1.52,0,0,1-.67-.71,5.61,5.61,0,0,1-.2-1.87V290.6h-1.16v-1.23h1.16v-2.31l1.58-.95v3.26h1.59v1.23h-1.59v5.46a3,3,0,0,0,.08.87.71.71,0,0,0,.27.3,1,1,0,0,0,.54.12A5.33,5.33,0,0,0,421.68,297.29Z" transform="translate(-3.6 -4.07)"/><path d="M423.23,287.64v-1.82h1.59v1.82Zm0,11.06v-9.33h1.59v9.33Z" transform="translate(-3.6 -4.07)"/><path d="M426.64,294a4.83,4.83,0,0,1,1.44-3.84,4.33,4.33,0,0,1,2.93-1,4.2,4.2,0,0,1,3.15,1.26,4.81,4.81,0,0,1,1.22,3.48,6.21,6.21,0,0,1-.54,2.84,3.79,3.79,0,0,1-1.57,1.6,4.6,4.6,0,0,1-2.26.57,4.24,4.24,0,0,1-3.17-1.25A5.06,5.06,0,0,1,426.64,294Zm1.62,0a4,4,0,0,0,.78,2.69,2.54,2.54,0,0,0,2,.89,2.48,2.48,0,0,0,2-.9,4,4,0,0,0,.78-2.73,3.87,3.87,0,0,0-.78-2.62,2.5,2.5,0,0,0-2-.89,2.53,2.53,0,0,0-2,.88A4,4,0,0,0,428.26,294Z" transform="translate(-3.6 -4.07)"/><path d="M437.24,298.7v-9.33h1.42v1.32a3.35,3.35,0,0,1,3-1.53,3.93,3.93,0,0,1,1.55.3,2.46,2.46,0,0,1,1.06.79,3.09,3.09,0,0,1,.49,1.17,9,9,0,0,1,.09,1.54v5.74h-1.58V293a4.05,4.05,0,0,0-.19-1.44,1.52,1.52,0,0,0-.65-.77,2.09,2.09,0,0,0-1.1-.28,2.55,2.55,0,0,0-1.75.64,3.16,3.16,0,0,0-.73,2.43v5.1Z" transform="translate(-3.6 -4.07)"/><g class="cls-34"><path d="M352.65,285.71h9.1v.36L352,298.34h1.52a16.26,16.26,0,0,0,3.47-.25,3.72,3.72,0,0,0,1.68-.85,4.55,4.55,0,0,0,1.12-1.72h.37L359,299h-9.43v-.28l9.74-12.27h-2.72a13,13,0,0,0-2.5.16,2.58,2.58,0,0,0-1.24.66,3.74,3.74,0,0,0-.88,1.49h-.34Z" transform="translate(-3.6 -4.07)"/></g><path d="M85.56,383.33h1.06V387h0a1.91,1.91,0,0,1,.75-.74,2.22,2.22,0,0,1,1.08-.3c.78,0,2,.47,2,2.48v3.45h-1v-3.33c0-.94-.35-1.73-1.35-1.73a1.51,1.51,0,0,0-1.41,1.06,1.26,1.26,0,0,0-.07.5v3.5H85.56Z" transform="translate(-3.6 -4.07)"/><path d="M93.44,384.37V386H95v.8H93.44V390c0,.72.21,1.13.79,1.13a2.78,2.78,0,0,0,.62-.07l0,.79A2.63,2.63,0,0,1,94,392a1.45,1.45,0,0,1-1.14-.44,2.15,2.15,0,0,1-.41-1.51v-3.17h-.9V386h.9v-1.39Z" transform="translate(-3.6 -4.07)"/><path d="M97.42,384.37V386h1.51v.8H97.42V390c0,.72.2,1.13.79,1.13a2.68,2.68,0,0,0,.61-.07l.05.79a2.73,2.73,0,0,1-.94.14,1.45,1.45,0,0,1-1.14-.44,2.15,2.15,0,0,1-.41-1.51v-3.17h-.9V386h.9v-1.39Z" transform="translate(-3.6 -4.07)"/><path d="M100.12,387.93c0-.74,0-1.34-.05-1.89H101l0,1h0a2.28,2.28,0,0,1,2.06-1.12c1.4,0,2.46,1.18,2.46,2.95,0,2.08-1.27,3.11-2.64,3.11a2,2,0,0,1-1.79-.91h0v3.16h-1Zm1,1.55a2,2,0,0,0,0,.43,1.63,1.63,0,0,0,1.58,1.24c1.12,0,1.76-.92,1.76-2.25,0-1.16-.61-2.16-1.72-2.16a1.69,1.69,0,0,0-1.6,1.31,1.55,1.55,0,0,0-.07.43Z" transform="translate(-3.6 -4.07)"/><path d="M106.8,390.76a2.69,2.69,0,0,0,1.39.42c.77,0,1.13-.38,1.13-.86s-.3-.78-1.08-1.07c-1-.37-1.54-.95-1.54-1.64a1.79,1.79,0,0,1,2-1.7,2.9,2.9,0,0,1,1.42.35l-.26.77a2.32,2.32,0,0,0-1.19-.33c-.62,0-1,.36-1,.79s.35.69,1.1,1c1,.39,1.53.89,1.53,1.75,0,1-.79,1.74-2.17,1.74a3.27,3.27,0,0,1-1.63-.39Z" transform="translate(-3.6 -4.07)"/><path d="M111.44,387a.72.72,0,1,1,1.43,0,.72.72,0,1,1-1.43,0Zm0,4.23a.72.72,0,1,1,1.43,0,.72.72,0,1,1-1.43,0Z" transform="translate(-3.6 -4.07)"/><path d="M113.29,392.32l3.35-8.69h.81l-3.35,8.69Z" transform="translate(-3.6 -4.07)"/><path d="M117.41,392.32l3.34-8.69h.82l-3.36,8.69Z" transform="translate(-3.6 -4.07)"/><path d="M122.41,387.61c0-.6,0-1.09,0-1.57h.93l0,.93h0a2,2,0,0,1,1.82-1.06,1.72,1.72,0,0,1,1.65,1.16h0a2.35,2.35,0,0,1,.65-.76,2,2,0,0,1,1.28-.4c.77,0,1.91.5,1.91,2.51v3.42h-1v-3.28c0-1.12-.41-1.79-1.26-1.79a1.36,1.36,0,0,0-1.25,1,1.64,1.64,0,0,0-.08.53v3.58h-1v-3.48c0-.92-.4-1.59-1.21-1.59a1.43,1.43,0,0,0-1.3,1.05,1.5,1.5,0,0,0-.09.52v3.5h-1Z" transform="translate(-3.6 -4.07)"/><path d="M135.63,391.84l-.08-.73h0a2.13,2.13,0,0,1-1.77.86,1.65,1.65,0,0,1-1.78-1.66c0-1.41,1.25-2.17,3.49-2.16V388a1.2,1.2,0,0,0-1.32-1.35,2.84,2.84,0,0,0-1.51.44l-.24-.7a3.63,3.63,0,0,1,1.91-.51c1.77,0,2.21,1.21,2.21,2.37v2.17a8.39,8.39,0,0,0,.09,1.39Zm-.15-3c-1.15,0-2.46.18-2.46,1.31a.93.93,0,0,0,1,1,1.45,1.45,0,0,0,1.41-1,1.2,1.2,0,0,0,.06-.33Z" transform="translate(-3.6 -4.07)"/><path d="M138.2,387.85c0-.69,0-1.27,0-1.81h.93l0,1.14h0a1.75,1.75,0,0,1,1.61-1.27,1.39,1.39,0,0,1,.3,0v1a1.32,1.32,0,0,0-.36,0,1.49,1.49,0,0,0-1.42,1.36,3.47,3.47,0,0,0,0,.49v3.09H138.2Z" transform="translate(-3.6 -4.07)"/><path d="M142.59,389.13a1.87,1.87,0,0,0,2,2,3.92,3.92,0,0,0,1.61-.3l.18.75a4.67,4.67,0,0,1-1.93.36,2.69,2.69,0,0,1-2.85-2.92c0-1.76,1-3.13,2.72-3.13a2.46,2.46,0,0,1,2.4,2.73,4.15,4.15,0,0,1,0,.49Zm3.1-.75a1.51,1.51,0,0,0-1.46-1.72,1.74,1.74,0,0,0-1.62,1.72Z" transform="translate(-3.6 -4.07)"/><path d="M149.06,388.7h0c.14-.2.34-.46.51-.66l1.7-2h1.28l-2.25,2.38,2.56,3.42H151.6l-2-2.78-.54.6v2.18h-1v-8.51h1Z" transform="translate(-3.6 -4.07)"/><path d="M153.85,387.61c0-.6,0-1.09,0-1.57h.94l.06,1h0a2.12,2.12,0,0,1,1.92-1.09c.8,0,2,.47,2,2.47v3.46h-1V388.5c0-.94-.35-1.72-1.35-1.72a1.5,1.5,0,0,0-1.41,1.08,1.45,1.45,0,0,0-.07.49v3.49h-1.06Z" transform="translate(-3.6 -4.07)"/><path d="M163.72,391.84l-.08-.73h0a2.13,2.13,0,0,1-1.77.86,1.65,1.65,0,0,1-1.78-1.66c0-1.41,1.25-2.17,3.49-2.16V388a1.2,1.2,0,0,0-1.31-1.35,2.88,2.88,0,0,0-1.52.44l-.24-.7a3.63,3.63,0,0,1,1.91-.51c1.78,0,2.21,1.21,2.21,2.37v2.17a8.39,8.39,0,0,0,.09,1.39Zm-.15-3c-1.15,0-2.46.18-2.46,1.31a.93.93,0,0,0,1,1,1.45,1.45,0,0,0,1.4-1,1.2,1.2,0,0,0,.06-.33Z" transform="translate(-3.6 -4.07)"/><path d="M166.29,387.85c0-.69,0-1.27,0-1.81h.92l0,1.14h0a1.75,1.75,0,0,1,1.61-1.27,1.39,1.39,0,0,1,.3,0v1a1.32,1.32,0,0,0-.36,0,1.47,1.47,0,0,0-1.41,1.36,2.38,2.38,0,0,0,0,.49v3.09h-1.05Z" transform="translate(-3.6 -4.07)"/><path d="M175.35,388.89a2.83,2.83,0,0,1-2.89,3.08,2.76,2.76,0,0,1-2.78-3,2.83,2.83,0,0,1,2.88-3.08A2.75,2.75,0,0,1,175.35,388.89Zm-4.6.06c0,1.27.73,2.23,1.76,2.23s1.76-.95,1.76-2.25c0-1-.49-2.23-1.74-2.23S170.75,387.85,170.75,389Z" transform="translate(-3.6 -4.07)"/><path d="M175.94,391.23l2.63-3.42c.25-.31.49-.59.76-.9v0h-3.15V386h4.43v.66L178,390.07c-.24.32-.48.61-.75.91v0h3.4v.84h-4.72Z" transform="translate(-3.6 -4.07)"/><path d="M181.74,387.61c0-.6,0-1.09-.05-1.57h.94l.06,1h0a2.12,2.12,0,0,1,1.92-1.09c.8,0,2.05.47,2.05,2.47v3.46h-1.06V388.5c0-.94-.34-1.72-1.34-1.72a1.5,1.5,0,0,0-1.41,1.08,1.44,1.44,0,0,0-.08.49v3.49h-1Z" transform="translate(-3.6 -4.07)"/><path d="M189.57,384.41a.65.65,0,0,1-1.3,0,.64.64,0,0,1,.66-.66A.62.62,0,0,1,189.57,384.41Zm-1.17,7.43V386h1v5.8Z" transform="translate(-3.6 -4.07)"/><path d="M194.42,391.84l-.08-.73h0a2.14,2.14,0,0,1-1.77.86,1.65,1.65,0,0,1-1.78-1.66c0-1.41,1.25-2.17,3.49-2.16V388a1.2,1.2,0,0,0-1.32-1.35,2.84,2.84,0,0,0-1.51.44l-.24-.7a3.63,3.63,0,0,1,1.91-.51c1.77,0,2.2,1.21,2.2,2.37v2.17a8.32,8.32,0,0,0,.1,1.39Zm-.16-3c-1.15,0-2.45.18-2.45,1.31a.93.93,0,0,0,1,1,1.43,1.43,0,0,0,1.4-1,.92.92,0,0,0,.06-.33Z" transform="translate(-3.6 -4.07)"/><path d="M198,388.7h0c.14-.2.35-.46.51-.66l1.71-2h1.27l-2.24,2.38,2.55,3.42h-1.28l-2-2.78-.54.6v2.18h-1v-8.51h1Z" transform="translate(-3.6 -4.07)"/><path d="M202.53,391.22a.71.71,0,0,1,.72-.76.76.76,0,1,1-.72.76Z" transform="translate(-3.6 -4.07)"/><path d="M209.41,391.63a4,4,0,0,1-1.67.33,2.76,2.76,0,0,1-2.89-3,2.94,2.94,0,0,1,3.12-3.08,3.44,3.44,0,0,1,1.46.3l-.24.81a2.5,2.5,0,0,0-1.22-.27,2.19,2.19,0,0,0,0,4.36,2.9,2.9,0,0,0,1.3-.29Z" transform="translate(-3.6 -4.07)"/><path d="M215.83,388.89a2.83,2.83,0,0,1-2.89,3.08,2.76,2.76,0,0,1-2.79-3,2.83,2.83,0,0,1,2.88-3.08A2.75,2.75,0,0,1,215.83,388.89Zm-4.61.06c0,1.27.73,2.23,1.76,2.23s1.77-.95,1.77-2.25c0-1-.49-2.23-1.74-2.23S211.22,387.85,211.22,389Z" transform="translate(-3.6 -4.07)"/><path d="M217.16,387.61c0-.6,0-1.09,0-1.57H218l0,.93h0a2,2,0,0,1,1.82-1.06,1.7,1.7,0,0,1,1.65,1.16h0a2.35,2.35,0,0,1,.65-.76,2,2,0,0,1,1.28-.4c.77,0,1.91.5,1.91,2.51v3.42h-1v-3.28c0-1.12-.41-1.79-1.26-1.79a1.36,1.36,0,0,0-1.25,1,1.64,1.64,0,0,0-.08.53v3.58h-1v-3.48c0-.92-.41-1.59-1.22-1.59a1.43,1.43,0,0,0-1.3,1.05,1.5,1.5,0,0,0-.09.52v3.5h-1Z" transform="translate(-3.6 -4.07)"/><path d="M226.28,392.32l3.35-8.69h.81l-3.35,8.69Z" transform="translate(-3.6 -4.07)"/><path d="M231,391.84v-.65l.83-.8c2-1.89,2.89-2.9,2.9-4.08a1.39,1.39,0,0,0-1.55-1.52,2.63,2.63,0,0,0-1.65.66l-.34-.74a3.41,3.41,0,0,1,2.21-.8,2.2,2.2,0,0,1,2.39,2.27c0,1.44-1.05,2.6-2.69,4.19l-.63.57v0h3.51v.87Z" transform="translate(-3.6 -4.07)"/><path d="M242.29,387.86c0,2.65-1,4.11-2.71,4.11-1.53,0-2.56-1.42-2.58-4s1.12-4.06,2.71-4.06S242.29,385.38,242.29,387.86Zm-4.24.12c0,2,.63,3.18,1.59,3.18s1.59-1.26,1.59-3.25-.49-3.18-1.58-3.18C238.72,384.73,238.05,385.86,238.05,388Z" transform="translate(-3.6 -4.07)"/><path d="M243.26,391.84v-.65l.83-.8c2-1.89,2.89-2.9,2.9-4.08a1.39,1.39,0,0,0-1.55-1.52,2.66,2.66,0,0,0-1.65.66l-.34-.74a3.41,3.41,0,0,1,2.21-.8,2.2,2.2,0,0,1,2.39,2.27c0,1.44-1.05,2.6-2.69,4.19l-.62.57v0h3.5v.87Z" transform="translate(-3.6 -4.07)"/><path d="M251.71,385h0l-1.35.73-.21-.8,1.71-.91h.9v7.79h-1Z" transform="translate(-3.6 -4.07)"/><path d="M255,392.32l3.35-8.69h.81l-3.35,8.69Z" transform="translate(-3.6 -4.07)"/><path d="M264.87,387.86c0,2.65-1,4.11-2.71,4.11-1.52,0-2.55-1.42-2.58-4s1.13-4.06,2.71-4.06S264.87,385.38,264.87,387.86Zm-4.23.12c0,2,.62,3.18,1.58,3.18s1.59-1.26,1.59-3.25-.49-3.18-1.58-3.18C261.31,384.73,260.64,385.86,260.64,388Z" transform="translate(-3.6 -4.07)"/><path d="M270.91,384.05v.69l-3.4,7.1h-1.09L269.8,385v0H266v-.87Z" transform="translate(-3.6 -4.07)"/><path d="M271.45,392.32l3.34-8.69h.82l-3.36,8.69Z" transform="translate(-3.6 -4.07)"/><path d="M281.3,387.86c0,2.65-1,4.11-2.71,4.11-1.53,0-2.56-1.42-2.58-4s1.13-4.06,2.71-4.06S281.3,385.38,281.3,387.86Zm-4.24.12c0,2,.63,3.18,1.59,3.18s1.59-1.26,1.59-3.25-.49-3.18-1.58-3.18C277.74,384.73,277.06,385.86,277.06,388Z" transform="translate(-3.6 -4.07)"/><path d="M282.88,391.1a4.53,4.53,0,0,0,.86,0,2.93,2.93,0,0,0,1.63-.75,3.49,3.49,0,0,0,1-2.08h0a2.34,2.34,0,0,1-4.14-1.55,2.68,2.68,0,0,1,2.67-2.77c1.59,0,2.57,1.3,2.57,3.29a4.91,4.91,0,0,1-1.34,3.66,3.85,3.85,0,0,1-2.26,1,5.15,5.15,0,0,1-1,.06Zm.39-4.49a1.51,1.51,0,0,0,1.5,1.66,1.74,1.74,0,0,0,1.53-.82.66.66,0,0,0,.1-.38c0-1.33-.49-2.35-1.6-2.35C283.9,384.72,283.27,385.51,283.27,386.61Z" transform="translate(-3.6 -4.07)"/><path d="M287.88,392.32l3.34-8.69H292l-3.36,8.69Z" transform="translate(-3.6 -4.07)"/><path d="M294.15,384.37V386h1.51v.8h-1.51V390c0,.72.2,1.13.79,1.13a2.6,2.6,0,0,0,.61-.07l.05.79a2.67,2.67,0,0,1-.93.14,1.44,1.44,0,0,1-1.14-.44,2.15,2.15,0,0,1-.41-1.51v-3.17h-.9V386h.9v-1.39Z" transform="translate(-3.6 -4.07)"/><path d="M302,388.89a2.83,2.83,0,0,1-2.89,3.08,2.76,2.76,0,0,1-2.78-3,2.83,2.83,0,0,1,2.88-3.08A2.74,2.74,0,0,1,302,388.89Zm-4.6.06c0,1.27.73,2.23,1.76,2.23s1.76-.95,1.76-2.25c0-1-.49-2.23-1.74-2.23S297.43,387.85,297.43,389Z" transform="translate(-3.6 -4.07)"/><path d="M303.37,387.93c0-.74,0-1.34-.05-1.89h.95l.05,1h0a2.28,2.28,0,0,1,2.06-1.12c1.41,0,2.46,1.18,2.46,2.95,0,2.08-1.27,3.11-2.64,3.11a2,2,0,0,1-1.78-.91h0v3.16h-1Zm1,1.55a2.82,2.82,0,0,0,0,.43,1.63,1.63,0,0,0,1.58,1.24c1.12,0,1.77-.92,1.77-2.25,0-1.16-.62-2.16-1.73-2.16a1.7,1.7,0,0,0-1.6,1.31,2,2,0,0,0-.07.43Z" transform="translate(-3.6 -4.07)"/><path d="M315.45,388.89a2.83,2.83,0,0,1-2.89,3.08,2.76,2.76,0,0,1-2.78-3,2.83,2.83,0,0,1,2.87-3.08A2.75,2.75,0,0,1,315.45,388.89Zm-4.61.06c0,1.27.74,2.23,1.77,2.23s1.76-.95,1.76-2.25c0-1-.49-2.23-1.74-2.23S310.84,387.85,310.84,389Z" transform="translate(-3.6 -4.07)"/><path d="M316.78,383.33h1.06v8.51h-1.06Z" transform="translate(-3.6 -4.07)"/><path d="M324.87,388.89A2.83,2.83,0,0,1,322,392a2.76,2.76,0,0,1-2.78-3,2.83,2.83,0,0,1,2.87-3.08A2.75,2.75,0,0,1,324.87,388.89Zm-4.61.06c0,1.27.74,2.23,1.77,2.23s1.76-.95,1.76-2.25c0-1-.49-2.23-1.74-2.23S320.26,387.85,320.26,389Z" transform="translate(-3.6 -4.07)"/><path d="M331.21,386c0,.42,0,.88,0,1.59V391a3.35,3.35,0,0,1-.83,2.65,3.06,3.06,0,0,1-2.11.7,3.73,3.73,0,0,1-1.93-.48l.26-.8a3.41,3.41,0,0,0,1.7.45c1.08,0,1.87-.56,1.87-2v-.64h0a2.07,2.07,0,0,1-1.85,1,2.6,2.6,0,0,1-2.47-2.83,2.79,2.79,0,0,1,2.62-3.08,1.92,1.92,0,0,1,1.81,1h0l0-.87Zm-1.1,2.29a1.44,1.44,0,0,0-.06-.48,1.52,1.52,0,0,0-1.47-1.12c-1,0-1.73.85-1.73,2.2,0,1.14.58,2.08,1.72,2.08a1.54,1.54,0,0,0,1.46-1.08,1.81,1.81,0,0,0,.08-.56Z" transform="translate(-3.6 -4.07)"/><path d="M334,384.41a.65.65,0,0,1-1.3,0,.64.64,0,0,1,.66-.66A.62.62,0,0,1,334,384.41Zm-1.17,7.43V386h1.05v5.8Z" transform="translate(-3.6 -4.07)"/><path d="M339.79,391.63a4,4,0,0,1-1.67.33,2.76,2.76,0,0,1-2.89-3,2.94,2.94,0,0,1,3.12-3.08,3.44,3.44,0,0,1,1.46.3l-.24.81a2.5,2.5,0,0,0-1.22-.27,2.18,2.18,0,0,0,0,4.36,2.86,2.86,0,0,0,1.29-.29Z" transform="translate(-3.6 -4.07)"/><path d="M344.24,391.84l-.09-.73h0a2.16,2.16,0,0,1-1.78.86,1.65,1.65,0,0,1-1.77-1.66c0-1.41,1.24-2.17,3.49-2.16V388a1.2,1.2,0,0,0-1.32-1.35,2.82,2.82,0,0,0-1.51.44l-.24-.7a3.6,3.6,0,0,1,1.9-.51c1.78,0,2.21,1.21,2.21,2.37v2.17a7.38,7.38,0,0,0,.1,1.39Zm-.16-3c-1.15,0-2.46.18-2.46,1.31a.93.93,0,0,0,1,1,1.45,1.45,0,0,0,1.4-1,.92.92,0,0,0,.06-.33Z" transform="translate(-3.6 -4.07)"/><path d="M346.81,383.33h1.05v8.51h-1.05Z" transform="translate(-3.6 -4.07)"/><path d="M352.09,388.21V389h-3v-.78Z" transform="translate(-3.6 -4.07)"/><path d="M354.59,384.37V386h1.52v.8h-1.52V390c0,.72.21,1.13.8,1.13A2.68,2.68,0,0,0,356,391l0,.79a2.63,2.63,0,0,1-.93.14,1.45,1.45,0,0,1-1.14-.44,2.15,2.15,0,0,1-.41-1.51v-3.17h-.9V386h.9v-1.39Z" transform="translate(-3.6 -4.07)"/><path d="M357.81,389.13a1.86,1.86,0,0,0,2,2,4,4,0,0,0,1.61-.3l.18.75a4.67,4.67,0,0,1-1.93.36A2.69,2.69,0,0,1,356.8,389c0-1.76,1-3.13,2.73-3.13a2.45,2.45,0,0,1,2.39,2.73,4.68,4.68,0,0,1,0,.49Zm3.1-.75a1.51,1.51,0,0,0-1.47-1.72,1.76,1.76,0,0,0-1.62,1.72Z" transform="translate(-3.6 -4.07)"/><path d="M363.24,383.33h1.05v8.51h-1.05Z" transform="translate(-3.6 -4.07)"/><path d="M366.65,389.13a1.87,1.87,0,0,0,2,2,3.91,3.91,0,0,0,1.6-.3l.18.75a4.67,4.67,0,0,1-1.93.36,2.69,2.69,0,0,1-2.85-2.92c0-1.76,1-3.13,2.72-3.13a2.46,2.46,0,0,1,2.4,2.73,4.15,4.15,0,0,1,0,.49Zm3.1-.75a1.51,1.51,0,0,0-1.46-1.72,1.74,1.74,0,0,0-1.62,1.72Z" transform="translate(-3.6 -4.07)"/><path d="M372.08,387.93c0-.74,0-1.34-.05-1.89h1l0,1h0a2.29,2.29,0,0,1,2.06-1.12c1.41,0,2.46,1.18,2.46,2.95,0,2.08-1.27,3.11-2.64,3.11a2,2,0,0,1-1.78-.91h0v3.16h-1Zm1,1.55a2.82,2.82,0,0,0,.05.43,1.63,1.63,0,0,0,1.58,1.24c1.12,0,1.77-.92,1.77-2.25,0-1.16-.62-2.16-1.73-2.16a1.7,1.7,0,0,0-1.6,1.31,2,2,0,0,0-.07.43Z" transform="translate(-3.6 -4.07)"/><path d="M384.16,388.89a2.83,2.83,0,0,1-2.89,3.08,2.76,2.76,0,0,1-2.78-3,2.83,2.83,0,0,1,2.88-3.08A2.75,2.75,0,0,1,384.16,388.89Zm-4.61.06c0,1.27.74,2.23,1.77,2.23s1.76-.95,1.76-2.25c0-1-.49-2.23-1.74-2.23S379.55,387.85,379.55,389Z" transform="translate(-3.6 -4.07)"/><path d="M385.5,387.85c0-.69,0-1.27-.05-1.81h.92l0,1.14h0a1.75,1.75,0,0,1,1.61-1.27,1.32,1.32,0,0,1,.3,0v1a1.28,1.28,0,0,0-.36,0,1.47,1.47,0,0,0-1.41,1.36,2.38,2.38,0,0,0,0,.49v3.09h-1Z" transform="translate(-3.6 -4.07)"/><path d="M391,384.37V386h1.51v.8H391V390c0,.72.2,1.13.79,1.13a2.68,2.68,0,0,0,.61-.07l.05.79a2.73,2.73,0,0,1-.94.14,1.47,1.47,0,0,1-1.14-.44A2.15,2.15,0,0,1,390,390v-3.17h-.9V386h.9v-1.39Z" transform="translate(-3.6 -4.07)"/><path d="M396.89,391.84l-.08-.73h0A2.13,2.13,0,0,1,395,392a1.65,1.65,0,0,1-1.78-1.66c0-1.41,1.25-2.17,3.49-2.16V388a1.2,1.2,0,0,0-1.32-1.35,2.84,2.84,0,0,0-1.51.44l-.24-.7a3.63,3.63,0,0,1,1.91-.51c1.77,0,2.21,1.21,2.21,2.37v2.17a8.39,8.39,0,0,0,.09,1.39Zm-.15-3c-1.16,0-2.46.18-2.46,1.31a.93.93,0,0,0,1,1,1.45,1.45,0,0,0,1.41-1,1.2,1.2,0,0,0,.06-.33Z" transform="translate(-3.6 -4.07)"/><path d="M400.68,384.37V386h1.52v.8h-1.52V390c0,.72.21,1.13.8,1.13a2.68,2.68,0,0,0,.61-.07l.05.79a2.73,2.73,0,0,1-.94.14,1.45,1.45,0,0,1-1.14-.44,2.15,2.15,0,0,1-.41-1.51v-3.17h-.9V386h.9v-1.39Z" transform="translate(-3.6 -4.07)"/><path d="M404.56,384.41a.62.62,0,0,1-.67.64.63.63,0,0,1-.64-.64.64.64,0,0,1,.66-.66A.62.62,0,0,1,404.56,384.41Zm-1.17,7.43V386h1.05v5.8Z" transform="translate(-3.6 -4.07)"/><path d="M411.45,388.89a2.83,2.83,0,0,1-2.89,3.08,2.76,2.76,0,0,1-2.79-3,2.83,2.83,0,0,1,2.88-3.08A2.75,2.75,0,0,1,411.45,388.89Zm-4.61.06c0,1.27.73,2.23,1.76,2.23s1.77-.95,1.77-2.25c0-1-.49-2.23-1.74-2.23S406.84,387.85,406.84,389Z" transform="translate(-3.6 -4.07)"/><path d="M412.78,387.61c0-.6,0-1.09,0-1.57h.94l.06,1h0a2.12,2.12,0,0,1,1.92-1.09c.81,0,2.05.47,2.05,2.47v3.46h-1.05V388.5c0-.94-.35-1.72-1.35-1.72a1.5,1.5,0,0,0-1.41,1.08,1.45,1.45,0,0,0-.07.49v3.49h-1.06Z" transform="translate(-3.6 -4.07)"/><path d="M418.55,392.32l3.35-8.69h.82l-3.36,8.69Z" transform="translate(-3.6 -4.07)"/></svg>